{
.appVersion = "1222";
classes = (
{
code = "dieresiscomb dotaccentcomb gravecomb acutecomb hungarumlautcomb circumflexcomb caroncomb brevecomb ringcomb tildecomb macroncomb uni0305 commaturnedabovecomb uni0325 uni035B uni1DD1 uni1DD2 uni0363 uni0364 uni0365 uni0366 uni0367 uni0368 uni0369 uni036A uni036B uni036C uni036D uni036E uni036F uni1DD3 ";
name = CombDiacritics;
},
{
code = "a b c d e g h i j k l m n o p q r s t u v w x y z\012agrave aacute acircumflex atilde adieresis aring ae\012ccedilla egrave eacute ecircumflex edieresis igrave\012iacute icircumflex idieresis eth ntilde ograve\012oacute ocircumflex otilde odieresis oslash ugrave\012uacute ucircumflex udieresis yacute thorn ydieresis\012germandbls amacron emacron imacron omacron umacron\012abreve cdotaccent dcaron ebreve eogonek gdotaccent\012ibreve dotlessi lslash obreve oe tcaron ubreve\012longs uni0195 uni01BF uni01E3 uni01EB uni021D\012uni0233 uni0237 uni1D79 uni1E8F uni1E9C uniA741\012uniA751 uniA753 uniA757 uniA75D uniA76B uniA76F\012uniA77A uniA77C uniA783 uniA785 uniA787\012# uniFB00 uniFB01 uniFB02 uniFB03 uniFB04\012uniFB05 uniFB06\012# f_f_udieresis f_thorn f_thorn.nordic f_eth.nordic\012# f_j f_udieresis f_odieresis";
name = AllLowerCaseexclf;
},
{
code = "agrave acircumflex atilde adieresis aring egrave\012ecircumflex edieresis igrave iacute icircumflex\012idieresis ograve ocircumflex otilde odieresis\012ugrave ucircumflex udieresis ydieresis amacron\012abreve emacron ebreve imacron ibreve omacron\012obreve umacron ubreve uni01E3 aacute eacute iacute\012oacute yacute aeacute aeacute.square";
name = HighDiacritics;
},
{
code = "f uniFB00";
name = LowerCase_f;
},
{
code = "zero one two three four five six seven eight nine dollar";
name = FIGURES_LINING_TABULAR;
},
{
code = "zero.tosf one.tosf two.tosf three.tosf four.tosf five.tosf six.tosf seven.tosf eight.tosf nine.tosf dollar.tosf";
name = FIGURES_OLDSTYLE_TABULAR;
},
{

glyphs = (
{
glyphname = A;
lastChange = "2019-06-22 18:50:06 +0000";
layers = (
{
anchors = (
{
name = bottom;
position = "{480, 0}";
},
{
name = ogonek;
position = "{907, 10}";
},
{
name = top;
position = "{1442, 1363}";
}
);
guideLines = (
{
position = "{240, 50}";
}
);
layerId = "9207B417-A6D7-41AF-BE7C-4506B089B767";
paths = (
{
closed = 1;
nodes = (
"165 53 LINE",
"1317 1242 LINE",
"1230 1272 LINE",
"-7 53 LINE"
);
},
{
closed = 1;
nodes = (
"1043 53 LINE",
"1517 1179 LINE SMOOTH",
"1546 1247 OFFCURVE",
"1575 1310 OFFCURVE",
"1603 1367 CURVE",
"1584 1385 LINE",
"1189 1294 LINE",
"1180 1263 LINE",
"1218 1237 OFFCURVE",
"1245 1196 OFFCURVE",
"1175 1029 CURVE SMOOTH",
"764 53 LINE"
);
},
{
closed = 1;
nodes = (
"359 0 LINE",
"395 102 LINE",
"-106 102 LINE",
"-142 0 LINE"
);
},
{
closed = 1;
nodes = (
"1215 0 LINE",
"1251 102 LINE",
"650 102 LINE",
"614 0 LINE"
);
},
{
closed = 1;
nodes = (
"1016 437 LINE",
"1058 539 LINE",
"593 570 LINE",
"529 470 LINE"
);
}
);
width = 1392;
},
{
anchors = (
{
name = bottom;
position = "{440, 0}";
},
{
name = ogonek;
position = "{935, 10}";
},
{
name = top;
position = "{1236, 1358}";
}
);
layerId = "5006D1C8-6490-4B45-8DF5-310CA26D976E";
paths = (
{
closed = 1;
nodes = (
"40 35 LINE",
"1234 1272 LINE",
"1176 1272 LINE",
"-79 35 LINE"
);
},
{
closed = 1;
nodes = (
"791 35 LINE",
"1270 1179 LINE SMOOTH",
"1289 1224 OFFCURVE",
"1334 1323 OFFCURVE",
"1355 1367 CURVE",
"1336 1385 LINE",
"1135 1294 LINE",
"1126 1263 LINE",
"1167 1235 OFFCURVE",
"1190 1193 OFFCURVE",
"1121 1029 CURVE SMOOTH",
"704 35 LINE"
);
},
{
closed = 1;
nodes = (
"229 0 LINE",
"253 64 LINE",
"-165 64 LINE",
"-189 0 LINE"
);
},
{
closed = 1;
nodes = (
"917 0 LINE",
"940 65 LINE",
"571 65 LINE",
"548 0 LINE"
);
},
{
closed = 1;
nodes = (
"972 519 LINE",
"1000 583 LINE",
"547 616 LINE",
"484 553 LINE"
);
}
);
width = 1201;
},
{
anchors = (
{
name = bottom;
position = "{474, 0}";
},
{
name = ogonek;
position = "{901, 10}";
},
{
name = top;
position = "{1314, 1363}";
}
);
hints = (
{
horizontal = 1;
origin = "{1, 5}";
type = Anchor;
},
{
horizontal = 1;
origin = "{2, 3}";
type = Anchor;
},
{
horizontal = 1;
origin = "{2, 3}";
target = "{3, 3}";
type = Align;
options = 4;
},
{
horizontal = 1;
origin = "{1, 5}";
target = "{2, 3}";
other1 = "{4, 3}";
type = Interpolate;
},
{
horizontal = 1;
origin = "{4, 3}";
target = "{4, 2}";
type = TTStem;
options = 4;
},
{
horizontal = 1;
origin = "{2, 3}";
target = "{2, 2}";
type = TTStem;
options = 4;
},
{
horizontal = 1;
origin = "{2, 2}";
target = "{3, 2}";
type = Align;
options = 4;
},
{
horizontal = 1;
origin = "{2, 3}";
target = "{2, 2}";
other1 = "{0, 3}";
type = Interpolate;
options = 4;
},
{
horizontal = 1;
origin = "{0, 3}";
target = "{1, 11}";
type = Align;
options = 4;
}
);
layerId = "87470B05-E19F-4BE8-998C-E64C1608970F";
paths = (
{
closed = 1;
nodes = (
"56 27 LINE",
"1229 1242 LINE",
"1205 1272 LINE",
"-54 27 LINE"
);
},
{
closed = 1;
nodes = (
"815 27 LINE",
"1299 1179 LINE SMOOTH",
"1315 1217 OFFCURVE",
"1359 1316 OFFCURVE",
"1383 1367 CURVE",
"1364 1385 LINE",
"1164 1294 LINE",
"1155 1263 LINE",
"1194 1237 OFFCURVE",
"1222 1197 OFFCURVE",
"1151 1029 CURVE SMOOTH",
"730 27 LINE"
);
},
{
closed = 1;
nodes = (
"258 0 LINE",
"279 53 LINE",
"-138 53 LINE",
"-159 0 LINE"
);
},
{
closed = 1;
nodes = (
"945 0 LINE",
"965 53 LINE",
"598 53 LINE",
"578 0 LINE"
);
},
{
closed = 1;
nodes = (
"994 513 LINE",
"1032 565 LINE",
"561 600 LINE",
"507 550 LINE"
);
}
);
width = 1141;
},
{
anchors = (
{
name = bottom;
position = "{379, 0}";
},
{
name = ogonek;
position = "{742, 10}";
},
{
name = top;
position = "{1246, 1363}";
}
);
layerId = "945CD315-E705-4656-B029-92F168859E1E";
paths = (
{
closed = 1;
nodes = (
"94 49 LINE",
"1140 1242 LINE",
"1077 1272 LINE",
"-44 49 LINE"
);
},
{
closed = 1;
nodes = (
"824 49 LINE",
"1290 1179 LINE SMOOTH",
"1322 1256 OFFCURVE",
"1341 1299 OFFCURVE",
"1372 1367 CURVE",
"1358 1385 LINE",
"1043 1294 LINE",
"1034 1263 LINE",
"1077 1224 OFFCURVE",
"1069 1157 OFFCURVE",
"1016 1029 CURVE SMOOTH",
"612 49 LINE"
);
},
{
closed = 1;
nodes = (
"257 0 LINE",
"291 94 LINE",
"-124 94 LINE",
"-157 0 LINE"
);
},
{
closed = 1;
nodes = (
"961 0 LINE",
"994 94 LINE",
"516 94 LINE",
"483 0 LINE"
);
},
{
closed = 1;
nodes = (
"850 450 LINE",
"889 543 LINE",
"496 575 LINE",
"438 483 LINE"
);
}
);
width = 1141;
}
);
leftKerningGroup = A;
note = A;
rightKerningGroup = A;
unicode = 0041;
},
{
glyphname = Aring;
lastChange = "2019-06-22 22:12:52 +0000";
layers = (
{
anchors = (
{
name = top;
position = "{1920, 1358}";
}
);
guideLines = (
{
position = "{237, 46}";
}
);
layerId = "9207B417-A6D7-41AF-BE7C-4506B089B767";
paths = (
{
closed = 1;
nodes = (
"162 49 LINE",
"1382 1310 LINE",
"1295 1340 LINE",
"-10 49 LINE"
);
},
{
closed = 1;
nodes = (
"1043 49 LINE",
"1577 1322 LINE",
"1302 1333 LINE",
"764 49 LINE"
);
},
{
closed = 1;
nodes = (
"359 0 LINE",
"395 102 LINE",
"-106 102 LINE",
"-142 0 LINE"
);
},
{
closed = 1;
nodes = (
"1215 0 LINE",
"1251 102 LINE",
"650 102 LINE",
"614 0 LINE"
);
},
{
closed = 1;
nodes = (
"1029 487 LINE",
"1070 585 LINE",
"606 617 LINE",
"544 520 LINE"
);
},
{
closed = 1;
nodes = (
"1601 1249 OFFCURVE",
"1741 1371 OFFCURVE",
"1741 1522 CURVE SMOOTH",
"1741 1574 OFFCURVE",
"1711 1707 OFFCURVE",
"1534 1707 CURVE SMOOTH",
"1351 1707 OFFCURVE",
"1209 1590 OFFCURVE",
"1209 1436 CURVE SMOOTH",
"1209 1317 OFFCURVE",
"1294 1249 OFFCURVE",
"1432 1249 CURVE SMOOTH"
);
},
{
closed = 1;
nodes = (
"1411 1350 OFFCURVE",
"1402 1410 OFFCURVE",
"1402 1464 CURVE SMOOTH",
"1402 1544 OFFCURVE",
"1448 1614 OFFCURVE",
"1496 1614 CURVE SMOOTH",
"1546 1614 OFFCURVE",
"1558 1576 OFFCURVE",
"1558 1507 CURVE SMOOTH",
"1558 1429 OFFCURVE",
"1505 1350 OFFCURVE",
"1458 1350 CURVE SMOOTH"
);
}
);
width = 1392;
},
{
anchors = (
{
name = top;
position = "{1762, 1358}";
}
);
layerId = "5006D1C8-6490-4B45-8DF5-310CA26D976E";
paths = (
{
closed = 1;
nodes = (
"40 34 LINE",
"1258 1297 LINE",
"1199 1297 LINE",
"-79 34 LINE"
);
},
{
closed = 1;
nodes = (
"789 34 LINE",
"1313 1279 LINE",
"1228 1285 LINE",
"702 34 LINE"
);
},
{
closed = 1;
nodes = (
"229 0 LINE",
"253 64 LINE",
"-165 64 LINE",
"-189 0 LINE"
);
},
{
closed = 1;
nodes = (
"917 0 LINE",
"940 65 LINE",
"571 65 LINE",
"548 0 LINE"
);
},
{
closed = 1;
nodes = (
"973 516 LINE",
"997 579 LINE",
"544 610 LINE",
"484 550 LINE"
);
},
{
closed = 1;
nodes = (
"1420 1256 OFFCURVE",
"1537 1378 OFFCURVE",
"1537 1497 CURVE SMOOTH",
"1537 1542 OFFCURVE",
"1508 1636 OFFCURVE",
"1364 1636 CURVE SMOOTH",
"1241 1636 OFFCURVE",
"1132 1535 OFFCURVE",
"1132 1414 CURVE SMOOTH",
"1132 1324 OFFCURVE",
"1195 1256 OFFCURVE",
"1298 1256 CURVE SMOOTH"
);
},
{
closed = 1;
nodes = (
"1247 1309 OFFCURVE",
"1205 1349 OFFCURVE",
"1205 1414 CURVE SMOOTH",
"1205 1495 OFFCURVE",
"1270 1584 OFFCURVE",
"1358 1584 CURVE SMOOTH",
"1418 1584 OFFCURVE",
"1458 1543 OFFCURVE",
"1458 1481 CURVE SMOOTH",
"1458 1397 OFFCURVE",
"1397 1309 OFFCURVE",
"1307 1309 CURVE SMOOTH"
);
}
);
width = 1201;
},
{
anchors = (
{
name = top;
position = "{1805, 1358}";
}
);
hints = (
{
horizontal = 1;
origin = "{2, 3}";
type = Anchor;
},
{
horizontal = 1;
origin = "{2, 3}";
target = "{2, 2}";
type = TTStem;
options = 4;
},
{
horizontal = 1;
origin = "{2, 3}";
target = "{3, 3}";
type = Align;
options = 4;
},
{
horizontal = 1;
origin = "{2, 2}";
target = "{3, 2}";
type = Align;
options = 4;
},
{
horizontal = 1;
origin = "{2, 3}";
target = "{2, 2}";
other1 = "{0, 3}";
type = Interpolate;
options = 4;
},
{
horizontal = 1;
origin = "{5, 5}";
type = Anchor;
},
{
horizontal = 1;
origin = "{5, 5}";
target = "{6, 5}";
type = TTStem;
options = 4;
},
{
horizontal = 1;
origin = "{6, 5}";
target = "{6, 11}";
type = TTStem;
stem = -1;
options = 4;
},
{
horizontal = 1;
origin = "{6, 11}";
target = "{5, 11}";
type = TTStem;
options = 4;
},
{
horizontal = 1;
origin = "{6, 11}";
target = "{5, 11}";
other1 = "{1, 2}";
type = Interpolate;
options = 4;
},
{
horizontal = 1;
origin = "{6, 11}";
target = "{5, 11}";
other1 = "{0, 1}";
type = Interpolate;
options = 4;
},
{
horizontal = 1;
origin = "{2, 3}";
target = "{5, 5}";
other1 = "{4, 2}";
type = Interpolate;
options = 4;
},
{
horizontal = 1;
origin = "{4, 2}";
target = "{4, 3}";
type = TTStem;
options = 4;
},
{
horizontal = 1;
origin = "{0, 3}";
target = "{1, 3}";
type = Align;
options = 4;
}
);
layerId = "87470B05-E19F-4BE8-998C-E64C1608970F";
paths = (
{
closed = 1;
nodes = (
"53 24 LINE",
"1282 1297 LINE",
"1259 1327 LINE",
"-57 24 LINE"
);
},
{
closed = 1;
nodes = (
"813 24 LINE",
"1341 1282 LINE",
"1268 1310 LINE",
"728 24 LINE"
);
},
{
closed = 1;
nodes = (
"258 0 LINE",
"279 53 LINE",
"-138 53 LINE",
"-159 0 LINE"
);
},
{
closed = 1;
nodes = (
"945 0 LINE",
"965 53 LINE",
"598 53 LINE",
"578 0 LINE"
);
},
{
closed = 1;
nodes = (
"975 514 LINE",
"1013 566 LINE",
"561 600 LINE",
"507 550 LINE"
);
},
{
closed = 1;
nodes = (
"1447 1256 OFFCURVE",
"1563 1378 OFFCURVE",
"1563 1496 CURVE SMOOTH",
"1563 1542 OFFCURVE",
"1535 1636 OFFCURVE",
"1392 1636 CURVE SMOOTH",
"1269 1636 OFFCURVE",
"1160 1535 OFFCURVE",
"1160 1414 CURVE SMOOTH",
"1160 1324 OFFCURVE",
"1223 1256 OFFCURVE",
"1326 1256 CURVE SMOOTH"
);
},
{
closed = 1;
nodes = (
"1274 1309 OFFCURVE",
"1232 1349 OFFCURVE",
"1232 1413 CURVE SMOOTH",
"1232 1495 OFFCURVE",
"1297 1583 OFFCURVE",
"1385 1583 CURVE SMOOTH",
"1445 1583 OFFCURVE",
"1485 1542 OFFCURVE",
"1485 1480 CURVE SMOOTH",
"1485 1397 OFFCURVE",
"1425 1309 OFFCURVE",
"1334 1309 CURVE SMOOTH"
);
}
);
width = 1141;
},
{
anchors = (
{
name = top;
position = "{1653, 1358}";
}
);
layerId = "945CD315-E705-4656-B029-92F168859E1E";
paths = (
{
closed = 1;
nodes = (
"91 45 LINE",
"1197 1308 LINE",
"1133 1338 LINE",
"-46 45 LINE"
);
},
{
closed = 1;
nodes = (
"823 45 LINE",
"1346 1315 LINE",
"1140 1329 LINE",
"611 45 LINE"
);
},
{
closed = 1;
nodes = (
"257 0 LINE",
"291 94 LINE",
"-124 94 LINE",
"-157 0 LINE"
);
},
{
closed = 1;
nodes = (
"962 0 LINE",
"994 94 LINE",
"516 94 LINE",
"483 0 LINE"
);
},
{
closed = 1;
nodes = (
"860 489 LINE",
"900 581 LINE",
"506 613 LINE",
"449 522 LINE"
);
},
{
closed = 1;
nodes = (
"1373 1250 OFFCURVE",
"1502 1384 OFFCURVE",
"1502 1527 CURVE SMOOTH",
"1502 1583 OFFCURVE",
"1476 1695 OFFCURVE",
"1341 1695 CURVE SMOOTH",
"1190 1695 OFFCURVE",
"1064 1570 OFFCURVE",
"1064 1418 CURVE SMOOTH",
"1064 1312 OFFCURVE",
"1131 1250 OFFCURVE",
"1234 1250 CURVE SMOOTH"
);
},
{
closed = 1;
nodes = (
"1225 1345 OFFCURVE",
"1212 1390 OFFCURVE",
"1212 1436 CURVE SMOOTH",
"1212 1533 OFFCURVE",
"1264 1607 OFFCURVE",
"1308 1607 CURVE SMOOTH",
"1344 1607 OFFCURVE",
"1359 1577 OFFCURVE",
"1359 1524 CURVE SMOOTH",
"1359 1426 OFFCURVE",
"1304 1345 OFFCURVE",
"1260 1345 CURVE SMOOTH"
);
}
);
width = 1141;
}
);
leftKerningGroup = A;
leftMetricsKey = A;
widthMetricsKey = A;
note = Aring;
rightKerningGroup = A;
unicode = 00C5;
},
{
glyphname = AE;
lastChange = "2019-06-22 14:11:28 +0000";
layers = (
{
anchors = (
{
name = bottom;
position = "{687, 0}";
},
{
name = top;
position = "{1575, 1363}";
}
);
layerId = "9207B417-A6D7-41AF-BE7C-4506B089B767";
paths = (
{
closed = 1;
nodes = (
"1087 -5 LINE",
"1543 1256 LINE",
"1875 1256 LINE SMOOTH",
"1966 1256 OFFCURVE",
"1991 1235 OFFCURVE",
"1996 1210 CURVE SMOOTH",
"2038 1009 LINE",
"2099 1009 LINE",
"2217 1358 LINE",
"947 1358 LINE",
"947 1256 LINE",
"1022 1256 OFFCURVE",
"1189 1232 OFFCURVE",
"1217 1201 CURVE",
"773 -5 LINE"
);
},
{
closed = 1;
nodes = (
"388 -1 LINE",
"424 102 LINE",
"-106 102 LINE",
"-142 -1 LINE"
);
},
{
closed = 1;
nodes = (
"85 -5 LINE",
"1269 1242 LINE",
"1154 1293 LINE",
"-92 -5 LINE"
);
},
{
closed = 1;
nodes = (
"1794 0 LINE",
"1919 356 LINE",
"1858 356 LINE",
"1685 176 LINE SMOOTH",
"1654 144 OFFCURVE",
"1617 102 OFFCURVE",
"1564 102 CURVE SMOOTH",
"640 102 LINE",
"602 0 LINE"
);
},
{
closed = 1;
nodes = (
"1618 591 LINE",
"1615 688 LINE",
"613 688 LINE",
"579 591 LINE"
);
},
{
closed = 1;
nodes = (
"1612 416 LINE",
"1774 882 LINE",
"1636 882 LINE",
"1475 416 LINE"
);
}
);
width = 1982;
},
{
anchors = (
{
name = bottom;
position = "{695, 0}";
},
{
name = top;
position = "{1574, 1363}";
}
);
layerId = "5006D1C8-6490-4B45-8DF5-310CA26D976E";
paths = (
{
closed = 1;
nodes = (
"859 5 LINE",
"1333 1305 LINE",
"1778 1305 LINE SMOOTH",
"1862 1305 OFFCURVE",
"1909 1288 OFFCURVE",
"1907 1259 CURVE SMOOTH",
"1889 1025 LINE",
"1911 1025 LINE",
"2056 1358 LINE",
"1018 1358 LINE",
"1018 1305 LINE",
"1121 1305 OFFCURVE",
"1156 1290 OFFCURVE",
"1202 1242 CURVE",
"754 5 LINE"
);
},
{
closed = 1;
nodes = (
"274 0 LINE",
"299 65 LINE",
"-165 65 LINE",
"-189 0 LINE"
);
},
{
closed = 1;
nodes = (
"7 5 LINE",
"1222 1302 LINE",
"1179 1339 LINE",
"-88 5 LINE"
);
},
{
closed = 1;
nodes = (
"1621 0 LINE",
"1751 340 LINE",
"1729 340 LINE",
"1536 95 LINE SMOOTH",
"1510 62 OFFCURVE",
"1465 53 OFFCURVE",
"1407 53 CURVE SMOOTH",
"558 53 LINE",
"549 0 LINE"
);
},
{
closed = 1;
nodes = (
"1496 615 LINE",
"1523 669 LINE",
"572 669 LINE",
"550 615 LINE"
);
},
{
closed = 1;
nodes = (
"1461 426 LINE",
"1630 871 LINE",
"1576 871 LINE",
"1407 426 LINE"
);
}
);
width = 1889;
},
{
anchors = (
{
name = bottom;
position = "{660, 0}";
},
{
name = top;
position = "{1494, 1363}";
}
);
hints = (
{
horizontal = 1;
origin = "{1, 3}";
type = Anchor;
},
{
horizontal = 1;
origin = "{1, 3}";
target = "{1, 2}";
type = TTStem;
options = 4;
},
{
horizontal = 1;
origin = "{1, 3}";
target = "{3, 8}";
type = Align;
options = 4;
},
{
horizontal = 1;
origin = "{1, 2}";
target = "{3, 7}";
type = Align;
options = 4;
},
{
horizontal = 1;
origin = "{0, 9}";
type = Anchor;
},
{
horizontal = 1;
origin = "{0, 9}";
target = "{0, 10}";
type = TTStem;
options = 4;
},
{
horizontal = 1;
origin = "{0, 9}";
target = "{0, 1}";
type = TTStem;
options = 4;
},
{
horizontal = 1;
origin = "{1, 3}";
target = "{0, 9}";
other1 = "{4, 3}";
type = Interpolate;
},
{
horizontal = 1;
origin = "{4, 3}";
target = "{4, 2}";
type = TTStem;
options = 4;
},
{
horizontal = 1;
origin = "{1, 3}";
target = "{1, 2}";
other1 = "{2, 3}";
type = Interpolate;
options = 4;
},
{
horizontal = 1;
origin = "{2, 3}";
target = "{0, 14}";
type = Align;
options = 4;
}
);
layerId = "87470B05-E19F-4BE8-998C-E64C1608970F";
paths = (
{
closed = 1;
nodes = (
"820 36 LINE",
"1265 1305 LINE",
"1686 1305 LINE SMOOTH",
"1765 1305 OFFCURVE",
"1808 1288 OFFCURVE",
"1806 1260 CURVE SMOOTH",
"1788 1025 LINE",
"1808 1025 LINE",
"1943 1358 LINE",
"979 1358 LINE",
"979 1305 LINE",
"1056 1305 OFFCURVE",
"1113 1281 OFFCURVE",
"1146 1242 CURVE",
"725 36 LINE"
);
},
{
closed = 1;
nodes = (
"272 0 LINE",
"293 53 LINE",
"-139 53 LINE",
"-159 0 LINE"
);
},
{
closed = 1;
nodes = (
"46 36 LINE",
"1161 1291 LINE",
"1113 1324 LINE",
"-42 36 LINE"
);
},
{
closed = 1;
nodes = (
"1524 0 LINE",
"1645 340 LINE",
"1625 340 LINE",
"1445 94 LINE SMOOTH",
"1421 61 OFFCURVE",
"1378 53 OFFCURVE",
"1325 53 CURVE SMOOTH",
"541 53 LINE",
"534 0 LINE"
);
},
{
closed = 1;
nodes = (
"1405 615 LINE",
"1431 669 LINE",
"550 669 LINE",
"531 615 LINE"
);
},
{
closed = 1;
nodes = (
"1373 426 LINE",
"1530 871 LINE",
"1481 871 LINE",
"1323 426 LINE"
);
}
);
width = 1771;
},
{
anchors = (
{
name = bottom;
position = "{593, 0}";
},
{
name = top;
position = "{1437, 1363}";
}
);
layerId = "945CD315-E705-4656-B029-92F168859E1E";
paths = (
{
closed = 1;
nodes = (
"921 2 LINE",
"1377 1264 LINE",
"1688 1264 LINE SMOOTH",
"1767 1264 OFFCURVE",
"1793 1244 OFFCURVE",
"1796 1218 CURVE SMOOTH",
"1818 1012 LINE",
"1868 1012 LINE",
"1989 1358 LINE",
"884 1358 LINE",
"880 1264 LINE",
"949 1264 OFFCURVE",
"1083 1240 OFFCURVE",
"1108 1208 CURVE",
"668 2 LINE"
);
},
{
closed = 1;
nodes = (
"310 -1 LINE",
"343 94 LINE",
"-124 94 LINE",
"-157 -1 LINE"
);
},
{
closed = 1;
nodes = (
"46 2 LINE",
"1152 1250 LINE",
"1059 1298 LINE",
"-102 2 LINE"
);
},
{
closed = 1;
nodes = (
"1560 0 LINE",
"1685 353 LINE",
"1636 353 LINE",
"1471 162 LINE SMOOTH",
"1442 128 OFFCURVE",
"1402 94 OFFCURVE",
"1359 94 CURVE SMOOTH",
"543 94 LINE",
"510 0 LINE"
);
},
{
closed = 1;
nodes = (
"1432 595 LINE",
"1437 685 LINE",
"544 685 LINE",
"513 595 LINE"
);
},
{
closed = 1;
nodes = (
"1417 418 LINE",
"1579 880 LINE",
"1467 880 LINE",
"1307 418 LINE"
);
}
);
width = 1771;
}
);
leftKerningGroup = AE;
leftMetricsKey = A;
note = AE;
rightKerningGroup = AE;
rightMetricsKey = E;
unicode = 00C6;
},
{
glyphname = B;
lastChange = "2019-06-22 14:11:28 +0000";
layers = (
{
anchors = (
{
name = bottom;
position = "{474, 0}";
},
{
name = top;
position = "{955, 1363}";
}
);
layerId = "9207B417-A6D7-41AF-BE7C-4506B089B767";
paths = (
{
closed = 1;
nodes = (
"587 0 LINE SMOOTH",
"982 0 OFFCURVE",
"1239 116 OFFCURVE",
"1239 362 CURVE SMOOTH",
"1239 556 OFFCURVE",
"1093 660 OFFCURVE",
"735 749 CURVE",
"721 694 LINE",
"1097 694 OFFCURVE",
"1391 773 OFFCURVE",
"1391 1039 CURVE SMOOTH",
"1391 1271 OFFCURVE",
"1164 1358 OFFCURVE",
"828 1358 CURVE SMOOTH",
"367 1358 LINE",
"329 1256 LINE",
"759 1256 LINE SMOOTH",
"954 1256 OFFCURVE",
"1080 1231 OFFCURVE",
"1080 1048 CURVE SMOOTH",
"1080 936 OFFCURVE",
"1044 893 OFFCURVE",
"997 857 CURVE SMOOTH",
"893 777 OFFCURVE",
"809 777 OFFCURVE",
"563 777 CURVE SMOOTH",
"404 777 LINE",
"399 675 LINE",
"545 675 LINE SMOOTH",
"756 675 OFFCURVE",
"906 609 OFFCURVE",
"906 374 CURVE SMOOTH",
"906 140 OFFCURVE",
"709 102 OFFCURVE",
"483 102 CURVE SMOOTH",
"-56 102 LINE",
"-92 0 LINE"
);
},
{
closed = 1;
nodes = (
"407 51 LINE",
"846 1301 LINE",
"533 1301 LINE",
"94 51 LINE"
);
}
);
width = 1314;
},
{
anchors = (
{
name = bottom;
position = "{349, 0}";
},
{
name = top;
position = "{848, 1363}";
}
);
layerId = "5006D1C8-6490-4B45-8DF5-310CA26D976E";
paths = (
{
closed = 1;
nodes = (
"497 0 LINE SMOOTH",
"1051 0 OFFCURVE",
"1096 224 OFFCURVE",
"1096 362 CURVE SMOOTH",
"1096 535 OFFCURVE",
"998 647 OFFCURVE",
"761 714 CURVE",
"754 689 LINE",
"1148 689 OFFCURVE",
"1262 887 OFFCURVE",
"1262 1039 CURVE SMOOTH",
"1262 1208 OFFCURVE",
"1150 1358 OFFCURVE",
"771 1358 CURVE SMOOTH",
"380 1358 LINE",
"369 1293 LINE",
"698 1293 LINE SMOOTH",
"942 1293 OFFCURVE",
"1154 1247 OFFCURVE",
"1154 1054 CURVE SMOOTH",
"1154 942 OFFCURVE",
"1087 861 OFFCURVE",
"997 809 CURVE SMOOTH",
"920 766 OFFCURVE",
"750 749 OFFCURVE",
"471 749 CURVE SMOOTH",
"410 749 LINE",
"405 683 LINE",
"453 683 LINE SMOOTH",
"928 683 OFFCURVE",
"981 451 OFFCURVE",
"981 374 CURVE SMOOTH",
"981 217 OFFCURVE",
"872 65 OFFCURVE",
"383 65 CURVE SMOOTH",
"-110 65 LINE",
"-132 0 LINE"
);
},
{
closed = 1;
nodes = (
"181 33 LINE",
"681 1328 LINE",
"575 1328 LINE",
"75 33 LINE"
);
}
);
width = 1233;
},
{
anchors = (
{
name = bottom;
position = "{370, 0}";
},
{
name = top;
position = "{851, 1363}";
}
);
hints = (
{
horizontal = 1;
origin = "{0, 14}";
type = Anchor;
},
{
horizontal = 1;
origin = "{0, 14}";
target = "{0, 15}";
type = TTStem;
options = 4;
},
{
horizontal = 1;
origin = "{0, 36}";
type = Anchor;
},
{
horizontal = 1;
origin = "{0, 36}";
target = "{0, 35}";
type = TTStem;
options = 4;
},
{
horizontal = 1;
origin = "{0, 14}";
target = "{0, 36}";
other1 = "{0, 27}";
type = Interpolate;
},
{
horizontal = 1;
origin = "{0, 27}";
target = "{0, 26}";
type = TTStem;
options = 4;
},
{
horizontal = 1;
origin = "{0, 36}";
target = "{0, 35}";
other1 = "{1, 3}";
type = Interpolate;
options = 4;
},
{
horizontal = 1;
origin = "{0, 14}";
target = "{0, 15}";
other1 = "{1, 2}";
type = Interpolate;
options = 4;
}
);
layerId = "87470B05-E19F-4BE8-998C-E64C1608970F";
paths = (
{
closed = 1;
nodes = (
"473 0 LINE SMOOTH",
"983 0 OFFCURVE",
"1020 225 OFFCURVE",
"1020 362 CURVE SMOOTH",
"1020 534 OFFCURVE",
"931 647 OFFCURVE",
"717 714 CURVE",
"710 689 LINE",
"1071 689 OFFCURVE",
"1172 888 OFFCURVE",
"1172 1039 CURVE SMOOTH",
"1172 1207 OFFCURVE",
"1044 1358 OFFCURVE",
"771 1358 CURVE SMOOTH",
"368 1358 LINE",
"358 1305 LINE",
"644 1305 LINE SMOOTH",
"862 1305 OFFCURVE",
"1066 1259 OFFCURVE",
"1066 1054 CURVE SMOOTH",
"1066 947 OFFCURVE",
"1012 862 OFFCURVE",
"937 815 CURVE SMOOTH",
"855 765 OFFCURVE",
"720 745 OFFCURVE",
"449 745 CURVE SMOOTH",
"397 745 LINE",
"392 688 LINE",
"431 688 LINE SMOOTH",
"870 688 OFFCURVE",
"904 467 OFFCURVE",
"904 374 CURVE SMOOTH",
"904 188 OFFCURVE",
"786 53 OFFCURVE",
"369 53 CURVE SMOOTH",
"-82 53 LINE",
"-100 0 LINE"
);
},
{
closed = 1;
nodes = (
"183 25 LINE",
"645 1332 LINE",
"548 1332 LINE",
"86 25 LINE"
);
}
);
width = 1139;
},
{
anchors = (
{
name = bottom;
position = "{381, 0}";
},
{
name = top;
position = "{864, 1363}";
}
);
layerId = "945CD315-E705-4656-B029-92F168859E1E";
paths = (
{
closed = 1;
nodes = (
"479 0 LINE SMOOTH",
"844 0 OFFCURVE",
"1059 135 OFFCURVE",
"1059 379 CURVE SMOOTH",
"1059 559 OFFCURVE",
"939 660 OFFCURVE",
"655 743 CURVE",
"641 693 LINE",
"1017 693 OFFCURVE",
"1221 821 OFFCURVE",
"1221 1055 CURVE SMOOTH",
"1221 1265 OFFCURVE",
"1036 1358 OFFCURVE",
"757 1358 CURVE SMOOTH",
"356 1358 LINE",
"322 1264 LINE",
"684 1264 LINE SMOOTH",
"798 1264 OFFCURVE",
"973 1264 OFFCURVE",
"973 1065 CURVE SMOOTH",
"973 934 OFFCURVE",
"925 882 OFFCURVE",
"885 849 CURVE SMOOTH",
"791 772 OFFCURVE",
"694 772 OFFCURVE",
"489 772 CURVE SMOOTH",
"364 772 LINE",
"356 677 LINE",
"470 677 LINE SMOOTH",
"680 677 OFFCURVE",
"794 591 OFFCURVE",
"794 396 CURVE SMOOTH",
"794 94 OFFCURVE",
"517 94 OFFCURVE",
"391 94 CURVE SMOOTH",
"-75 94 LINE",
"-108 0 LINE"
);
},
{
closed = 1;
nodes = (
"306 47 LINE",
"751 1306 LINE",
"503 1306 LINE",
"59 47 LINE"
);
}
);
width = 1139;
}
);
leftMetricsKey = H;
note = B;
rightKerningGroup = B;
rightMetricsKey = O;
unicode = 0042;
},
{
glyphname = C;
lastChange = "2019-06-22 14:11:28 +0000";
layers = (
{
anchors = (
{
name = bottom;
position = "{534, 0}";
},
{
name = top;
position = "{1099, 1358}";
}
);
layerId = "9207B417-A6D7-41AF-BE7C-4506B089B767";
paths = (
{
closed = 1;
nodes = (
"743 -27 OFFCURVE",
"926 1 OFFCURVE",
"1162 202 CURVE",
"1118 218 LINE",
"1016 1 LINE",
"1132 1 LINE",
"1338 452 LINE",
"1230 452 LINE",
"1136 237 OFFCURVE",
"896 74 OFFCURVE",
"666 74 CURVE SMOOTH",
"485 74 OFFCURVE",
"411 183 OFFCURVE",
"411 353 CURVE SMOOTH",
"411 697 OFFCURVE",
"716 1291 OFFCURVE",
"1141 1291 CURVE SMOOTH",
"1360 1291 OFFCURVE",
"1420 1132 OFFCURVE",
"1420 967 CURVE",
"1521 967 LINE",
"1673 1370 LINE",
"1567 1370 LINE",
"1489 1156 LINE",
"1518 1172 LINE",
"1437 1339 OFFCURVE",
"1262 1385 OFFCURVE",
"1094 1385 CURVE SMOOTH",
"545 1385 OFFCURVE",
"69 894 OFFCURVE",
"69 426 CURVE SMOOTH",
"69 149 OFFCURVE",
"237 -27 OFFCURVE",
"599 -27 CURVE SMOOTH"
);
}
);
width = 1429;
},
{
anchors = (
{
name = bottom;
position = "{535, 0}";
},
{
name = top;
position = "{1137, 1363}";
}
);
layerId = "5006D1C8-6490-4B45-8DF5-310CA26D976E";
paths = (
{
closed = 1;
nodes = (
"732 -27 OFFCURVE",
"876 7 OFFCURVE",
"1129 162 CURVE",
"1114 187 LINE",
"1017 -8 LINE",
"1078 -8 LINE",
"1301 438 LINE",
"1235 438 LINE",
"1118 202 OFFCURVE",
"841 38 OFFCURVE",
"579 38 CURVE SMOOTH",
"325 38 OFFCURVE",
"189 178 OFFCURVE",
"189 401 CURVE SMOOTH",
"189 784 OFFCURVE",
"581 1319 OFFCURVE",
"1092 1319 CURVE SMOOTH",
"1384 1319 OFFCURVE",
"1439 1137 OFFCURVE",
"1439 954 CURVE",
"1497 954 LINE",
"1662 1370 LINE",
"1599 1370 LINE",
"1507 1139 LINE",
"1547 1172 LINE",
"1425 1327 OFFCURVE",
"1260 1385 OFFCURVE",
"1087 1385 CURVE SMOOTH",
"555 1385 OFFCURVE",
"79 821 OFFCURVE",
"79 392 CURVE SMOOTH",
"79 138 OFFCURVE",
"250 -27 OFFCURVE",
"577 -27 CURVE SMOOTH"
);
}
);
width = 1433;
},
{
anchors = (
{
name = bottom;
position = "{495, 0}";
},
{
name = top;
position = "{1056, 1358}";
}
);
hints = (
{
horizontal = 1;
origin = "{0, 27}";
type = Anchor;
},
{
horizontal = 1;
origin = "{0, 33}";
type = Anchor;
},
{
horizontal = 1;
origin = "{0, 27}";
target = "{0, 16}";
type = TTStem;
options = 4;
},
{
horizontal = 1;
origin = "{0, 33}";
target = "{0, 10}";
type = TTStem;
options = 4;
}
);
layerId = "87470B05-E19F-4BE8-998C-E64C1608970F";
paths = (
{
closed = 1;
nodes = (
"708 -27 OFFCURVE",
"841 7 OFFCURVE",
"1077 162 CURVE",
"1063 187 LINE",
"974 -9 LINE",
"1029 -9 LINE",
"1237 438 LINE",
"1176 438 LINE",
"1067 197 OFFCURVE",
"809 28 OFFCURVE",
"564 28 CURVE SMOOTH",
"329 28 OFFCURVE",
"201 173 OFFCURVE",
"201 401 CURVE SMOOTH",
"201 788 OFFCURVE",
"566 1328 OFFCURVE",
"1042 1328 CURVE SMOOTH",
"1316 1328 OFFCURVE",
"1366 1142 OFFCURVE",
"1366 954 CURVE",
"1420 954 LINE",
"1574 1370 LINE",
"1516 1370 LINE",
"1433 1139 LINE",
"1467 1172 LINE",
"1353 1327 OFFCURVE",
"1199 1385 OFFCURVE",
"1038 1385 CURVE SMOOTH",
"542 1385 OFFCURVE",
"97 821 OFFCURVE",
"97 392 CURVE SMOOTH",
"97 138 OFFCURVE",
"256 -27 OFFCURVE",
"562 -27 CURVE SMOOTH"
);
}
);
width = 1332;
},
{
anchors = (
{
name = bottom;
position = "{511, 0}";
},
{
name = top;
position = "{1073, 1358}";
}
);
layerId = "945CD315-E705-4656-B029-92F168859E1E";
paths = (
{
closed = 1;
nodes = (
"712 -27 OFFCURVE",
"879 2 OFFCURVE",
"1109 195 CURVE",
"1072 213 LINE",
"972 -1 LINE",
"1075 -1 LINE",
"1280 450 LINE",
"1183 450 LINE",
"1087 230 OFFCURVE",
"850 66 OFFCURVE",
"629 66 CURVE SMOOTH",
"449 66 OFFCURVE",
"370 180 OFFCURVE",
"370 353 CURVE SMOOTH",
"370 706 OFFCURVE",
"687 1297 OFFCURVE",
"1104 1297 CURVE SMOOTH",
"1321 1297 OFFCURVE",
"1373 1133 OFFCURVE",
"1373 965 CURVE",
"1463 965 LINE",
"1615 1370 LINE",
"1521 1370 LINE",
"1442 1153 LINE",
"1471 1172 LINE",
"1389 1337 OFFCURVE",
"1226 1385 OFFCURVE",
"1067 1385 CURVE SMOOTH",
"549 1385 OFFCURVE",
"81 878 OFFCURVE",
"81 411 CURVE SMOOTH",
"81 143 OFFCURVE",
"240 -27 OFFCURVE",
"574 -27 CURVE SMOOTH"
);
}
);
width = 1332;
}
);
leftKerningGroup = C;
leftMetricsKey = O;
note = C;
rightKerningGroup = C;
unicode = 0043;
},
{
glyphname = D;
lastChange = "2019-06-22 14:11:28 +0000";
layers = (
{
anchors = (
{
name = bottom;
position = "{621, 0}";
},
{
name = center;
position = "{526, 683}";
},
{
name = overlay;
position = "{575, 704}";
},
{
name = top;
position = "{1134, 1364}";
}
);
layerId = "9207B417-A6D7-41AF-BE7C-4506B089B767";
paths = (
{
closed = 1;
nodes = (
"577 0 LINE SMOOTH",
"718 0 OFFCURVE",
"885 0 OFFCURVE",
"1071 82 CURVE SMOOTH",
"1367 213 OFFCURVE",
"1556 500 OFFCURVE",
"1556 783 CURVE SMOOTH",
"1556 994 OFFCURVE",
"1448 1181 OFFCURVE",
"1254 1286 CURVE SMOOTH",
"1132 1352 OFFCURVE",
"981 1385 OFFCURVE",
"770 1385 CURVE SMOOTH",
"621 1385 OFFCURVE",
"499 1368 OFFCURVE",
"357 1331 CURVE",
"373 1257 LINE",
"466 1284 OFFCURVE",
"543 1295 OFFCURVE",
"650 1295 CURVE SMOOTH",
"827 1295 OFFCURVE",
"965 1264 OFFCURVE",
"1056 1199 CURVE SMOOTH",
"1167 1119 OFFCURVE",
"1214 995 OFFCURVE",
"1214 811 CURVE SMOOTH",
"1214 567 OFFCURVE",
"1126 348 OFFCURVE",
"929 220 CURVE SMOOTH",
"748 102 OFFCURVE",
"507 102 OFFCURVE",
"253 102 CURVE SMOOTH",
"-66 102 LINE",
"-109 0 LINE"
);
},
{
closed = 1;
nodes = (
"436 47 LINE",
"884 1336 LINE",
"584 1333 LINE",
"136 47 LINE"
);
}
);
width = 1501;
},
{
anchors = (
{
name = bottom;
position = "{513, 0}";
},
{
name = center;
position = "{442, 678}";
},
{
name = overlay;
position = "{447, 704}";
},
{
name = top;
position = "{859, 1357}";
}
);
layerId = "5006D1C8-6490-4B45-8DF5-310CA26D976E";
paths = (
{
closed = 1;
nodes = (
"433 0 LINE SMOOTH",
"714 0 OFFCURVE",
"866 19 OFFCURVE",
"1004 84 CURVE SMOOTH",
"1307 227 OFFCURVE",
"1445 520 OFFCURVE",
"1445 778 CURVE SMOOTH",
"1445 1001 OFFCURVE",
"1342 1189 OFFCURVE",
"1162 1289 CURVE SMOOTH",
"1036 1359 OFFCURVE",
"881 1385 OFFCURVE",
"709 1385 CURVE SMOOTH",
"577 1385 OFFCURVE",
"471 1369 OFFCURVE",
"353 1338 CURVE",
"381 1268 LINE",
"482 1306 OFFCURVE",
"606 1318 OFFCURVE",
"720 1318 CURVE SMOOTH",
"892 1318 OFFCURVE",
"1023 1292 OFFCURVE",
"1133 1214 CURVE SMOOTH",
"1250 1131 OFFCURVE",
"1329 1002 OFFCURVE",
"1329 813 CURVE SMOOTH",
"1329 595 OFFCURVE",
"1223 328 OFFCURVE",
"1019 198 CURVE SMOOTH",
"829 77 OFFCURVE",
"554 65 OFFCURVE",
"275 65 CURVE SMOOTH",
"-38 65 LINE",
"-57 0 LINE"
);
},
{
closed = 1;
nodes = (
"239 27 LINE",
"699 1354 LINE",
"590 1355 LINE",
"130 27 LINE"
);
}
);
width = 1453;
},
{
anchors = (
{
name = bottom;
position = "{537, 0}";
},
{
name = center;
position = "{451, 678}";
},
{
name = overlay;
position = "{459, 704}";
},
{
name = top;
position = "{872, 1357}";
}
);
hints = (
{
horizontal = 1;
origin = "{0, 12}";
type = Anchor;
},
{
horizontal = 1;
origin = "{0, 33}";
type = Anchor;
},
{
horizontal = 1;
origin = "{0, 12}";
target = "{0, 19}";
type = TTStem;
options = 4;
},
{
horizontal = 1;
origin = "{0, 12}";
target = "{0, 19}";
other1 = "{1, 1}";
type = Interpolate;
options = 4;
},
{
horizontal = 1;
origin = "{0, 33}";
target = "{0, 32}";
type = TTStem;
options = 4;
},
{
horizontal = 1;
origin = "{0, 33}";
target = "{0, 32}";
other1 = "{1, 3}";
type = Interpolate;
options = 4;
}
);
layerId = "87470B05-E19F-4BE8-998C-E64C1608970F";
paths = (
{
closed = 1;
nodes = (
"539 0 LINE SMOOTH",
"686 0 OFFCURVE",
"858 12 OFFCURVE",
"1003 80 CURVE SMOOTH",
"1304 221 OFFCURVE",
"1450 514 OFFCURVE",
"1450 778 CURVE SMOOTH",
"1450 1000 OFFCURVE",
"1346 1191 OFFCURVE",
"1170 1288 CURVE SMOOTH",
"1038 1361 OFFCURVE",
"881 1385 OFFCURVE",
"715 1385 CURVE SMOOTH",
"584 1385 OFFCURVE",
"478 1369 OFFCURVE",
"361 1338 CURVE",
"389 1276 LINE",
"489 1313 OFFCURVE",
"618 1327 OFFCURVE",
"730 1327 CURVE SMOOTH",
"899 1327 OFFCURVE",
"1035 1295 OFFCURVE",
"1149 1213 CURVE SMOOTH",
"1260 1133 OFFCURVE",
"1342 1003 OFFCURVE",
"1342 816 CURVE SMOOTH",
"1342 599 OFFCURVE",
"1237 323 OFFCURVE",
"1030 190 CURVE SMOOTH",
"842 69 OFFCURVE",
"543 53 OFFCURVE",
"292 53 CURVE SMOOTH",
"-28 53 LINE",
"-47 0 LINE"
);
},
{
closed = 1;
nodes = (
"236 24 LINE",
"696 1354 LINE",
"598 1355 LINE",
"138 24 LINE"
);
}
);
width = 1437;
},
{
anchors = (
{
name = bottom;
position = "{499, 0}";
},
{
name = center;
position = "{501, 700}";
},
{
name = overlay;
position = "{509, 700}";
},
{
name = top;
position = "{908, 1363}";
}
);
layerId = "945CD315-E705-4656-B029-92F168859E1E";
paths = (
{
closed = 1;
nodes = (
"539 0 LINE SMOOTH",
"659 0 OFFCURVE",
"836 0 OFFCURVE",
"1015 82 CURVE SMOOTH",
"1302 214 OFFCURVE",
"1485 507 OFFCURVE",
"1485 790 CURVE SMOOTH",
"1485 1013 OFFCURVE",
"1372 1190 OFFCURVE",
"1203 1285 CURVE SMOOTH",
"1080 1354 OFFCURVE",
"936 1385 OFFCURVE",
"739 1385 CURVE SMOOTH",
"593 1385 OFFCURVE",
"478 1367 OFFCURVE",
"347 1332 CURVE",
"364 1260 LINE",
"456 1289 OFFCURVE",
"540 1300 OFFCURVE",
"643 1300 CURVE SMOOTH",
"816 1300 OFFCURVE",
"946 1269 OFFCURVE",
"1039 1200 CURVE SMOOTH",
"1144 1122 OFFCURVE",
"1191 999 OFFCURVE",
"1191 823 CURVE SMOOTH",
"1191 571 OFFCURVE",
"1098 344 OFFCURVE",
"901 213 CURVE SMOOTH",
"722 94 OFFCURVE",
"477 94 OFFCURVE",
"238 94 CURVE SMOOTH",
"-71 94 LINE",
"-110 0 LINE"
);
},
{
closed = 1;
nodes = (
"377 43 LINE",
"828 1339 LINE",
"569 1337 LINE",
"118 43 LINE"
);
}
);
width = 1437;
}
);
leftMetricsKey = H;
note = D;
rightKerningGroup = D;
rightMetricsKey = O;
unicode = 0044;
},
{
glyphname = E;
lastChange = "2019-06-22 14:11:28 +0000";
layers = (
{
anchors = (
{
name = bottom;
position = "{386, 0}";
},
{
name = ogonek;
position = "{952, 10}";
},
{
name = top;
position = "{968, 1363}";
},
{
name = topleft;
position = "{343, 1363}";
}
);
layerId = "9207B417-A6D7-41AF-BE7C-4506B089B767";
paths = (
{
closed = 1;
nodes = (
"376 45 LINE",
"836 1313 LINE",
"531 1313 LINE",
"60 45 LINE"
);
},
{
closed = 1;
nodes = (
"1064 0 LINE",
"1188 356 LINE",
"1127 356 LINE",
"954 176 LINE SMOOTH",
"925 146 OFFCURVE",
"887 102 OFFCURVE",
"834 102 CURVE SMOOTH",
"-90 102 LINE",
"-128 0 LINE"
);
},
{
closed = 1;
nodes = (
"888 591 LINE",
"884 688 LINE",
"506 688 LINE",
"510 591 LINE"
);
},
{
closed = 1;
nodes = (
"882 416 LINE",
"1044 882 LINE",
"906 882 LINE",
"744 416 LINE"
);
},
{
closed = 1;
nodes = (
"1370 1009 LINE",
"1487 1358 LINE",
"371 1358 LINE",
"334 1256 LINE",
"1146 1256 LINE SMOOTH",
"1237 1256 OFFCURVE",
"1258 1247 OFFCURVE",
"1266 1210 CURVE SMOOTH",
"1308 1009 LINE"
);
}
);
width = 1252;
},
{
anchors = (
{
name = bottom;
position = "{375, 0}";
},
{
name = ogonek;
position = "{828, 10}";
},
{
name = top;
position = "{886, 1363}";
},
{
name = topleft;
position = "{314, 1363}";
}
);
layerId = "5006D1C8-6490-4B45-8DF5-310CA26D976E";
paths = (
{
closed = 1;
nodes = (
"189 30 LINE",
"680 1324 LINE",
"573 1324 LINE",
"84 30 LINE"
);
},
{
closed = 1;
nodes = (
"945 0 LINE",
"1076 340 LINE",
"1044 340 LINE",
"861 107 LINE SMOOTH",
"834 73 OFFCURVE",
"790 65 OFFCURVE",
"732 65 CURVE SMOOTH",
"-110 65 LINE",
"-119 0 LINE"
);
},
{
closed = 1;
nodes = (
"818 610 LINE",
"845 675 LINE",
"396 675 LINE",
"369 610 LINE"
);
},
{
closed = 1;
nodes = (
"790 426 LINE",
"959 871 LINE",
"898 871 LINE",
"729 426 LINE"
);
},
{
closed = 1;
nodes = (
"1243 1025 LINE",
"1388 1358 LINE",
"381 1358 LINE",
"359 1294 LINE",
"1110 1294 LINE SMOOTH",
"1193 1294 OFFCURVE",
"1244 1288 OFFCURVE",
"1239 1248 CURVE SMOOTH",
"1210 1025 LINE"
);
}
);
width = 1214;
},
{
anchors = (
{
name = bottom;
position = "{416, 0}";
},
{
name = ogonek;
position = "{837, 10}";
},
{
name = top;
position = "{907, 1363}";
},
{
name = topleft;
position = "{373, 1363}";
}
);
hints = (
{
horizontal = 1;
origin = "{1, 8}";
type = Anchor;
},
{
horizontal = 1;
origin = "{4, 2}";
type = Anchor;
},
{
horizontal = 1;
origin = "{1, 8}";
target = "{1, 7}";
type = TTStem;
options = 4;
},
{
horizontal = 1;
origin = "{4, 2}";
target = "{4, 3}";
type = TTStem;
options = 4;
},
{
horizontal = 1;
origin = "{1, 8}";
target = "{4, 2}";
other1 = "{2, 3}";
type = Interpolate;
},
{
horizontal = 1;
origin = "{2, 3}";
target = "{2, 2}";
type = TTStem;
options = 4;
},
{
horizontal = 1;
origin = "{1, 8}";
target = "{1, 7}";
other1 = "{0, 3}";
type = Interpolate;
options = 4;
},
{
horizontal = 1;
origin = "{4, 2}";
target = "{4, 3}";
other1 = "{0, 2}";
type = Interpolate;
options = 4;
}
);
layerId = "87470B05-E19F-4BE8-998C-E64C1608970F";
paths = (
{
closed = 1;
nodes = (
"184 26 LINE",
"644 1332 LINE",
"547 1332 LINE",
"89 26 LINE"
);
},
{
closed = 1;
nodes = (
"891 0 LINE",
"1014 340 LINE",
"994 340 LINE",
"814 94 LINE SMOOTH",
"790 61 OFFCURVE",
"747 53 OFFCURVE",
"694 53 CURVE SMOOTH",
"-90 53 LINE",
"-98 0 LINE"
);
},
{
closed = 1;
nodes = (
"773 615 LINE",
"799 669 LINE",
"380 669 LINE",
"355 615 LINE"
);
},
{
closed = 1;
nodes = (
"741 426 LINE",
"898 871 LINE",
"849 871 LINE",
"691 426 LINE"
);
},
{
closed = 1;
nodes = (
"1169 1025 LINE",
"1304 1358 LINE",
"368 1358 LINE",
"359 1305 LINE",
"1047 1305 LINE SMOOTH",
"1124 1305 OFFCURVE",
"1170 1299 OFFCURVE",
"1167 1260 CURVE SMOOTH",
"1149 1025 LINE"
);
}
);
width = 1138;
},
{
anchors = (
{
name = bottom;
position = "{377, 0}";
},
{
name = ogonek;
position = "{877, 0}";
},
{
name = top;
position = "{884, 1358}";
},
{
name = topleft;
position = "{334, 1363}";
}
);
layerId = "945CD315-E705-4656-B029-92F168859E1E";
paths = (
{
closed = 1;
nodes = (
"330 42 LINE",
"790 1316 LINE",
"520 1316 LINE",
"51 42 LINE"
);
},
{
closed = 1;
nodes = (
"927 0 LINE",
"1051 353 LINE",
"997 353 LINE",
"823 162 LINE SMOOTH",
"795 131 OFFCURVE",
"755 94 OFFCURVE",
"703 94 CURVE SMOOTH",
"-104 94 LINE",
"-137 0 LINE"
);
},
{
closed = 1;
nodes = (
"815 595 LINE",
"816 685 LINE",
"471 685 LINE",
"470 595 LINE"
);
},
{
closed = 1;
nodes = (
"805 418 LINE",
"966 880 LINE",
"843 880 LINE",
"681 418 LINE"
);
},
{
closed = 1;
nodes = (
"1229 1012 LINE",
"1349 1358 LINE",
"357 1358 LINE",
"324 1264 LINE",
"1022 1264 LINE SMOOTH",
"1109 1264 OFFCURVE",
"1136 1254 OFFCURVE",
"1142 1218 CURVE SMOOTH",
"1174 1012 LINE"
);
}
);
width = 1138;
}
);
leftMetricsKey = H;
note = E;
rightKerningGroup = AE;
unicode = 0045;
},
{
glyphname = F;
lastChange = "2019-06-22 14:11:28 +0000";
layers = (
{
anchors = (
{
name = bottom;
position = "{461, 0}";
},
{
name = top;
position = "{942, 1363}";
}
);
layerId = "9207B417-A6D7-41AF-BE7C-4506B089B767";
paths = (
{
closed = 1;
nodes = (
"383 48 LINE",
"840 1306 LINE",
"534 1306 LINE",
"67 48 LINE"
);
},
{
closed = 1;
nodes = (
"1342 991 LINE",
"1471 1358 LINE",
"366 1358 LINE",
"329 1256 LINE",
"1139 1256 LINE SMOOTH",
"1215 1256 OFFCURVE",
"1236 1237 OFFCURVE",
"1241 1210 CURVE SMOOTH",
"1281 991 LINE"
);
},
{
closed = 1;
nodes = (
"547 0 LINE",
"583 102 LINE",
"-52 102 LINE",
"-88 0 LINE"
);
},
{
closed = 1;
nodes = (
"923 570 LINE",
"919 672 LINE",
"514 672 LINE",
"518 570 LINE"
);
},
{
closed = 1;
nodes = (
"867 328 LINE",
"1070 883 LINE",
"932 883 LINE",
"728 328 LINE"
);
}
);
width = 1186;
},
{
anchors = (
{
name = bottom;
position = "{342, 0}";
},
{
name = top;
position = "{842, 1363}";
}
);
layerId = "5006D1C8-6490-4B45-8DF5-310CA26D976E";
paths = (
{
closed = 1;
nodes = (
"177 27 LINE",
"668 1333 LINE",
"560 1333 LINE",
"72 27 LINE"
);
},
{
closed = 1;
nodes = (
"1220 990 LINE",
"1360 1358 LINE",
"371 1358 LINE",
"362 1305 LINE",
"1085 1305 LINE SMOOTH",
"1166 1305 OFFCURVE",
"1217 1292 OFFCURVE",
"1215 1259 CURVE SMOOTH",
"1199 990 LINE"
);
},
{
closed = 1;
nodes = (
"395 0 LINE",
"416 53 LINE",
"-112 53 LINE",
"-134 0 LINE"
);
},
{
closed = 1;
nodes = (
"832 589 LINE",
"858 654 LINE",
"354 654 LINE",
"327 589 LINE"
);
},
{
closed = 1;
nodes = (
"782 362 LINE",
"986 900 LINE",
"932 900 LINE",
"729 362 LINE"
);
}
);
width = 1080;
},
{
anchors = (
{
name = bottom;
position = "{376, 0}";
},
{
name = top;
position = "{857, 1363}";
}
);
hints = (
{
horizontal = 1;
origin = "{1, 2}";
type = Anchor;
},
{
horizontal = 1;
origin = "{1, 2}";
target = "{1, 3}";
type = TTStem;
options = 4;
},
{
horizontal = 1;
origin = "{2, 3}";
type = Anchor;
},
{
horizontal = 1;
origin = "{2, 3}";
target = "{2, 2}";
type = TTStem;
options = 4;
},
{
horizontal = 1;
origin = "{1, 2}";
target = "{2, 3}";
other1 = "{3, 3}";
type = Interpolate;
},
{
horizontal = 1;
origin = "{3, 3}";
target = "{3, 2}";
type = TTStem;
options = 4;
}
);
layerId = "87470B05-E19F-4BE8-998C-E64C1608970F";
paths = (
{
closed = 1;
nodes = (
"183 20 LINE",
"641 1330 LINE",
"545 1330 LINE",
"87 20 LINE"
);
},
{
closed = 1;
nodes = (
"1158 990 LINE",
"1288 1358 LINE",
"368 1358 LINE",
"361 1305 LINE",
"1033 1305 LINE SMOOTH",
"1109 1305 OFFCURVE",
"1157 1292 OFFCURVE",
"1155 1259 CURVE SMOOTH",
"1139 990 LINE"
);
},
{
closed = 1;
nodes = (
"387 0 LINE",
"407 53 LINE",
"-83 53 LINE",
"-103 0 LINE"
);
},
{
closed = 1;
nodes = (
"796 596 LINE",
"821 648 LINE",
"350 648 LINE",
"324 596 LINE"
);
},
{
closed = 1;
nodes = (
"750 362 LINE",
"940 900 LINE",
"890 900 LINE",
"702 362 LINE"
);
}
);
width = 1000;
},
{
anchors = (
{
name = bottom;
position = "{436, 0}";
},
{
name = top;
position = "{917, 1363}";
}
);
layerId = "945CD315-E705-4656-B029-92F168859E1E";
paths = (
{
closed = 1;
nodes = (
"339 43 LINE",
"796 1310 LINE",
"525 1310 LINE",
"60 43 LINE"
);
},
{
closed = 1;
nodes = (
"1172 991 LINE",
"1301 1358 LINE",
"356 1358 LINE",
"324 1264 LINE",
"982 1264 LINE SMOOTH",
"1058 1264 OFFCURVE",
"1083 1246 OFFCURVE",
"1087 1218 CURVE SMOOTH",
"1118 991 LINE"
);
},
{
closed = 1;
nodes = (
"510 0 LINE",
"543 94 LINE",
"-68 94 LINE",
"-101 0 LINE"
);
},
{
closed = 1;
nodes = (
"831 574 LINE",
"832 668 LINE",
"476 668 LINE",
"475 574 LINE"
);
},
{
closed = 1;
nodes = (
"777 334 LINE",
"978 886 LINE",
"855 886 LINE",
"653 334 LINE"
);
}
);
width = 1000;
}
);
leftMetricsKey = H;
note = F;
rightKerningGroup = F;
unicode = 0046;
},
{
glyphname = G;
lastChange = "2019-06-22 14:11:28 +0000";
layers = (
{
anchors = (
{
name = bottom;
position = "{611, 0}";
},
{
name = top;
position = "{1082, 1363}";
}
);
layerId = "9207B417-A6D7-41AF-BE7C-4506B089B767";
paths = (
{
closed = 1;
nodes = (
"702 -27 OFFCURVE",
"846 -20 OFFCURVE",
"951 -3 CURVE SMOOTH",
"1111 23 OFFCURVE",
"1177 31 OFFCURVE",
"1216 33 CURVE",
"1234 123 LINE",
"1204 123 OFFCURVE",
"1199 127 OFFCURVE",
"1204 141 CURVE SMOOTH",
"1344 526 LINE",
"1037 526 LINE",
"863 38 LINE",
"1031 208 LINE",
"881 116 OFFCURVE",
"778 73 OFFCURVE",
"670 73 CURVE SMOOTH",
"513 73 OFFCURVE",
"386 196 OFFCURVE",
"386 354 CURVE SMOOTH",
"386 852 OFFCURVE",
"748 1291 OFFCURVE",
"1122 1291 CURVE SMOOTH",
"1352 1291 OFFCURVE",
"1387 1132 OFFCURVE",
"1387 967 CURVE",
"1501 967 LINE",
"1653 1370 LINE",
"1541 1370 LINE",
"1440 1102 LINE",
"1529 1123 LINE",
"1396 1342 OFFCURVE",
"1272 1384 OFFCURVE",
"1086 1384 CURVE SMOOTH",
"585 1384 OFFCURVE",
"76 940 OFFCURVE",
"76 443 CURVE SMOOTH",
"76 146 OFFCURVE",
"284 -27 OFFCURVE",
"627 -27 CURVE SMOOTH"
);
},
{
closed = 1;
nodes = (
"1448 476 LINE",
"1477 570 LINE",
"859 570 LINE",
"829 476 LINE"
);
}
);
width = 1447;
},
{
anchors = (
{
name = bottom;
position = "{568, 0}";
},
{
name = top;
position = "{1109, 1363}";
}
);
layerId = "5006D1C8-6490-4B45-8DF5-310CA26D976E";
paths = (
{
closed = 1;
nodes = (
"694 -27 OFFCURVE",
"822 -27 OFFCURVE",
"983 10 CURVE SMOOTH",
"1071 30 OFFCURVE",
"1134 43 OFFCURVE",
"1177 51 CURVE",
"1182 82 LINE",
"1152 82 OFFCURVE",
"1155 104 OFFCURVE",
"1172 147 CURVE SMOOTH",
"1319 519 LINE",
"1209 519 LINE",
"1030 55 LINE",
"1117 152 LINE",
"952 58 OFFCURVE",
"745 33 OFFCURVE",
"631 33 CURVE SMOOTH",
"354 33 OFFCURVE",
"215 171 OFFCURVE",
"215 401 CURVE SMOOTH",
"215 764 OFFCURVE",
"621 1328 OFFCURVE",
"1119 1328 CURVE SMOOTH",
"1386 1328 OFFCURVE",
"1441 1151 OFFCURVE",
"1441 954 CURVE",
"1486 954 LINE",
"1650 1370 LINE",
"1588 1370 LINE",
"1488 1116 LINE",
"1535 1176 LINE",
"1430 1289 OFFCURVE",
"1350 1385 OFFCURVE",
"1128 1385 CURVE SMOOTH",
"527 1385 OFFCURVE",
"86 820 OFFCURVE",
"86 416 CURVE SMOOTH",
"86 150 OFFCURVE",
"285 -27 OFFCURVE",
"634 -27 CURVE SMOOTH"
);
},
{
closed = 1;
nodes = (
"1463 487 LINE",
"1460 541 LINE",
"950 541 LINE",
"953 487 LINE"
);
}
);
width = 1483;
},
{
anchors = (
{
name = bottom;
position = "{557, 0}";
},
{
name = top;
position = "{1080, 1363}";
}
);
hints = (
{
horizontal = 1;
origin = "{0, 39}";
type = Anchor;
},
{
horizontal = 1;
origin = "{0, 33}";
type = Anchor;
},
{
horizontal = 1;
origin = "{0, 33}";
target = "{0, 22}";
type = TTStem;
options = 4;
},
{
horizontal = 1;
origin = "{0, 39}";
target = "{0, 16}";
type = TTStem;
options = 4;
},
{
horizontal = 1;
origin = "{0, 39}";
target = "{0, 33}";
other1 = "{1, 3}";
type = Interpolate;
},
{
horizontal = 1;
origin = "{1, 3}";
target = "{1, 2}";
type = TTStem;
options = 4;
},
{
horizontal = 1;
origin = "{1, 3}";
target = "{1, 2}";
other1 = "{0, 11}";
type = Interpolate;
options = 4;
}
);
layerId = "87470B05-E19F-4BE8-998C-E64C1608970F";
paths = (
{
closed = 1;
nodes = (
"673 -27 OFFCURVE",
"792 -27 OFFCURVE",
"940 10 CURVE SMOOTH",
"948 12 OFFCURVE",
"1037 33 OFFCURVE",
"1120 51 CURVE",
"1124 82 LINE",
"1093 82 OFFCURVE",
"1101 109 OFFCURVE",
"1115 148 CURVE SMOOTH",
"1252 519 LINE",
"1152 519 LINE",
"986 55 LINE",
"1066 152 LINE",
"917 60 OFFCURVE",
"722 33 OFFCURVE",
"611 33 CURVE SMOOTH",
"352 33 OFFCURVE",
"221 171 OFFCURVE",
"221 402 CURVE SMOOTH",
"221 763 OFFCURVE",
"603 1328 OFFCURVE",
"1062 1328 CURVE SMOOTH",
"1315 1328 OFFCURVE",
"1367 1155 OFFCURVE",
"1367 954 CURVE",
"1408 954 LINE",
"1561 1370 LINE",
"1504 1370 LINE",
"1417 1132 LINE",
"1454 1183 LINE",
"1370 1294 OFFCURVE",
"1284 1385 OFFCURVE",
"1066 1385 CURVE SMOOTH",
"518 1385 OFFCURVE",
"104 819 OFFCURVE",
"104 415 CURVE SMOOTH",
"104 150 OFFCURVE",
"282 -27 OFFCURVE",
"630 -27 CURVE SMOOTH"
);
},
{
closed = 1;
nodes = (
"1389 487 LINE",
"1384 540 LINE",
"910 540 LINE",
"913 487 LINE"
);
}
);
width = 1411;
},
{
anchors = (
{
name = bottom;
position = "{587, 0}";
},
{
name = top;
position = "{1068, 1363}";
}
);
layerId = "945CD315-E705-4656-B029-92F168859E1E";
paths = (
{
closed = 1;
nodes = (
"679 -27 OFFCURVE",
"810 -21 OFFCURVE",
"923 -1 CURVE SMOOTH",
"1047 21 OFFCURVE",
"1121 31 OFFCURVE",
"1167 36 CURVE",
"1183 116 LINE",
"1149 116 OFFCURVE",
"1153 127 OFFCURVE",
"1158 142 CURVE SMOOTH",
"1297 525 LINE",
"1033 525 LINE",
"860 41 LINE",
"1010 199 LINE",
"864 107 OFFCURVE",
"752 66 OFFCURVE",
"645 66 CURVE SMOOTH",
"479 66 OFFCURVE",
"356 191 OFFCURVE",
"356 358 CURVE SMOOTH",
"356 831 OFFCURVE",
"723 1297 OFFCURVE",
"1096 1297 CURVE SMOOTH",
"1322 1297 OFFCURVE",
"1355 1136 OFFCURVE",
"1355 965 CURVE",
"1454 965 LINE",
"1606 1370 LINE",
"1506 1370 LINE",
"1407 1107 LINE",
"1486 1133 LINE",
"1367 1334 OFFCURVE",
"1254 1384 OFFCURVE",
"1069 1384 CURVE SMOOTH",
"573 1384 OFFCURVE",
"88 912 OFFCURVE",
"88 430 CURVE SMOOTH",
"88 145 OFFCURVE",
"283 -27 OFFCURVE",
"612 -27 CURVE SMOOTH"
);
},
{
closed = 1;
nodes = (
"1403 478 LINE",
"1426 565 LINE",
"851 565 LINE",
"826 478 LINE"
);
}
);
width = 1411;
}
);
leftKerningGroup = C;
leftMetricsKey = O;
note = G;
rightKerningGroup = G;
unicode = 0047;
},
{
glyphname = uni021C;
lastChange = "2019-06-22 14:11:28 +0000";
layers = (
{
anchors = (
{
name = bottom;
position = "{289, 0}";
},
{
name = top;
position = "{788, 1358}";
}
);
layerId = "9207B417-A6D7-41AF-BE7C-4506B089B767";
paths = (
{
closed = 1;
nodes = (
"696 -36 OFFCURVE",
"954 363 OFFCURVE",
"954 594 CURVE SMOOTH",
"954 726 OFFCURVE",
"861 777 OFFCURVE",
"705 808 CURVE",
"657 684 LINE",
"1064 944 OFFCURVE",
"1098 1067 OFFCURVE",
"1098 1158 CURVE SMOOTH",
"1098 1336 OFFCURVE",
"973 1384 OFFCURVE",
"825 1384 CURVE SMOOTH",
"714 1384 OFFCURVE",
"564 1356 OFFCURVE",
"329 1152 CURVE",
"315 952 LINE",
"403 1163 OFFCURVE",
"551 1232 OFFCURVE",
"660 1232 CURVE SMOOTH",
"743 1232 OFFCURVE",
"770 1191 OFFCURVE",
"770 1119 CURVE SMOOTH",
"770 1036 OFFCURVE",
"736 886 OFFCURVE",
"282 654 CURVE",
"311 566 LINE",
"437 635 OFFCURVE",
"499 664 OFFCURVE",
"537 664 CURVE SMOOTH",
"584 664 OFFCURVE",
"606 619 OFFCURVE",
"606 588 CURVE SMOOTH",
"606 502 OFFCURVE",
"505 76 OFFCURVE",
"-63 76 CURVE",
"-89 -36 LINE"
);
},
{
closed = 1;
nodes = (
"326 944 LINE",
"464 1341 LINE",
"352 1341 LINE",
"215 944 LINE"
);
}
);
width = 978;
},
{
anchors = (
{
name = bottom;
position = "{282, 0}";
},
{
name = top;
position = "{781, 1358}";
}
);
layerId = "5006D1C8-6490-4B45-8DF5-310CA26D976E";
paths = (
{
closed = 1;
nodes = (
"792 -60 OFFCURVE",
"895 423 OFFCURVE",
"895 522 CURVE SMOOTH",
"895 662 OFFCURVE",
"814 755 OFFCURVE",
"654 767 CURVE",
"653 739 LINE",
"1015 927 OFFCURVE",
"1061 1119 OFFCURVE",
"1061 1198 CURVE SMOOTH",
"1061 1301 OFFCURVE",
"975 1386 OFFCURVE",
"827 1386 CURVE SMOOTH",
"739 1386 OFFCURVE",
"567 1356 OFFCURVE",
"367 1157 CURVE",
"324 982 LINE",
"452 1216 OFFCURVE",
"593 1303 OFFCURVE",
"733 1303 CURVE SMOOTH",
"841 1303 OFFCURVE",
"915 1251 OFFCURVE",
"915 1151 CURVE SMOOTH",
"915 977 OFFCURVE",
"728 838 OFFCURVE",
"333 677 CURVE",
"360 611 LINE",
"456 667 OFFCURVE",
"529 682 OFFCURVE",
"583 682 CURVE SMOOTH",
"690 682 OFFCURVE",
"753 622 OFFCURVE",
"753 475 CURVE SMOOTH",
"753 326 OFFCURVE",
"567 -12 OFFCURVE",
"-67 -12 CURVE",
"-85 -60 LINE"
);
},
{
closed = 1;
nodes = (
"325 962 LINE",
"467 1342 LINE",
"392 1342 LINE",
"248 962 LINE"
);
}
);
width = 996;
},
{
anchors = (
{
name = bottom;
position = "{272, 0}";
},
{
name = top;
position = "{771, 1358}";
}
);
hints = (
{
horizontal = 1;
origin = "{0, 36}";
type = Anchor;
},
{
horizontal = 1;
origin = "{0, 12}";
type = Anchor;
},
{
horizontal = 1;
origin = "{0, 12}";
target = "{0, 19}";
type = TTStem;
options = 4;
},
{
horizontal = 1;
origin = "{0, 35}";
target = "{0, 36}";
type = TTStem;
options = 4;
},
{
horizontal = 1;
origin = "{0, 36}";
target = "{0, 12}";
other1 = "{0, 26}";
type = Interpolate;
options = 4;
},
{
horizontal = 1;
origin = "{0, 26}";
target = "{0, 25}";
type = TTStem;
options = 4;
}
);
layerId = "87470B05-E19F-4BE8-998C-E64C1608970F";
paths = (
{
closed = 1;
nodes = (
"763 -60 OFFCURVE",
"857 423 OFFCURVE",
"857 522 CURVE SMOOTH",
"857 661 OFFCURVE",
"782 755 OFFCURVE",
"633 766 CURVE",
"632 739 LINE",
"936 909 OFFCURVE",
"1012 1078 OFFCURVE",
"1012 1198 CURVE SMOOTH",
"1012 1301 OFFCURVE",
"932 1386 OFFCURVE",
"794 1386 CURVE SMOOTH",
"714 1386 OFFCURVE",
"552 1356 OFFCURVE",
"367 1157 CURVE",
"326 982 LINE",
"447 1219 OFFCURVE",
"580 1303 OFFCURVE",
"708 1303 CURVE SMOOTH",
"809 1303 OFFCURVE",
"878 1252 OFFCURVE",
"878 1151 CURVE SMOOTH",
"878 995 OFFCURVE",
"737 852 OFFCURVE",
"335 677 CURVE",
"360 612 LINE",
"449 667 OFFCURVE",
"516 682 OFFCURVE",
"568 682 CURVE SMOOTH",
"668 682 OFFCURVE",
"727 623 OFFCURVE",
"727 474 CURVE SMOOTH",
"727 324 OFFCURVE",
"553 -12 OFFCURVE",
"-39 -12 CURVE",
"-55 -60 LINE"
);
},
{
closed = 1;
nodes = (
"327 962 LINE",
"460 1342 LINE",
"390 1342 LINE",
"257 962 LINE"
);
}
);
width = 940;
},
{
anchors = (
{
name = bottom;
position = "{283, 0}";
},
{
name = top;
position = "{782, 1358}";
}
);
layerId = "945CD315-E705-4656-B029-92F168859E1E";
paths = (
{
closed = 1;
nodes = (
"692 -40 OFFCURVE",
"923 374 OFFCURVE",
"923 585 CURVE SMOOTH",
"923 715 OFFCURVE",
"836 773 OFFCURVE",
"686 801 CURVE",
"646 693 LINE",
"1028 938 OFFCURVE",
"1070 1070 OFFCURVE",
"1070 1168 CURVE SMOOTH",
"1070 1331 OFFCURVE",
"956 1384 OFFCURVE",
"815 1384 CURVE SMOOTH",
"718 1384 OFFCURVE",
"568 1360 OFFCURVE",
"341 1153 CURVE",
"321 957 LINE",
"415 1173 OFFCURVE",
"557 1244 OFFCURVE",
"666 1244 CURVE SMOOTH",
"748 1244 OFFCURVE",
"781 1202 OFFCURVE",
"781 1126 CURVE SMOOTH",
"781 1029 OFFCURVE",
"727 879 OFFCURVE",
"293 658 CURVE",
"320 574 LINE",
"440 642 OFFCURVE",
"501 667 OFFCURVE",
"538 667 CURVE SMOOTH",
"591 667 OFFCURVE",
"619 621 OFFCURVE",
"619 570 CURVE SMOOTH",
"619 473 OFFCURVE",
"503 61 OFFCURVE",
"-54 61 CURVE",
"-78 -40 LINE"
);
},
{
closed = 1;
nodes = (
"331 947 LINE",
"468 1341 LINE",
"366 1341 LINE",
"228 947 LINE"
);
}
);
width = 940;
}
);
note = uni021C;
unicode = 021C;
},
{
glyphname = H;
lastChange = "2019-06-22 14:11:28 +0000";
layers = (
{
anchors = (
{
name = bottom;
position = "{580, 0}";
},
{
name = center;
position = "{827, 679}";
},
{
name = top;
position = "{1074, 1358}";
},
{
name = topleft;
position = "{361, 1358}";
}
);
layerId = "9207B417-A6D7-41AF-BE7C-4506B089B767";
paths = (
{
closed = 1;
nodes = (
"1238 658 LINE",
"1250 743 LINE",
"431 743 LINE",
"419 658 LINE"
);
},
{
closed = 1;
nodes = (
"367 45 LINE",
"824 1309 LINE",
"518 1309 LINE",
"51 45 LINE"
);
},
{
closed = 1;
nodes = (
"1145 45 LINE",
"1601 1309 LINE",
"1296 1309 LINE",
"829 45 LINE"
);
},
{
closed = 1;
nodes = (
"974 1255 LINE",
"1010 1358 LINE",
"375 1358 LINE",
"339 1255 LINE"
);
},
{
closed = 1;
nodes = (
"1752 1255 LINE",
"1787 1358 LINE",
"1153 1358 LINE",
"1117 1255 LINE"
);
},
{
closed = 1;
nodes = (
"520 0 LINE",
"556 102 LINE",
"-91 102 LINE",
"-127 0 LINE"
);
},
{
closed = 1;
nodes = (
"1297 -1 LINE",
"1333 102 LINE",
"686 102 LINE",
"650 -1 LINE"
);
}
);
width = 1471;
},
{
anchors = (
{
name = bottom;
position = "{522, 0}";
},
{
name = center;
position = "{770, 679}";
},
{
name = top;
position = "{1017, 1358}";
},
{
name = topleft;
position = "{343, 1358}";
}
);
layerId = "5006D1C8-6490-4B45-8DF5-310CA26D976E";
paths = (
{
closed = 1;
nodes = (
"1171 667 LINE",
"1184 735 LINE",
"388 735 LINE",
"375 667 LINE"
);
},
{
closed = 1;
nodes = (
"171 35 LINE",
"657 1326 LINE",
"550 1326 LINE",
"66 35 LINE"
);
},
{
closed = 1;
nodes = (
"987 35 LINE",
"1473 1326 LINE",
"1366 1326 LINE",
"881 35 LINE"
);
},
{
closed = 1;
nodes = (
"835 1293 LINE",
"860 1358 LINE",
"361 1358 LINE",
"337 1293 LINE"
);
},
{
closed = 1;
nodes = (
"1651 1293 LINE",
"1676 1358 LINE",
"1176 1358 LINE",
"1152 1293 LINE"
);
},
{
closed = 1;
nodes = (
"366 0 LINE",
"391 65 LINE",
"-108 65 LINE",
"-133 0 LINE"
);
},
{
closed = 1;
nodes = (
"1182 0 LINE",
"1206 65 LINE",
"707 65 LINE",
"683 0 LINE"
);
}
);
width = 1389;
},
{
anchors = (
{
name = bottom;
position = "{497, 0}";
},
{
name = center;
position = "{744, 679}";
},
{
name = top;
position = "{991, 1358}";
},
{
name = topleft;
position = "{356, 1358}";
}
);
hints = (
{
horizontal = 1;
origin = "{5, 3}";
type = Anchor;
},
{
horizontal = 1;
origin = "{3, 2}";
type = Anchor;
},
{
horizontal = 1;
origin = "{3, 2}";
target = "{3, 3}";
type = TTStem;
options = 4;
},
{
horizontal = 1;
origin = "{5, 3}";
target = "{5, 2}";
type = TTStem;
options = 4;
},
{
horizontal = 1;
origin = "{5, 3}";
target = "{6, 3}";
type = Align;
options = 4;
},
{
horizontal = 1;
origin = "{3, 2}";
target = "{4, 2}";
type = Align;
options = 4;
},
{
horizontal = 1;
origin = "{3, 3}";
target = "{4, 3}";
type = Align;
options = 4;
},
{
horizontal = 1;
origin = "{5, 2}";
target = "{6, 2}";
type = Align;
options = 4;
},
{
horizontal = 1;
origin = "{5, 3}";
target = "{3, 2}";
other1 = "{0, 3}";
type = Interpolate;
},
{
horizontal = 1;
origin = "{0, 3}";
target = "{0, 2}";
type = TTStem;
options = 4;
},
{
horizontal = 1;
origin = "{5, 3}";
target = "{5, 2}";
other1 = "{1, 3}";
type = Interpolate;
options = 4;
},
{
horizontal = 1;
origin = "{1, 3}";
target = "{2, 3}";
type = Align;
options = 4;
}
);
layerId = "87470B05-E19F-4BE8-998C-E64C1608970F";
paths = (
{
closed = 1;
nodes = (
"1118 668 LINE",
"1130 733 LINE",
"387 733 LINE",
"375 668 LINE"
);
},
{
closed = 1;
nodes = (
"182 31 LINE",
"640 1335 LINE",
"544 1335 LINE",
"86 31 LINE"
);
},
{
closed = 1;
nodes = (
"940 31 LINE",
"1398 1335 LINE",
"1302 1335 LINE",
"843 31 LINE"
);
},
{
closed = 1;
nodes = (
"814 1305 LINE",
"835 1358 LINE",
"368 1358 LINE",
"349 1305 LINE"
);
},
{
closed = 1;
nodes = (
"1572 1305 LINE",
"1593 1358 LINE",
"1125 1358 LINE",
"1106 1305 LINE"
);
},
{
closed = 1;
nodes = (
"354 0 LINE",
"374 53 LINE",
"-87 53 LINE",
"-108 0 LINE"
);
},
{
closed = 1;
nodes = (
"1112 0 LINE",
"1131 53 LINE",
"670 53 LINE",
"650 0 LINE"
);
}
);
width = 1308;
},
{
anchors = (
{
name = bottom;
position = "{720, 566}";
},
{
name = center;
position = "{552, 113}";
},
{
name = top;
position = "{1007, 1358}";
},
{
name = topleft;
position = "{374, 1358}";
}
);
guideLines = (
{
position = "{1673, 917}";
showMeasurement = 1;
}
);
layerId = "945CD315-E705-4656-B029-92F168859E1E";
paths = (
{
closed = 1;
nodes = (
"1100 660 LINE",
"1114 741 LINE",
"385 741 LINE",
"371 660 LINE"
);
},
{
closed = 1;
nodes = (
"282 43 LINE",
"739 1313 LINE",
"492 1313 LINE",
"28 43 LINE"
);
},
{
closed = 1;
nodes = (
"989 43 LINE",
"1446 1313 LINE",
"1200 1313 LINE",
"734 43 LINE"
);
},
{
closed = 1;
nodes = (
"876 1263 LINE",
"910 1358 LINE",
"361 1358 LINE",
"328 1263 LINE"
);
},
{
closed = 1;
nodes = (
"1584 1263 LINE",
"1617 1358 LINE",
"1068 1358 LINE",
"1035 1263 LINE"
);
},
{
closed = 1;
nodes = (
"420 0 LINE",
"455 94 LINE",
"-104 94 LINE",
"-137 0 LINE"
);
},
{
closed = 1;
nodes = (
"1128 -1 LINE",
"1161 94 LINE",
"603 94 LINE",
"570 -1 LINE"
);
}
);
width = 1308;
}
);
note = H;
rightKerningGroup = H;
unicode = 0048;
},
{
glyphname = I;
lastChange = "2019-06-22 14:11:28 +0000";
layers = (
{
anchors = (
{
name = bottom;
position = "{187, 0}";
},
{
name = ogonek;
position = "{355, 10}";
},
{
name = top;
position = "{687, 1357}";
},
{
name = topleft;
position = "{344, 1357}";
}
);
layerId = "9207B417-A6D7-41AF-BE7C-4506B089B767";
paths = (
{
closed = 1;
nodes = (
"365 43 LINE",
"824 1307 LINE",
"518 1307 LINE",
"49 43 LINE"
);
},
{
closed = 1;
nodes = (
"974 1255 LINE",
"1010 1358 LINE",
"375 1358 LINE",
"339 1255 LINE"
);
},
{
closed = 1;
nodes = (
"520 0 LINE",
"556 102 LINE",
"-91 102 LINE",
"-127 0 LINE"
);
}
);
width = 694;
},
{
anchors = (
{
name = bottom;
position = "{115, 0}";
},
{
name = ogonek;
position = "{240, 10}";
},
{
name = top;
position = "{636, 1364}";
},
{
name = topleft;
position = "{353, 1364}";
}
);
layerId = "5006D1C8-6490-4B45-8DF5-310CA26D976E";
paths = (
{
closed = 1;
nodes = (
"171 33 LINE",
"657 1325 LINE",
"550 1325 LINE",
"66 33 LINE"
);
},
{
closed = 1;
nodes = (
"835 1293 LINE",
"860 1358 LINE",
"361 1358 LINE",
"337 1293 LINE"
);
},
{
closed = 1;
nodes = (
"366 0 LINE",
"391 65 LINE",
"-108 65 LINE",
"-133 0 LINE"
);
}
);
width = 574;
},
{
anchors = (
{
name = bottom;
position = "{123, 0}";
},
{
name = ogonek;
position = "{239, 10}";
},
{
name = top;
position = "{625, 1364}";
},
{
name = topleft;
position = "{361, 1364}";
}
);
hints = (
{
horizontal = 1;
origin = "{2, 3}";
type = Anchor;
},
{
horizontal = 1;
origin = "{1, 2}";
type = Anchor;
},
{
horizontal = 1;
origin = "{2, 3}";
target = "{2, 2}";
type = TTStem;
options = 4;
},
{
horizontal = 1;
origin = "{1, 2}";
target = "{1, 3}";
type = TTStem;
options = 4;
},
{
horizontal = 1;
origin = "{2, 3}";
target = "{2, 2}";
other1 = "{0, 3}";
type = Interpolate;
options = 4;
},
{
horizontal = 1;
origin = "{1, 2}";
target = "{1, 3}";
other1 = "{0, 2}";
type = Interpolate;
options = 4;
}
);
layerId = "87470B05-E19F-4BE8-998C-E64C1608970F";
paths = (
{
closed = 1;
nodes = (
"181 29 LINE",
"640 1333 LINE",
"543 1333 LINE",
"85 29 LINE"
);
},
{
closed = 1;
nodes = (
"814 1305 LINE",
"835 1358 LINE",
"368 1358 LINE",
"349 1305 LINE"
);
},
{
closed = 1;
nodes = (
"354 0 LINE",
"374 53 LINE",
"-87 53 LINE",
"-108 0 LINE"
);
}
);
width = 550;
},
{
anchors = (
{
name = bottom;
position = "{123, 0}";
},
{
name = ogonek;
position = "{323, 10}";
},
{
name = top;
position = "{614, 1358}";
},
{
name = topleft;
position = "{334, 1358}";
}
);
layerId = "945CD315-E705-4656-B029-92F168859E1E";
paths = (
{
closed = 1;
nodes = (
"269 41 LINE",
"728 1311 LINE",
"457 1311 LINE",
"-10 41 LINE"
);
},
{
closed = 1;
nodes = (
"825 1263 LINE",
"859 1358 LINE",
"361 1358 LINE",
"327 1263 LINE"
);
},
{
closed = 1;
nodes = (
"370 0 LINE",
"404 94 LINE",
"-104 94 LINE",
"-137 0 LINE"
);
}
);
width = 550;
}
);
leftMetricsKey = H;
note = I;
rightKerningGroup = I;
rightMetricsKey = H;
unicode = 0049;
},
{
glyphname = J;
lastChange = "2019-06-22 14:11:28 +0000";
layers = (
{
anchors = (
{
name = bottom;
position = "{308, 0}";
},
{
name = top;
position = "{798, 1358}";
}
);
layerId = "9207B417-A6D7-41AF-BE7C-4506B089B767";
paths = (
{
closed = 1;
nodes = (
"-112 -420 OFFCURVE",
"-35 -400 OFFCURVE",
"31 -370 CURVE SMOOTH",
"263 -264 OFFCURVE",
"426 -89 OFFCURVE",
"537 194 CURVE SMOOTH",
"629 428 OFFCURVE",
"678 561 OFFCURVE",
"702 628 CURVE SMOOTH",
"950 1309 LINE",
"644 1309 LINE",
"262 253 LINE SMOOTH",
"171 1 OFFCURVE",
"114 -143 OFFCURVE",
"79 -194 CURVE SMOOTH",
"47 -242 OFFCURVE",
"2 -268 OFFCURVE",
"-7 -277 CURVE",
"33 -350 LINE",
"30 -207 OFFCURVE",
"-17 -122 OFFCURVE",
"-132 -122 CURVE SMOOTH",
"-235 -122 OFFCURVE",
"-331 -192 OFFCURVE",
"-331 -298 CURVE SMOOTH",
"-331 -366 OFFCURVE",
"-256 -420 OFFCURVE",
"-174 -420 CURVE SMOOTH"
);
},
{
closed = 1;
nodes = (
"1065 1255 LINE",
"1101 1358 LINE",
"466 1358 LINE",
"430 1255 LINE"
);
}
);
width = 782;
},
{
anchors = (
{
name = bottom;
position = "{60, 0}";
},
{
name = top;
position = "{555, 1358}";
}
);
layerId = "5006D1C8-6490-4B45-8DF5-310CA26D976E";
paths = (
{
closed = 1;
nodes = (
"-371 -419 OFFCURVE",
"-321 -404 OFFCURVE",
"-269 -376 CURVE SMOOTH",
"-48 -259 OFFCURVE",
"52 -72 OFFCURVE",
"165 201 CURVE SMOOTH",
"213 317 OFFCURVE",
"261 441 OFFCURVE",
"332 635 CURVE SMOOTH",
"583 1329 LINE",
"472 1329 LINE",
"86 260 LINE SMOOTH",
"-4 13 OFFCURVE",
"-73 -143 OFFCURVE",
"-118 -204 CURVE SMOOTH",
"-172 -274 OFFCURVE",
"-237 -335 OFFCURVE",
"-300 -339 CURVE",
"-284 -349 LINE",
"-265 -322 OFFCURVE",
"-296 -251 OFFCURVE",
"-382 -251 CURVE SMOOTH",
"-442 -251 OFFCURVE",
"-510 -288 OFFCURVE",
"-510 -356 CURVE SMOOTH",
"-510 -408 OFFCURVE",
"-470 -419 OFFCURVE",
"-427 -419 CURVE SMOOTH"
);
},
{
closed = 1;
nodes = (
"765 1293 LINE",
"789 1358 LINE",
"291 1358 LINE",
"266 1293 LINE"
);
}
);
width = 501;
},
{
anchors = (
{
name = bottom;
position = "{-3, 0}";
},
{
name = top;
position = "{494, 1358}";
}
);
hints = (
{
horizontal = 1;
origin = "{0, 27}";
type = Anchor;
},
{
horizontal = 1;
origin = "{0, 27}";
target = "{0, 21}";
type = TTStem;
options = 4;
},
{
horizontal = 1;
origin = "{1, 2}";
type = Anchor;
},
{
horizontal = 1;
origin = "{1, 2}";
target = "{1, 3}";
type = TTStem;
options = 4;
},
{
horizontal = 1;
origin = "{1, 2}";
target = "{1, 3}";
other1 = "{0, 10}";
type = Interpolate;
options = 4;
}
);
layerId = "87470B05-E19F-4BE8-998C-E64C1608970F";
paths = (
{
closed = 1;
nodes = (
"-365 -419 OFFCURVE",
"-319 -404 OFFCURVE",
"-270 -376 CURVE SMOOTH",
"-61 -256 OFFCURVE",
"36 -64 OFFCURVE",
"139 200 CURVE SMOOTH",
"175 292 OFFCURVE",
"228 434 OFFCURVE",
"299 635 CURVE SMOOTH",
"543 1331 LINE",
"446 1331 LINE",
"69 261 LINE SMOOTH",
"-15 24 OFFCURVE",
"-83 -143 OFFCURVE",
"-127 -205 CURVE SMOOTH",
"-178 -277 OFFCURVE",
"-242 -339 OFFCURVE",
"-301 -339 CURVE",
"-284 -351 LINE",
"-265 -325 OFFCURVE",
"-293 -252 OFFCURVE",
"-374 -252 CURVE SMOOTH",
"-429 -252 OFFCURVE",
"-494 -290 OFFCURVE",
"-494 -358 CURVE SMOOTH",
"-494 -400 OFFCURVE",
"-464 -419 OFFCURVE",
"-418 -419 CURVE SMOOTH"
);
},
{
closed = 1;
nodes = (
"718 1305 LINE",
"737 1358 LINE",
"272 1358 LINE",
"251 1305 LINE"
);
}
);
width = 439;
},
{
anchors = (
{
name = bottom;
position = "{122, 0}";
},
{
name = top;
position = "{533, 1358}";
}
);
guideLines = (
{
position = "{684, 823}";
showMeasurement = 1;
}
);
layerId = "945CD315-E705-4656-B029-92F168859E1E";
paths = (
{
closed = 1;
nodes = (
"-352 -420 OFFCURVE",
"-281 -401 OFFCURVE",
"-223 -371 CURVE SMOOTH",
"-16 -264 OFFCURVE",
"132 -94 OFFCURVE",
"244 193 CURVE SMOOTH",
"326 403 OFFCURVE",
"372 529 OFFCURVE",
"408 629 CURVE SMOOTH",
"655 1313 LINE",
"406 1313 LINE",
"24 254 LINE SMOOTH",
"-60 21 OFFCURVE",
"-121 -139 OFFCURVE",
"-159 -195 CURVE SMOOTH",
"-195 -248 OFFCURVE",
"-234 -277 OFFCURVE",
"-255 -287 CURVE",
"-224 -350 LINE",
"-218 -227 OFFCURVE",
"-261 -144 OFFCURVE",
"-359 -144 CURVE SMOOTH",
"-442 -144 OFFCURVE",
"-534 -211 OFFCURVE",
"-534 -312 CURVE SMOOTH",
"-534 -373 OFFCURVE",
"-472 -420 OFFCURVE",
"-405 -420 CURVE SMOOTH"
);
},
{
closed = 1;
nodes = (
"719 1263 LINE",
"752 1358 LINE",
"332 1358 LINE",
"298 1263 LINE"
);
}
);
width = 439;
}
);
leftKerningGroup = J;
note = J;
rightKerningGroup = J;
rightMetricsKey = H;
unicode = 004A;
},
{
glyphname = K;
lastChange = "2019-06-22 14:11:28 +0000";
layers = (
{
anchors = (
{
name = bottom;
position = "{607, 0}";
},
{
name = top;
position = "{1101, 1358}";
}
);
guideLines = (
{
position = "{1100, 47}";
},
{
position = "{1532, 1307}";
}
);
layerId = "9207B417-A6D7-41AF-BE7C-4506B089B767";
paths = (
{
closed = 1;
nodes = (
"370 50 LINE",
"822 1303 LINE",
"516 1303 LINE",
"53 50 LINE"
);
},
{
closed = 1;
nodes = (
"1216 50 LINE",
"838 800 LINE",
"813 732 LINE",
"1512 1303 LINE",
"1338 1303 LINE",
"761 827 LINE SMOOTH",
"715 789 OFFCURVE",
"685 780 OFFCURVE",
"659 780 CURVE SMOOTH",
"594 780 LINE",
"528 589 LINE",
"616 589 LINE SMOOTH",
"636 589 OFFCURVE",
"652 554 OFFCURVE",
"665 522 CURVE SMOOTH",
"861 50 LINE"
);
},
{
closed = 1;
nodes = (
"520 -1 LINE",
"556 102 LINE",
"-91 102 LINE",
"-127 -1 LINE"
);
},
{
closed = 1;
nodes = (
"1343 -1 LINE",
"1379 102 LINE",
"727 102 LINE",
"691 -1 LINE"
);
},
{
closed = 1;
nodes = (
"974 1255 LINE",
"1010 1358 LINE",
"375 1358 LINE",
"339 1255 LINE"
);
},
{
closed = 1;
nodes = (
"1610 1255 LINE",
"1646 1358 LINE",
"1193 1358 LINE",
"1158 1255 LINE"
);
}
);
width = 1523;
},
{
anchors = (
{
name = bottom;
position = "{477, 0}";
},
{
name = top;
position = "{972, 1358}";
}
);
layerId = "5006D1C8-6490-4B45-8DF5-310CA26D976E";
paths = (
{
closed = 1;
nodes = (
"170 32 LINE",
"659 1328 LINE",
"551 1328 LINE",
"64 32 LINE"
);
},
{
closed = 1;
nodes = (
"961 32 LINE",
"594 777 LINE",
"572 708 LINE",
"1353 1328 LINE",
"1258 1328 LINE",
"622 808 LINE SMOOTH",
"611 799 OFFCURVE",
"488 704 OFFCURVE",
"450 704 CURVE SMOOTH",
"399 704 LINE",
"384 651 LINE",
"437 651 LINE SMOOTH",
"496 651 OFFCURVE",
"549 601 OFFCURVE",
"569 553 CURVE SMOOTH",
"791 32 LINE"
);
},
{
closed = 1;
nodes = (
"366 0 LINE",
"391 65 LINE",
"-108 65 LINE",
"-133 0 LINE"
);
},
{
closed = 1;
nodes = (
"1084 0 LINE",
"1108 65 LINE",
"596 65 LINE",
"572 0 LINE"
);
},
{
closed = 1;
nodes = (
"835 1293 LINE",
"860 1358 LINE",
"361 1358 LINE",
"337 1293 LINE"
);
},
{
closed = 1;
nodes = (
"1431 1293 LINE",
"1455 1358 LINE",
"1078 1358 LINE",
"1053 1293 LINE"
);
}
);
width = 1296;
},
{
anchors = (
{
name = bottom;
position = "{456, 0}";
},
{
name = top;
position = "{950, 1358}";
}
);
hints = (
{
horizontal = 1;
origin = "{4, 2}";
type = Anchor;
},
{
horizontal = 1;
origin = "{2, 3}";
type = Anchor;
},
{
horizontal = 1;
origin = "{2, 3}";
target = "{2, 2}";
type = TTStem;
options = 4;
},
{
horizontal = 1;
origin = "{4, 2}";
target = "{4, 3}";
type = TTStem;
options = 4;
},
{
horizontal = 1;
origin = "{4, 2}";
target = "{5, 2}";
type = Align;
options = 4;
},
{
horizontal = 1;
origin = "{4, 3}";
target = "{5, 3}";
type = Align;
options = 4;
},
{
horizontal = 1;
origin = "{2, 3}";
target = "{3, 3}";
type = Align;
options = 4;
},
{
horizontal = 1;
origin = "{2, 2}";
target = "{3, 2}";
type = Align;
options = 4;
},
{
horizontal = 1;
origin = "{4, 2}";
target = "{2, 3}";
other1 = "{1, 10}";
type = Interpolate;
options = 4;
},
{
horizontal = 1;
origin = "{1, 10}";
target = "{1, 9}";
type = TTStem;
options = 4;
},
{
horizontal = 1;
origin = "{2, 3}";
target = "{2, 2}";
other1 = "{0, 3}";
type = Interpolate;
options = 4;
},
{
horizontal = 1;
origin = "{0, 3}";
target = "{1, 15}";
type = Align;
options = 4;
},
{
horizontal = 1;
origin = "{4, 2}";
target = "{4, 3}";
other1 = "{0, 2}";
type = Interpolate;
options = 4;
},
{
horizontal = 1;
origin = "{0, 2}";
target = "{1, 4}";
type = Align;
options = 4;
}
);
layerId = "87470B05-E19F-4BE8-998C-E64C1608970F";
paths = (
{
closed = 1;
nodes = (
"182 28 LINE",
"640 1334 LINE",
"544 1334 LINE",
"85 28 LINE"
);
},
{
closed = 1;
nodes = (
"912 28 LINE",
"573 777 LINE",
"551 707 LINE",
"1294 1334 LINE",
"1211 1334 LINE",
"600 808 LINE SMOOTH",
"577 788 OFFCURVE",
"473 696 OFFCURVE",
"437 696 CURVE SMOOTH",
"410 696 LINE",
"396 659 LINE",
"426 659 LINE SMOOTH",
"479 659 OFFCURVE",
"524 601 OFFCURVE",
"549 541 CURVE SMOOTH",
"767 28 LINE"
);
},
{
closed = 1;
nodes = (
"354 0 LINE",
"374 53 LINE",
"-87 53 LINE",
"-108 0 LINE"
);
},
{
closed = 1;
nodes = (
"1041 0 LINE",
"1060 53 LINE",
"585 53 LINE",
"565 0 LINE"
);
},
{
closed = 1;
nodes = (
"814 1305 LINE",
"835 1358 LINE",
"368 1358 LINE",
"349 1305 LINE"
);
},
{
closed = 1;
nodes = (
"1386 1305 LINE",
"1405 1358 LINE",
"1055 1358 LINE",
"1034 1305 LINE"
);
}
);
width = 1224;
},
{
anchors = (
{
name = bottom;
position = "{456, 0}";
},
{
name = top;
position = "{950, 1358}";
}
);
layerId = "945CD315-E705-4656-B029-92F168859E1E";
paths = (
{
closed = 1;
nodes = (
"255 46 LINE",
"709 1308 LINE",
"481 1308 LINE",
"18 46 LINE"
);
},
{
closed = 1;
nodes = (
"947 46 LINE",
"682 796 LINE",
"657 728 LINE",
"1282 1308 LINE",
"1148 1308 LINE",
"632 824 LINE SMOOTH",
"595 789 OFFCURVE",
"556 766 OFFCURVE",
"536 766 CURVE SMOOTH",
"486 766 LINE",
"428 601 LINE",
"494 601 LINE SMOOTH",
"515 601 OFFCURVE",
"529 562 OFFCURVE",
"540 525 CURVE SMOOTH",
"678 46 LINE"
);
},
{
closed = 1;
nodes = (
"380 -1 LINE",
"415 94 LINE",
"-104 94 LINE",
"-137 -1 LINE"
);
},
{
closed = 1;
nodes = (
"1052 -1 LINE",
"1085 94 LINE",
"563 94 LINE",
"530 -1 LINE"
);
},
{
closed = 1;
nodes = (
"836 1263 LINE",
"870 1358 LINE",
"361 1358 LINE",
"327 1263 LINE"
);
},
{
closed = 1;
nodes = (
"1361 1263 LINE",
"1395 1358 LINE",
"1028 1358 LINE",
"995 1263 LINE"
);
}
);
width = 1224;
}
);
leftMetricsKey = H;
note = K;
rightKerningGroup = K;
unicode = 004B;
},
{
glyphname = L;
lastChange = "2019-06-22 14:11:28 +0000";
layers = (
{
anchors = (
{
name = bottom;
position = "{462, 0}";
},
{
name = center;
position = "{464, 682}";
},
{
name = ogonek;
position = "{379, 10}";
},
{
name = top;
position = "{749, 1363}";
},
{
name = topleft;
position = "{369, 1357}";
},
{
name = topright;
position = "{1113, 901}";
}
);
layerId = "9207B417-A6D7-41AF-BE7C-4506B089B767";
paths = (
{
closed = 1;
nodes = (
"1194 0 LINE",
"1337 404 LINE",
"1273 404 LINE",
"1036 150 LINE SMOOTH",
"1004 116 OFFCURVE",
"978 103 OFFCURVE",
"916 103 CURVE SMOOTH",
"-90 103 LINE",
"-125 0 LINE"
);
},
{
closed = 1;
nodes = (
"393 51 LINE",
"849 1309 LINE",
"543 1309 LINE",
"77 51 LINE"
);
},
{
closed = 1;
nodes = (
"999 1255 LINE",
"1035 1358 LINE",
"400 1358 LINE",
"364 1255 LINE"
);
}
);
width = 1370;
},
{
anchors = (
{
name = bottom;
position = "{477, 0}";
},
{
name = center;
position = "{373, 682}";
},
{
name = ogonek;
position = "{240, 10}";
},
{
name = top;
position = "{645, 1363}";
},
{
name = topleft;
position = "{353, 1364}";
},
{
name = topright;
position = "{920, 947}";
}
);
layerId = "5006D1C8-6490-4B45-8DF5-310CA26D976E";
paths = (
{
closed = 1;
nodes = (
"1008 0 LINE",
"1136 379 LINE",
"1115 379 LINE",
"936 110 LINE SMOOTH",
"915 80 OFFCURVE",
"862 65 OFFCURVE",
"816 65 CURVE SMOOTH",
"-105 65 LINE",
"-127 0 LINE"
);
},
{
closed = 1;
nodes = (
"170 28 LINE",
"657 1328 LINE",
"550 1328 LINE",
"64 28 LINE"
);
},
{
closed = 1;
nodes = (
"835 1293 LINE",
"860 1358 LINE",
"361 1358 LINE",
"337 1293 LINE"
);
}
);
width = 1237;
},
{
anchors = (
{
name = bottom;
position = "{461, 0}";
},
{
name = center;
position = "{397, 682}";
},
{
name = ogonek;
position = "{239, 10}";
},
{
name = top;
position = "{629, 1363}";
},
{
name = topleft;
position = "{361, 1364}";
},
{
name = topright;
position = "{886, 944}";
}
);
hints = (
{
horizontal = 1;
origin = "{0, 8}";
type = Anchor;
},
{
horizontal = 1;
origin = "{0, 8}";
target = "{0, 7}";
type = TTStem;
options = 4;
},
{
horizontal = 1;
origin = "{2, 2}";
type = Anchor;
},
{
horizontal = 1;
origin = "{2, 2}";
target = "{2, 3}";
type = TTStem;
options = 4;
},
{
horizontal = 1;
origin = "{2, 2}";
target = "{2, 3}";
other1 = "{1, 2}";
type = Interpolate;
options = 4;
},
{
horizontal = 1;
origin = "{0, 8}";
target = "{0, 7}";
other1 = "{1, 3}";
type = Interpolate;
options = 4;
}
);
layerId = "87470B05-E19F-4BE8-998C-E64C1608970F";
paths = (
{
closed = 1;
nodes = (
"960 0 LINE",
"1056 378 LINE",
"1037 378 LINE",
"884 97 LINE SMOOTH",
"867 66 OFFCURVE",
"807 53 OFFCURVE",
"764 53 CURVE SMOOTH",
"-74 53 LINE",
"-92 0 LINE"
);
},
{
closed = 1;
nodes = (
"181 23 LINE",
"639 1332 LINE",
"542 1332 LINE",
"84 23 LINE"
);
},
{
closed = 1;
nodes = (
"814 1305 LINE",
"835 1358 LINE",
"368 1358 LINE",
"349 1305 LINE"
);
}
);
width = 1173;
},
{
anchors = (
{
name = bottom;
position = "{377, 0}";
},
{
name = center;
position = "{375, 682}";
},
{
name = ogonek;
position = "{252, 10}";
},
{
name = top;
position = "{648, 1363}";
},
{
name = topleft;
position = "{353, 1358}";
},
{
name = topright;
position = "{899, 908}";
}
);
layerId = "945CD315-E705-4656-B029-92F168859E1E";
paths = (
{
closed = 1;
nodes = (
"983 0 LINE",
"1120 400 LINE",
"1074 400 LINE",
"874 141 LINE SMOOTH",
"848 107 OFFCURVE",
"819 95 OFFCURVE",
"773 95 CURVE SMOOTH",
"-103 95 LINE",
"-136 0 LINE"
);
},
{
closed = 1;
nodes = (
"257 46 LINE",
"715 1313 LINE",
"492 1313 LINE",
"28 46 LINE"
);
},
{
closed = 1;
nodes = (
"836 1263 LINE",
"870 1358 LINE",
"375 1358 LINE",
"341 1263 LINE"
);
}
);
width = 1173;
}
);
leftMetricsKey = H;
note = L;
rightKerningGroup = L;
unicode = 004C;
},
{
glyphname = M;
lastChange = "2019-06-22 14:11:28 +0000";
layers = (
{
anchors = (
{
name = bottom;
position = "{767, 0}";
},
{
name = top;
position = "{1248, 1363}";
}
);
guideLines = (
{
position = "{1156, 997}";
},
{
position = "{1622, 47}";
}
);
layerId = "9207B417-A6D7-41AF-BE7C-4506B089B767";
paths = (
{
closed = 1;
nodes = (
"787 7 LINE",
"1971 1313 LINE",
"1781 1258 LINE",
"2266 1258 LINE",
"2290 1358 LINE",
"1928 1358 LINE SMOOTH",
"1864 1358 OFFCURVE",
"1822 1333 OFFCURVE",
"1783 1291 CURVE SMOOTH",
"793 241 LINE",
"943 282 LINE",
"829 1285 LINE SMOOTH",
"823 1340 OFFCURVE",
"795 1358 OFFCURVE",
"729 1358 CURVE SMOOTH",
"365 1358 LINE",
"341 1258 LINE",
"628 1258 LINE",
"521 1320 LINE",
"679 7 LINE"
);
},
{
closed = 1;
nodes = (
"166 50 LINE",
"671 1295 LINE",
"550 1315 LINE",
"13 50 LINE"
);
},
{
closed = 1;
nodes = (
"1666 50 LINE",
"2126 1323 LINE",
"1804 1275 LINE",
"1349 50 LINE"
);
},
{
closed = 1;
nodes = (
"325 0 LINE",
"364 102 LINE",
"-109 102 LINE",
"-147 0 LINE"
);
},
{
closed = 1;
nodes = (
"1816 0 LINE",
"1852 102 LINE",
"1197 102 LINE",
"1161 0 LINE"
);
}
);
width = 1990;
},
{
anchors = (
{
name = bottom;
position = "{715, 0}";
},
{
name = top;
position = "{1214, 1363}";
}
);
layerId = "5006D1C8-6490-4B45-8DF5-310CA26D976E";
paths = (
{
closed = 1;
nodes = (
"734 7 LINE",
"1717 1313 LINE",
"1640 1290 LINE",
"1946 1290 LINE",
"1970 1358 LINE",
"1778 1358 LINE SMOOTH",
"1707 1358 OFFCURVE",
"1658 1340 OFFCURVE",
"1622 1291 CURVE SMOOTH",
"753 106 LINE",
"805 131 LINE",
"764 1285 LINE SMOOTH",
"762 1341 OFFCURVE",
"727 1358 OFFCURVE",
"657 1358 CURVE SMOOTH",
"420 1358 LINE",
"395 1290 LINE",
"683 1290 LINE",
"663 1320 LINE",
"708 7 LINE"
);
},
{
closed = 1;
nodes = (
"148 28 LINE",
"698 1295 LINE",
"652 1315 LINE",
"68 28 LINE"
);
},
{
closed = 1;
nodes = (
"1288 28 LINE",
"1775 1323 LINE",
"1669 1329 LINE",
"1183 28 LINE"
);
},
{
closed = 1;
nodes = (
"315 0 LINE",
"336 53 LINE",
"-115 53 LINE",
"-137 0 LINE"
);
},
{
closed = 1;
nodes = (
"1476 0 LINE",
"1497 53 LINE",
"1023 53 LINE",
"1001 0 LINE"
);
}
);
width = 1684;
},
{
anchors = (
{
name = bottom;
position = "{672, 0}";
},
{
name = top;
position = "{1153, 1363}";
}
);
hints = (
{
horizontal = 1;
origin = "{3, 3}";
type = Anchor;
},
{
horizontal = 1;
origin = "{3, 3}";
target = "{3, 2}";
type = TTStem;
options = 4;
},
{
horizontal = 1;
origin = "{3, 3}";
target = "{4, 3}";
type = Align;
options = 4;
},
{
horizontal = 1;
origin = "{3, 2}";
target = "{4, 2}";
type = Align;
options = 4;
},
{
horizontal = 1;
origin = "{0, 15}";
type = Anchor;
},
{
horizontal = 1;
origin = "{0, 15}";
target = "{0, 16}";
type = TTStem;
options = 4;
},
{
horizontal = 1;
origin = "{0, 15}";
target = "{0, 4}";
type = Align;
options = 4;
},
{
horizontal = 1;
origin = "{0, 16}";
target = "{0, 3}";
type = Align;
options = 4;
},
{
horizontal = 1;
origin = "{3, 3}";
target = "{3, 2}";
other1 = "{0, 19}";
type = Interpolate;
options = 4;
},
{
horizontal = 1;
origin = "{3, 3}";
target = "{3, 2}";
other1 = "{1, 3}";
type = Interpolate;
options = 4;
},
{
horizontal = 1;
origin = "{1, 3}";
target = "{2, 3}";
type = Align;
options = 4;
}
);
layerId = "87470B05-E19F-4BE8-998C-E64C1608970F";
paths = (
{
closed = 1;
nodes = (
"674 7 LINE",
"1592 1313 LINE",
"1517 1290 LINE",
"1791 1290 LINE",
"1815 1358 LINE",
"1644 1358 LINE SMOOTH",
"1577 1358 OFFCURVE",
"1532 1339 OFFCURVE",
"1499 1291 CURVE SMOOTH",
"696 116 LINE",
"727 112 LINE",
"691 1285 LINE SMOOTH",
"690 1340 OFFCURVE",
"656 1358 OFFCURVE",
"591 1358 CURVE SMOOTH",
"413 1358 LINE",
"389 1290 LINE",
"628 1290 LINE",
"598 1320 LINE",
"638 7 LINE"
);
},
{
closed = 1;
nodes = (
"128 27 LINE",
"641 1295 LINE",
"600 1315 LINE",
"55 27 LINE"
);
},
{
closed = 1;
nodes = (
"1182 27 LINE",
"1636 1323 LINE",
"1541 1329 LINE",
"1086 27 LINE"
);
},
{
closed = 1;
nodes = (
"284 0 LINE",
"304 53 LINE",
"-117 53 LINE",
"-137 0 LINE"
);
},
{
closed = 1;
nodes = (
"1353 0 LINE",
"1373 53 LINE",
"921 53 LINE",
"901 0 LINE"
);
}
);
width = 1549;
},
{
anchors = (
{
name = bottom;
position = "{574, 0}";
},
{
name = top;
position = "{1058, 1363}";
}
);
layerId = "945CD315-E705-4656-B029-92F168859E1E";
paths = (
{
closed = 1;
nodes = (
"588 7 LINE",
"1603 1313 LINE",
"1459 1263 LINE",
"1819 1263 LINE",
"1845 1358 LINE",
"1583 1358 LINE SMOOTH",
"1525 1358 OFFCURVE",
"1489 1327 OFFCURVE",
"1460 1291 CURVE SMOOTH",
"610 220 LINE",
"719 254 LINE",
"709 1285 LINE SMOOTH",
"708 1349 OFFCURVE",
"673 1358 OFFCURVE",
"633 1358 CURVE SMOOTH",
"368 1358 LINE",
"342 1263 LINE",
"562 1263 LINE",
"488 1320 LINE",
"510 7 LINE"
);
},
{
closed = 1;
nodes = (
"98 46 LINE",
"595 1295 LINE",
"509 1315 LINE",
"-16 46 LINE"
);
},
{
closed = 1;
nodes = (
"1254 46 LINE",
"1714 1323 LINE",
"1479 1284 LINE",
"1026 46 LINE"
);
},
{
closed = 1;
nodes = (
"224 0 LINE",
"259 94 LINE",
"-110 94 LINE",
"-145 0 LINE"
);
},
{
closed = 1;
nodes = (
"1368 0 LINE",
"1403 94 LINE",
"905 94 LINE",
"872 0 LINE"
);
}
);
width = 1549;
}
);
leftKerningGroup = M;
note = M;
rightKerningGroup = M;
rightMetricsKey = H;
unicode = 004D;
},
{
glyphname = N;
lastChange = "2019-06-22 14:11:28 +0000";
layers = (
{
anchors = (
{
name = bottom;
position = "{609, 0}";
},
{
name = top;
position = "{1043, 1363}";
}
);
layerId = "9207B417-A6D7-41AF-BE7C-4506B089B767";
paths = (
{
closed = 1;
nodes = (
"1158 -20 LINE",
"1633 1305 LINE",
"1475 1305 LINE",
"1156 368 LINE",
"1222 358 LINE",
"761 1296 LINE SMOOTH",
"742 1334 OFFCURVE",
"698 1358 OFFCURVE",
"623 1358 CURVE SMOOTH",
"366 1358 LINE",
"329 1256 LINE",
"428 1256 OFFCURVE",
"498 1148 OFFCURVE",
"618 903 CURVE SMOOTH",
"1071 -20 LINE"
);
},
{
closed = 1;
nodes = (
"235 46 LINE",
"657 1279 LINE",
"513 1299 LINE",
"65 46 LINE"
);
},
{
closed = 1;
nodes = (
"1777 1255 LINE",
"1813 1358 LINE",
"1319 1358 LINE",
"1283 1255 LINE"
);
},
{
closed = 1;
nodes = (
"387 0 LINE",
"423 102 LINE",
"-66 102 LINE",
"-102 0 LINE"
);
}
);
width = 1494;
},
{
anchors = (
{
name = bottom;
position = "{486, 0}";
},
{
name = top;
position = "{991, 1363}";
}
);
layerId = "5006D1C8-6490-4B45-8DF5-310CA26D976E";
paths = (
{
closed = 1;
nodes = (
"1075 -21 LINE",
"1598 1333 LINE",
"1520 1333 LINE",
"1066 101 LINE",
"1099 159 LINE",
"639 1310 LINE SMOOTH",
"622 1354 OFFCURVE",
"570 1358 OFFCURVE",
"513 1358 CURVE SMOOTH",
"361 1358 LINE",
"341 1305 LINE",
"501 1305 OFFCURVE",
"551 1278 OFFCURVE",
"563 1238 CURVE SMOOTH",
"1061 -21 LINE"
);
},
{
closed = 1;
nodes = (
"141 25 LINE",
"625 1326 LINE",
"570 1330 LINE",
"65 25 LINE"
);
},
{
closed = 1;
nodes = (
"1703 1305 LINE",
"1726 1358 LINE",
"1370 1358 LINE",
"1348 1305 LINE"
);
},
{
closed = 1;
nodes = (
"292 0 LINE",
"314 53 LINE",
"-83 53 LINE",
"-106 0 LINE"
);
}
);
width = 1438;
},
{
anchors = (
{
name = bottom;
position = "{530, 0}";
},
{
name = top;
position = "{1016, 1363}";
}
);
hints = (
{
horizontal = 1;
origin = "{3, 3}";
type = Anchor;
},
{
horizontal = 1;
origin = "{3, 3}";
target = "{3, 2}";
type = TTStem;
options = 4;
},
{
horizontal = 1;
origin = "{0, 9}";
type = Anchor;
},
{
horizontal = 1;
origin = "{0, 9}";
target = "{0, 10}";
type = TTStem;
options = 4;
},
{
horizontal = 1;
origin = "{0, 9}";
target = "{2, 2}";
type = Align;
options = 4;
},
{
horizontal = 1;
origin = "{0, 10}";
target = "{2, 3}";
type = Align;
options = 4;
},
{
horizontal = 1;
origin = "{0, 14}";
type = Anchor;
},
{
horizontal = 1;
origin = "{3, 3}";
target = "{3, 2}";
other1 = "{1, 3}";
type = Interpolate;
options = 4;
},
{
horizontal = 1;
origin = "{2, 2}";
target = "{2, 3}";
other1 = "{0, 2}";
type = Interpolate;
options = 4;
}
);
layerId = "87470B05-E19F-4BE8-998C-E64C1608970F";
paths = (
{
closed = 1;
nodes = (
"1023 -21 LINE",
"1512 1335 LINE",
"1439 1335 LINE",
"1008 84 LINE",
"1060 158 LINE",
"623 1310 LINE SMOOTH",
"604 1359 OFFCURVE",
"547 1358 OFFCURVE",
"506 1358 CURVE SMOOTH",
"368 1358 LINE",
"350 1305 LINE",
"509 1305 OFFCURVE",
"525 1279 OFFCURVE",
"536 1240 CURVE SMOOTH",
"1011 -21 LINE"
);
},
{
closed = 1;
nodes = (
"162 23 LINE",
"613 1327 LINE",
"564 1330 LINE",
"91 23 LINE"
);
},
{
closed = 1;
nodes = (
"1609 1305 LINE",
"1629 1358 LINE",
"1300 1358 LINE",
"1280 1305 LINE"
);
},
{
closed = 1;
nodes = (
"302 0 LINE",
"323 53 LINE",
"-46 53 LINE",
"-67 0 LINE"
);
}
);
width = 1331;
},
{
anchors = (
{
name = bottom;
position = "{536, 0}";
},
{
name = top;
position = "{983, 1363}";
}
);
layerId = "945CD315-E705-4656-B029-92F168859E1E";
paths = (
{
closed = 1;
nodes = (
"1007 -20 LINE",
"1485 1310 LINE",
"1350 1310 LINE",
"1011 321 LINE",
"1071 325 LINE",
"701 1298 LINE SMOOTH",
"685 1341 OFFCURVE",
"637 1358 OFFCURVE",
"578 1358 CURVE SMOOTH",
"356 1358 LINE",
"322 1264 LINE",
"429 1264 OFFCURVE",
"491 1157 OFFCURVE",
"566 959 CURVE SMOOTH",
"937 -20 LINE"
);
},
{
closed = 1;
nodes = (
"190 42 LINE",
"618 1287 LINE",
"499 1304 LINE",
"46 42 LINE"
);
},
{
closed = 1;
nodes = (
"1611 1263 LINE",
"1645 1358 LINE",
"1209 1358 LINE",
"1176 1263 LINE"
);
},
{
closed = 1;
nodes = (
"329 0 LINE",
"363 94 LINE",
"-76 94 LINE",
"-109 0 LINE"
);
}
);
width = 1331;
}
);
leftKerningGroup = Eng;
leftMetricsKey = H;
note = N;
rightKerningGroup = N;
rightMetricsKey = H;
unicode = 004E;
},
{
glyphname = Eng;
lastChange = "2019-06-22 14:11:28 +0000";
layers = (
{
anchors = (
{
name = bottom;
position = "{624, -532}";
},
{
name = top;
position = "{1001, 1358}";
}
);
layerId = "9207B417-A6D7-41AF-BE7C-4506B089B767";
paths = (
{
closed = 1;
nodes = (
"223 39 LINE",
"657 1283 LINE",
"513 1303 LINE",
"73 39 LINE"
);
},
{
closed = 1;
nodes = (
"386 -1 LINE",
"422 102 LINE",
"-67 102 LINE",
"-103 -1 LINE"
);
},
{
closed = 1;
nodes = (
"437 1256 OFFCURVE",
"503 1149 OFFCURVE",
"624 903 CURVE SMOOTH",
"1053 32 LINE",
"1000 -137 LINE SMOOTH",
"972 -227 OFFCURVE",
"838 -379 OFFCURVE",
"776 -379 CURVE SMOOTH",
"765 -379 OFFCURVE",
"759 -374 OFFCURVE",
"744 -349 CURVE SMOOTH",
"725 -318 OFFCURVE",
"687 -303 OFFCURVE",
"651 -303 CURVE SMOOTH",
"592 -303 OFFCURVE",
"525 -331 OFFCURVE",
"525 -413 CURVE SMOOTH",
"525 -479 OFFCURVE",
"557 -521 OFFCURVE",
"631 -521 CURVE SMOOTH",
"848 -521 OFFCURVE",
"1042 -351 OFFCURVE",
"1156 -24 CURVE SMOOTH",
"1622 1309 LINE",
"1472 1309 LINE",
"1133 338 LINE",
"1226 339 LINE",
"756 1296 LINE SMOOTH",
"737 1334 OFFCURVE",
"693 1358 OFFCURVE",
"617 1358 CURVE SMOOTH",
"367 1358 LINE",
"329 1256 LINE"
);
},
{
closed = 1;
nodes = (
"1764 1255 LINE",
"1800 1358 LINE",
"1318 1358 LINE",
"1282 1255 LINE"
);
}
);
width = 1481;
},
{
anchors = (
{
name = bottom;
position = "{547, -532}";
},
{
name = top;
position = "{1002, 1358}";
}
);
layerId = "5006D1C8-6490-4B45-8DF5-310CA26D976E";
paths = (
{
closed = 1;
nodes = (
"146 28 LINE",
"622 1284 LINE",
"567 1288 LINE",
"88 28 LINE"
);
},
{
closed = 1;
nodes = (
"305 0 LINE",
"327 53 LINE",
"-70 53 LINE",
"-93 0 LINE"
);
},
{
closed = 1;
nodes = (
"495 1305 OFFCURVE",
"529 1281 OFFCURVE",
"544 1238 CURVE SMOOTH",
"1038 15 LINE",
"975 -123 LINE SMOOTH",
"904 -285 OFFCURVE",
"759 -429 OFFCURVE",
"651 -429 CURVE SMOOTH",
"643 -429 OFFCURVE",
"621 -418 OFFCURVE",
"603 -405 CURVE SMOOTH",
"580 -390 OFFCURVE",
"562 -381 OFFCURVE",
"543 -381 CURVE SMOOTH",
"499 -381 OFFCURVE",
"467 -409 OFFCURVE",
"467 -438 CURVE SMOOTH",
"467 -472 OFFCURVE",
"500 -496 OFFCURVE",
"526 -496 CURVE SMOOTH",
"882 -496 OFFCURVE",
"1006 -211 OFFCURVE",
"1089 7 CURVE SMOOTH",
"1592 1334 LINE",
"1535 1334 LINE",
"1082 135 LINE",
"1107 162 LINE",
"638 1310 LINE SMOOTH",
"618 1359 OFFCURVE",
"558 1358 OFFCURVE",
"513 1358 CURVE SMOOTH",
"361 1358 LINE",
"342 1305 LINE"
);
},
{
closed = 1;
nodes = (
"1708 1305 LINE",
"1730 1358 LINE",
"1373 1358 LINE",
"1351 1305 LINE"
);
}
);
width = 1442;
},
{
anchors = (
{
name = bottom;
position = "{545, -532}";
},
{
name = top;
position = "{1001, 1358}";
}
);
hints = (
{
horizontal = 1;
origin = "{1, 3}";
type = Anchor;
},
{
horizontal = 1;
origin = "{1, 3}";
target = "{1, 2}";
type = TTStem;
options = 4;
},
{
horizontal = 1;
origin = "{3, 2}";
type = Anchor;
},
{
horizontal = 1;
origin = "{3, 2}";
target = "{3, 3}";
type = TTStem;
options = 4;
},
{
horizontal = 1;
origin = "{3, 2}";
target = "{2, 31}";
type = Align;
options = 4;
},
{
horizontal = 1;
origin = "{3, 3}";
target = "{2, 32}";
type = Align;
options = 4;
},
{
horizontal = 1;
origin = "{2, 19}";
type = Anchor;
},
{
horizontal = 1;
origin = "{2, 19}";
target = "{2, 13}";
type = TTStem;
options = 4;
},
{
horizontal = 1;
origin = "{2, 19}";
target = "{2, 7}";
type = TTStem;
options = 4;
},
{
horizontal = 1;
origin = "{1, 3}";
target = "{1, 2}";
other1 = "{0, 3}";
type = Interpolate;
options = 4;
},
{
horizontal = 1;
origin = "{3, 2}";
target = "{3, 3}";
other1 = "{2, 24}";
type = Interpolate;
options = 4;
}
);
layerId = "87470B05-E19F-4BE8-998C-E64C1608970F";
paths = (
{
closed = 1;
nodes = (
"168 29 LINE",
"618 1299 LINE",
"568 1303 LINE",
"116 29 LINE"
);
},
{
closed = 1;
nodes = (
"315 0 LINE",
"336 53 LINE",
"-33 53 LINE",
"-54 0 LINE"
);
},
{
closed = 1;
nodes = (
"500 1305 OFFCURVE",
"527 1276 OFFCURVE",
"537 1240 CURVE SMOOTH",
"999 15 LINE",
"940 -123 LINE SMOOTH",
"870 -291 OFFCURVE",
"737 -429 OFFCURVE",
"638 -429 CURVE SMOOTH",
"631 -429 OFFCURVE",
"615 -423 OFFCURVE",
"592 -405 CURVE SMOOTH",
"568 -388 OFFCURVE",
"550 -382 OFFCURVE",
"537 -382 CURVE SMOOTH",
"496 -382 OFFCURVE",
"468 -410 OFFCURVE",
"468 -439 CURVE SMOOTH",
"468 -472 OFFCURVE",
"497 -495 OFFCURVE",
"520 -495 CURVE SMOOTH",
"853 -495 OFFCURVE",
"968 -213 OFFCURVE",
"1046 7 CURVE SMOOTH",
"1517 1337 LINE",
"1465 1337 LINE",
"1040 134 LINE",
"1062 160 LINE",
"625 1310 LINE SMOOTH",
"606 1359 OFFCURVE",
"550 1358 OFFCURVE",
"509 1358 CURVE SMOOTH",
"368 1358 LINE",
"351 1305 LINE"
);
},
{
closed = 1;
nodes = (
"1624 1305 LINE",
"1644 1358 LINE",
"1313 1358 LINE",
"1293 1305 LINE"
);
}
);
width = 1346;
},
{
anchors = (
{
name = bottom;
position = "{545, -532}";
},
{
name = top;
position = "{953, 1358}";
}
);
layerId = "945CD315-E705-4656-B029-92F168859E1E";
paths = (
{
closed = 1;
nodes = (
"184 37 LINE",
"621 1286 LINE",
"501 1303 LINE",
"57 37 LINE"
);
},
{
closed = 1;
nodes = (
"334 -1 LINE",
"368 94 LINE",
"-75 94 LINE",
"-108 -1 LINE"
);
},
{
closed = 1;
nodes = (
"438 1264 OFFCURVE",
"500 1144 OFFCURVE",
"574 958 CURVE SMOOTH",
"945 29 LINE",
"890 -135 LINE SMOOTH",
"856 -237 OFFCURVE",
"726 -387 OFFCURVE",
"662 -387 CURVE SMOOTH",
"653 -387 OFFCURVE",
"645 -382 OFFCURVE",
"630 -358 CURVE SMOOTH",
"614 -332 OFFCURVE",
"584 -316 OFFCURVE",
"550 -316 CURVE SMOOTH",
"498 -316 OFFCURVE",
"437 -344 OFFCURVE",
"437 -421 CURVE SMOOTH",
"437 -480 OFFCURVE",
"467 -517 OFFCURVE",
"527 -517 CURVE SMOOTH",
"748 -517 OFFCURVE",
"924 -328 OFFCURVE",
"1032 -19 CURVE SMOOTH",
"1499 1314 LINE",
"1374 1314 LINE",
"1019 304 LINE",
"1097 309 LINE",
"700 1298 LINE SMOOTH",
"684 1338 OFFCURVE",
"640 1358 OFFCURVE",
"575 1358 CURVE SMOOTH",
"356 1358 LINE",
"322 1264 LINE"
);
},
{
closed = 1;
nodes = (
"1626 1263 LINE",
"1660 1358 LINE",
"1230 1358 LINE",
"1197 1263 LINE"
);
}
);
width = 1346;
}
);
leftMetricsKey = N;
rightMetricsKey = N;
unicode = 014A;
},
{
glyphname = O;
lastChange = "2019-06-22 14:11:28 +0000";
layers = (
{
anchors = (
{
name = bottom;
position = "{607, 0}";
},
{
name = center;
position = "{855, 678}";
},
{
name = ogonek;
position = "{1153, 130}";
},
{
name = top;
position = "{1103, 1357}";
},
{
name = topleft;
position = "{359, 1357}";
},
{
name = topright;
position = "{1846, 1357}";
}
);
layerId = "9207B417-A6D7-41AF-BE7C-4506B089B767";
paths = (
{
closed = 1;
nodes = (
"1168 -27 OFFCURVE",
"1621 453 OFFCURVE",
"1621 904 CURVE SMOOTH",
"1621 1196 OFFCURVE",
"1431 1384 OFFCURVE",
"1084 1384 CURVE SMOOTH",
"529 1384 OFFCURVE",
"80 904 OFFCURVE",
"80 461 CURVE SMOOTH",
"80 154 OFFCURVE",
"295 -27 OFFCURVE",
"627 -27 CURVE SMOOTH"
);
},
{
closed = 1;
nodes = (
"489 84 OFFCURVE",
"422 227 OFFCURVE",
"422 410 CURVE SMOOTH",
"422 784 OFFCURVE",
"702 1280 OFFCURVE",
"1033 1280 CURVE SMOOTH",
"1211 1280 OFFCURVE",
"1279 1136 OFFCURVE",
"1279 957 CURVE SMOOTH",
"1279 608 OFFCURVE",
"1017 84 OFFCURVE",
"670 84 CURVE SMOOTH"
);
}
);
width = 1526;
},
{
anchors = (
{
name = bottom;
position = "{538, 0}";
},
{
name = center;
position = "{787, 683}";
},
{
name = ogonek;
position = "{839, 31}";
},
{
name = top;
position = "{1037, 1364}";
},
{
name = topleft;
position = "{369, 1364}";
},
{
name = topright;
position = "{1702, 1364}";
}
);
layerId = "5006D1C8-6490-4B45-8DF5-310CA26D976E";
paths = (
{
closed = 1;
nodes = (
"1074 -27 OFFCURVE",
"1470 509 OFFCURVE",
"1470 945 CURVE SMOOTH",
"1470 1216 OFFCURVE",
"1320 1385 OFFCURVE",
"1026 1385 CURVE SMOOTH",
"491 1385 OFFCURVE",
"92 840 OFFCURVE",
"92 405 CURVE SMOOTH",
"92 136 OFFCURVE",
"240 -27 OFFCURVE",
"533 -27 CURVE SMOOTH"
);
},
{
closed = 1;
nodes = (
"349 37 OFFCURVE",
"201 191 OFFCURVE",
"201 423 CURVE SMOOTH",
"201 802 OFFCURVE",
"589 1320 OFFCURVE",
"994 1320 CURVE SMOOTH",
"1226 1320 OFFCURVE",
"1361 1162 OFFCURVE",
"1361 942 CURVE SMOOTH",
"1361 563 OFFCURVE",
"985 37 OFFCURVE",
"576 37 CURVE SMOOTH"
);
}
);
width = 1421;
},
{
anchors = (
{
name = bottom;
position = "{525, 0}";
},
{
name = center;
position = "{765, 683}";
},
{
name = ogonek;
position = "{811, 30}";
},
{
name = top;
position = "{1005, 1364}";
},
{
name = topleft;
position = "{382, 1364}";
},
{
name = topright;
position = "{1625, 1364}";
}
);
hints = (
{
horizontal = 1;
origin = "{0, 11}";
target = "{1, 11}";
type = TTStem;
options = 4;
},
{
horizontal = 1;
origin = "{0, 5}";
target = "{1, 5}";
type = TTStem;
options = 4;
},
{
origin = "{0, 8}";
target = "{1, 2}";
type = TTStem;
options = 4;
},
{
origin = "{1, 8}";
target = "{0, 2}";
type = TTStem;
options = 4;
},
{
horizontal = 1;
origin = "{0, 11}";
type = Anchor;
},
{
horizontal = 1;
origin = "{0, 5}";
type = Anchor;
}
);
layerId = "87470B05-E19F-4BE8-998C-E64C1608970F";
paths = (
{
closed = 1;
nodes = (
"1036 -27 OFFCURVE",
"1411 509 OFFCURVE",
"1411 946 CURVE SMOOTH",
"1411 1215 OFFCURVE",
"1269 1385 OFFCURVE",
"990 1385 CURVE SMOOTH",
"486 1385 OFFCURVE",
"111 839 OFFCURVE",
"111 405 CURVE SMOOTH",
"111 136 OFFCURVE",
"249 -27 OFFCURVE",
"524 -27 CURVE SMOOTH"
);
},
{
closed = 1;
nodes = (
"347 32 OFFCURVE",
"216 196 OFFCURVE",
"216 423 CURVE SMOOTH",
"216 806 OFFCURVE",
"581 1329 OFFCURVE",
"960 1329 CURVE SMOOTH",
"1177 1329 OFFCURVE",
"1305 1166 OFFCURVE",
"1305 943 CURVE SMOOTH",
"1305 553 OFFCURVE",
"944 32 OFFCURVE",
"567 32 CURVE SMOOTH"
);
}
);
width = 1345;
},
{
anchors = (
{
name = bottom;
position = "{554, 0}";
},
{
name = center;
position = "{756, 683}";
},
{
name = ogonek;
position = "{972, 113}";
},
{
name = top;
position = "{1015, 1358}";
},
{
name = topleft;
position = "{372, 1358}";
},
{
name = topright;
position = "{1655, 1358}";
}
);
layerId = "945CD315-E705-4656-B029-92F168859E1E";
paths = (
{
closed = 1;
nodes = (
"1010 -27 OFFCURVE",
"1439 475 OFFCURVE",
"1439 942 CURVE SMOOTH",
"1439 1211 OFFCURVE",
"1286 1384 OFFCURVE",
"998 1384 CURVE SMOOTH",
"516 1384 OFFCURVE",
"88 882 OFFCURVE",
"88 421 CURVE SMOOTH",
"88 139 OFFCURVE",
"260 -27 OFFCURVE",
"534 -27 CURVE SMOOTH"
);
},
{
closed = 1;
nodes = (
"420 75 OFFCURVE",
"356 208 OFFCURVE",
"356 381 CURVE SMOOTH",
"356 772 OFFCURVE",
"654 1288 OFFCURVE",
"953 1288 CURVE SMOOTH",
"1107 1288 OFFCURVE",
"1171 1156 OFFCURVE",
"1171 985 CURVE SMOOTH",
"1171 618 OFFCURVE",
"889 75 OFFCURVE",
"577 75 CURVE SMOOTH"
);
}
);
width = 1345;
}
);
leftKerningGroup = C;
note = O;
rightKerningGroup = O;
unicode = 004F;
},
{
glyphname = OE;
lastChange = "2019-06-22 14:11:28 +0000";
layers = (
{
anchors = (
{
name = bottom;
position = "{885, 0}";
},
{
name = top;
position = "{1366, 1363}";
}
);
layerId = "9207B417-A6D7-41AF-BE7C-4506B089B767";
paths = (
{
closed = 1;
nodes = (
"1860 0 LINE",
"1984 356 LINE",
"1923 356 LINE",
"1750 176 LINE SMOOTH",
"1719 144 OFFCURVE",
"1682 102 OFFCURVE",
"1630 102 CURVE SMOOTH",
"1124 102 LINE",
"1182 54 LINE",
"1626 1306 LINE",
"1495 1256 LINE",
"1942 1256 LINE SMOOTH",
"2035 1256 OFFCURVE",
"2057 1234 OFFCURVE",
"2062 1210 CURVE SMOOTH",
"2104 1009 LINE",
"2165 1009 LINE",
"2283 1358 LINE",
"1072 1358 LINE SMOOTH",
"546 1358 OFFCURVE",
"84 966 OFFCURVE",
"84 448 CURVE SMOOTH",
"84 149 OFFCURVE",
"274 0 OFFCURVE",
"583 0 CURVE"
);
},
{
closed = 1;
nodes = (
"490 95 OFFCURVE",
"428 249 OFFCURVE",
"428 450 CURVE SMOOTH",
"428 684 OFFCURVE",
"615 1256 OFFCURVE",
"1085 1256 CURVE SMOOTH",
"1180 1256 OFFCURVE",
"1245 1237 OFFCURVE",
"1271 1159 CURVE",
"908 189 LINE",
"842 109 OFFCURVE",
"759 95 OFFCURVE",
"661 95 CURVE SMOOTH"
);
},
{
closed = 1;
nodes = (
"1692 591 LINE",
"1692 688 LINE",
"1324 688 LINE",
"1324 591 LINE"
);
},
{
closed = 1;
nodes = (
"1676 416 LINE",
"1838 882 LINE",
"1702 882 LINE",
"1540 416 LINE"
);
}
);
width = 2048;
},
{
anchors = (
{
name = bottom;
position = "{767, 0}";
},
{
name = top;
position = "{1267, 1363}";
}
);
layerId = "5006D1C8-6490-4B45-8DF5-310CA26D976E";
paths = (
{
closed = 1;
nodes = (
"1678 0 LINE",
"1808 340 LINE",
"1776 340 LINE",
"1593 107 LINE SMOOTH",
"1568 75 OFFCURVE",
"1525 65 OFFCURVE",
"1464 65 CURVE SMOOTH",
"880 65 LINE",
"917 35 LINE",
"1418 1330 LINE",
"1376 1294 LINE",
"1843 1294 LINE SMOOTH",
"1926 1294 OFFCURVE",
"1975 1277 OFFCURVE",
"1972 1248 CURVE SMOOTH",
"1943 1025 LINE",
"1976 1025 LINE",
"2121 1358 LINE",
"1040 1358 LINE SMOOTH",
"338 1358 OFFCURVE",
"98 744 OFFCURVE",
"98 398 CURVE SMOOTH",
"98 180 OFFCURVE",
"236 0 OFFCURVE",
"523 0 CURVE"
);
},
{
closed = 1;
nodes = (
"377 71 OFFCURVE",
"214 221 OFFCURVE",
"214 451 CURVE SMOOTH",
"214 826 OFFCURVE",
"507 1288 OFFCURVE",
"992 1288 CURVE SMOOTH",
"1129 1288 OFFCURVE",
"1221 1290 OFFCURVE",
"1260 1214 CURVE",
"850 119 LINE",
"766 73 OFFCURVE",
"687 71 OFFCURVE",
"576 71 CURVE SMOOTH"
);
},
{
closed = 1;
nodes = (
"1577 615 LINE",
"1577 669 LINE",
"1085 669 LINE",
"1085 615 LINE"
);
},
{
closed = 1;
nodes = (
"1530 422 LINE",
"1702 875 LINE",
"1633 875 LINE",
"1463 422 LINE"
);
}
);
width = 1946;
},
{
anchors = (
{
name = bottom;
position = "{762, 0}";
},
{
name = top;
position = "{1243, 1363}";
}
);
hints = (
{
horizontal = 1;
origin = "{0, 24}";
type = Anchor;
},
{
horizontal = 1;
origin = "{0, 24}";
target = "{0, 6}";
type = TTStem;
options = 4;
},
{
horizontal = 1;
origin = "{0, 18}";
type = Anchor;
},
{
horizontal = 1;
origin = "{0, 18}";
target = "{0, 11}";
type = TTStem;
options = 4;
},
{
horizontal = 1;
origin = "{0, 24}";
target = "{0, 18}";
other1 = "{2, 3}";
type = Interpolate;
},
{
horizontal = 1;
origin = "{2, 3}";
target = "{2, 2}";
type = TTStem;
options = 4;
},
{
horizontal = 1;
origin = "{0, 24}";
target = "{1, 12}";
type = TTStem;
options = 4;
},
{
horizontal = 1;
origin = "{0, 18}";
target = "{1, 5}";
type = TTStem;
options = 4;
}
);
layerId = "87470B05-E19F-4BE8-998C-E64C1608970F";
paths = (
{
closed = 1;
nodes = (
"1590 0 LINE",
"1711 340 LINE",
"1691 340 LINE",
"1511 94 LINE SMOOTH",
"1487 61 OFFCURVE",
"1444 53 OFFCURVE",
"1391 53 CURVE SMOOTH",
"867 53 LINE",
"878 35 LINE",
"1345 1331 LINE",
"1317 1305 LINE",
"1744 1305 LINE SMOOTH",
"1822 1305 OFFCURVE",
"1866 1288 OFFCURVE",
"1864 1260 CURVE SMOOTH",
"1846 1025 LINE",
"1866 1025 LINE",
"2001 1358 LINE",
"996 1358 LINE SMOOTH",
"339 1358 OFFCURVE",
"118 744 OFFCURVE",
"118 398 CURVE SMOOTH",
"118 181 OFFCURVE",
"246 0 OFFCURVE",
"545 0 CURVE"
);
},
{
closed = 1;
nodes = (
"377 57 OFFCURVE",
"222 213 OFFCURVE",
"222 451 CURVE SMOOTH",
"222 833 OFFCURVE",
"498 1303 OFFCURVE",
"951 1303 CURVE SMOOTH",
"1085 1303 OFFCURVE",
"1165 1303 OFFCURVE",
"1201 1214 CURVE",
"819 119 LINE",
"740 60 OFFCURVE",
"670 57 OFFCURVE",
"563 57 CURVE SMOOTH"
);
},
{
closed = 1;
nodes = (
"1495 615 LINE",
"1495 669 LINE",
"1036 669 LINE",
"1036 615 LINE"
);
},
{
closed = 1;
nodes = (
"1451 422 LINE",
"1612 875 LINE",
"1549 875 LINE",
"1390 422 LINE"
);
}
);
width = 1837;
},
{
anchors = (
{
name = bottom;
position = "{781, 0}";
},
{
name = top;
position = "{1264, 1363}";
}
);
layerId = "945CD315-E705-4656-B029-92F168859E1E";
paths = (
{
closed = 1;
nodes = (
"1626 0 LINE",
"1750 353 LINE",
"1701 353 LINE",
"1536 162 LINE SMOOTH",
"1510 132 OFFCURVE",
"1473 94 OFFCURVE",
"1426 94 CURVE SMOOTH",
"982 94 LINE",
"1026 51 LINE",
"1475 1310 LINE",
"1369 1264 LINE",
"1754 1264 LINE SMOOTH",
"1837 1264 OFFCURVE",
"1858 1243 OFFCURVE",
"1861 1218 CURVE SMOOTH",
"1883 1012 LINE",
"1933 1012 LINE",
"2054 1358 LINE",
"1004 1358 LINE SMOOTH",
"514 1358 OFFCURVE",
"93 923 OFFCURVE",
"93 415 CURVE SMOOTH",
"93 145 OFFCURVE",
"251 0 OFFCURVE",
"520 0 CURVE"
);
},
{
closed = 1;
nodes = (
"436 89 OFFCURVE",
"370 229 OFFCURVE",
"370 420 CURVE SMOOTH",
"370 705 OFFCURVE",
"581 1264 OFFCURVE",
"1004 1264 CURVE SMOOTH",
"1096 1264 OFFCURVE",
"1156 1248 OFFCURVE",
"1179 1168 CURVE",
"814 177 LINE",
"749 102 OFFCURVE",
"679 89 OFFCURVE",
"585 89 CURVE SMOOTH"
);
},
{
closed = 1;
nodes = (
"1512 595 LINE",
"1515 685 LINE",
"1178 685 LINE",
"1175 595 LINE"
);
},
{
closed = 1;
nodes = (
"1487 417 LINE",
"1650 881 LINE",
"1537 881 LINE",
"1375 417 LINE"
);
}
);
width = 1837;
}
);
leftKerningGroup = C;
leftMetricsKey = O;
note = OE;
rightMetricsKey = E;
unicode = 0152;
},
{
glyphname = P;
lastChange = "2019-06-22 14:11:28 +0000";
layers = (
{
anchors = (
{
name = bottom;
position = "{453, 0}";
},
{
name = ogonek;
position = "{334, 10}";
},
{
name = top;
position = "{934, 1363}";
},
{
name = topleft;
position = "{323, 1357}";
}
);
layerId = "9207B417-A6D7-41AF-BE7C-4506B089B767";
paths = (
{
closed = 1;
nodes = (
"367 49 LINE",
"822 1303 LINE",
"516 1303 LINE",
"51 49 LINE"
);
},
{
closed = 1;
nodes = (
"1288 596 OFFCURVE",
"1422 811 OFFCURVE",
"1422 1008 CURVE SMOOTH",
"1422 1236 OFFCURVE",
"1244 1358 OFFCURVE",
"989 1358 CURVE SMOOTH",
"366 1358 LINE",
"329 1256 LINE",
"851 1256 LINE SMOOTH",
"1005 1256 OFFCURVE",
"1087 1159 OFFCURVE",
"1087 1011 CURVE SMOOTH",
"1087 865 OFFCURVE",
"1048 696 OFFCURVE",
"660 696 CURVE SMOOTH",
"623 696 OFFCURVE",
"597 696 OFFCURVE",
"571 705 CURVE",
"532 608 LINE",
"588 598 OFFCURVE",
"649 596 OFFCURVE",
"694 596 CURVE SMOOTH"
);
},
{
closed = 1;
nodes = (
"520 0 LINE",
"556 102 LINE",
"-91 102 LINE",
"-127 0 LINE"
);
}
);
width = 1239;
},
{
anchors = (
{
name = bottom;
position = "{362, 0}";
},
{
name = ogonek;
position = "{237, 10}";
},
{
name = top;
position = "{862, 1363}";
},
{
name = topleft;
position = "{350, 1364}";
}
);
layerId = "5006D1C8-6490-4B45-8DF5-310CA26D976E";
paths = (
{
closed = 1;
nodes = (
"177 32 LINE",
"663 1328 LINE",
"555 1328 LINE",
"71 32 LINE"
);
},
{
closed = 1;
nodes = (
"1022 596 OFFCURVE",
"1261 784 OFFCURVE",
"1261 1080 CURVE SMOOTH",
"1261 1253 OFFCURVE",
"1130 1358 OFFCURVE",
"898 1358 CURVE SMOOTH",
"361 1358 LINE",
"339 1293 LINE",
"784 1293 LINE SMOOTH",
"1019 1293 OFFCURVE",
"1145 1207 OFFCURVE",
"1145 1032 CURVE SMOOTH",
"1145 783 OFFCURVE",
"919 661 OFFCURVE",
"582 661 CURVE SMOOTH",
"514 661 OFFCURVE",
"444 672 OFFCURVE",
"399 686 CURVE",
"378 615 LINE",
"450 598 OFFCURVE",
"530 596 OFFCURVE",
"626 596 CURVE SMOOTH"
);
},
{
closed = 1;
nodes = (
"372 0 LINE",
"396 65 LINE",
"-103 65 LINE",
"-127 0 LINE"
);
}
);
width = 1132;
},
{
anchors = (
{
name = bottom;
position = "{344, 0}";
},
{
name = ogonek;
position = "{229, 10}";
},
{
name = top;
position = "{825, 1363}";
},
{
name = topleft;
position = "{351, 1364}";
}
);
hints = (
{
horizontal = 1;
origin = "{2, 3}";
type = Anchor;
},
{
horizontal = 1;
origin = "{2, 3}";
target = "{2, 2}";
type = TTStem;
options = 4;
},
{
horizontal = 1;
origin = "{1, 6}";
type = Anchor;
},
{
horizontal = 1;
origin = "{1, 6}";
target = "{1, 7}";
type = TTStem;
options = 4;
},
{
horizontal = 1;
origin = "{2, 3}";
target = "{1, 6}";
other1 = "{1, 21}";
type = Interpolate;
},
{
horizontal = 1;
origin = "{1, 21}";
target = "{1, 14}";
type = TTStem;
options = 4;
},
{
horizontal = 1;
origin = "{2, 3}";
target = "{2, 2}";
other1 = "{0, 3}";
type = Interpolate;
options = 4;
},
{
horizontal = 1;
origin = "{1, 6}";
target = "{1, 7}";
other1 = "{0, 2}";
type = Interpolate;
options = 4;
}
);
layerId = "87470B05-E19F-4BE8-998C-E64C1608970F";
paths = (
{
closed = 1;
nodes = (
"177 25 LINE",
"635 1334 LINE",
"539 1334 LINE",
"80 25 LINE"
);
},
{
closed = 1;
nodes = (
"1100 596 OFFCURVE",
"1196 900 OFFCURVE",
"1196 1064 CURVE SMOOTH",
"1196 1241 OFFCURVE",
"1074 1358 OFFCURVE",
"808 1358 CURVE SMOOTH",
"368 1358 LINE",
"350 1305 LINE",
"741 1305 LINE SMOOTH",
"971 1305 OFFCURVE",
"1093 1200 OFFCURVE",
"1093 1013 CURVE SMOOTH",
"1093 780 OFFCURVE",
"883 655 OFFCURVE",
"627 655 CURVE SMOOTH",
"539 655 OFFCURVE",
"455 673 OFFCURVE",
"387 707 CURVE",
"367 642 LINE",
"471 608 OFFCURVE",
"539 596 OFFCURVE",
"638 596 CURVE SMOOTH"
);
},
{
closed = 1;
nodes = (
"350 0 LINE",
"369 53 LINE",
"-92 53 LINE",
"-112 0 LINE"
);
}
);
width = 1055;
},
{
anchors = (
{
name = bottom;
position = "{346, 0}";
},
{
name = ogonek;
position = "{245, 10}";
},
{
name = top;
position = "{828, 1363}";
},
{
name = topleft;
position = "{323, 1358}";
}
);
layerId = "945CD315-E705-4656-B029-92F168859E1E";
paths = (
{
closed = 1;
nodes = (
"263 45 LINE",
"720 1308 LINE",
"485 1308 LINE",
"22 45 LINE"
);
},
{
closed = 1;
nodes = (
"1080 596 OFFCURVE",
"1213 828 OFFCURVE",
"1213 1043 CURVE SMOOTH",
"1213 1245 OFFCURVE",
"1074 1358 OFFCURVE",
"866 1358 CURVE SMOOTH",
"356 1358 LINE",
"322 1264 LINE",
"752 1264 LINE SMOOTH",
"885 1264 OFFCURVE",
"958 1175 OFFCURVE",
"958 1034 CURVE SMOOTH",
"958 803 OFFCURVE",
"829 689 OFFCURVE",
"569 689 CURVE SMOOTH",
"533 689 OFFCURVE",
"500 692 OFFCURVE",
"473 705 CURVE",
"437 614 LINE",
"491 600 OFFCURVE",
"542 596 OFFCURVE",
"591 596 CURVE SMOOTH"
);
},
{
closed = 1;
nodes = (
"394 0 LINE",
"427 94 LINE",
"-102 94 LINE",
"-135 0 LINE"
);
}
);
width = 1055;
}
);
leftMetricsKey = H;
note = P;
rightKerningGroup = P;
unicode = 0050;
},
{
glyphname = Thorn;
lastChange = "2019-06-22 14:11:28 +0000";
layers = (
{
anchors = (
{
name = bottom;
position = "{789, 0}";
},
{
name = top;
position = "{924, 1358}";
}
);
layerId = "9207B417-A6D7-41AF-BE7C-4506B089B767";
paths = (
{
closed = 1;
nodes = (
"172 -345 LINE",
"233 -284 LINE",
"761 1225 LINE SMOOTH",
"771 1254 OFFCURVE",
"792 1300 OFFCURVE",
"817 1350 CURVE",
"774 1395 LINE",
"324 1322 LINE",
"313 1219 LINE",
"547 1219 LINE",
"481 1259 LINE",
"-84 -317 LINE",
"-38 -264 LINE",
"-256 -413 LINE",
"-189 -541 LINE"
);
},
{
closed = 1;
nodes = (
"396 -12 OFFCURVE",
"525 23 OFFCURVE",
"625 63 CURVE SMOOTH",
"1041 228 OFFCURVE",
"1367 620 OFFCURVE",
"1367 1002 CURVE SMOOTH",
"1367 1189 OFFCURVE",
"1290 1329 OFFCURVE",
"1142 1329 CURVE SMOOTH",
"1076 1329 OFFCURVE",
"988 1302 OFFCURVE",
"907 1244 CURVE SMOOTH",
"654 1063 LINE",
"566 917 LINE",
"939 1159 LINE SMOOTH",
"959 1172 OFFCURVE",
"975 1175 OFFCURVE",
"977 1175 CURVE SMOOTH",
"998 1175 OFFCURVE",
"1019 1084 OFFCURVE",
"1019 994 CURVE SMOOTH",
"1019 709 OFFCURVE",
"813 335 OFFCURVE",
"566 175 CURVE SMOOTH",
"512 140 OFFCURVE",
"399 78 OFFCURVE",
"272 79 CURVE",
"237 -27 LINE"
);
}
);
width = 1227;
},
{
anchors = (
{
name = bottom;
position = "{528, 0}";
},
{
name = top;
position = "{819, 1358}";
}
);
layerId = "5006D1C8-6490-4B45-8DF5-310CA26D976E";
paths = (
{
closed = 1;
nodes = (
"-1 -343 LINE",
"23 -313 LINE",
"572 1184 LINE SMOOTH",
"599 1256 OFFCURVE",
"620 1313 OFFCURVE",
"639 1352 CURVE",
"625 1384 LINE",
"304 1316 LINE",
"296 1264 LINE",
"535 1264 LINE",
"506 1301 LINE",
"-92 -335 LINE",
"-43 -271 LINE",
"-319 -436 LINE",
"-275 -503 LINE"
);
},
{
closed = 1;
nodes = (
"262 -14 OFFCURVE",
"406 34 OFFCURVE",
"516 87 CURVE SMOOTH",
"953 300 OFFCURVE",
"1189 779 OFFCURVE",
"1189 1093 CURVE SMOOTH",
"1189 1247 OFFCURVE",
"1132 1327 OFFCURVE",
"1028 1327 CURVE SMOOTH",
"952 1327 OFFCURVE",
"889 1284 OFFCURVE",
"839 1254 CURVE SMOOTH",
"457 1013 LINE",
"441 955 LINE",
"851 1210 LINE SMOOTH",
"863 1216 OFFCURVE",
"883 1229 OFFCURVE",
"917 1229 CURVE SMOOTH",
"991 1229 OFFCURVE",
"1033 1175 OFFCURVE",
"1033 1033 CURVE SMOOTH",
"1033 705 OFFCURVE",
"811 329 OFFCURVE",
"525 155 CURVE SMOOTH",
"395 75 OFFCURVE",
"264 49 OFFCURVE",
"114 47 CURVE",
"78 -27 LINE"
);
}
);
width = 1109;
},
{
anchors = (
{
name = bottom;
position = "{526, 0}";
},
{
name = top;
position = "{818, 1358}";
}
);
hints = (
{
horizontal = 1;
origin = "{0, 6}";
type = Anchor;
},
{
horizontal = 1;
origin = "{0, 6}";
target = "{0, 8}";
type = TTStem;
options = 4;
},
{
horizontal = 1;
origin = "{0, 6}";
target = "{1, 8}";
type = TTStem;
stem = -1;
},
{
horizontal = 1;
origin = "{1, 8}";
target = "{1, 17}";
type = TTStem;
options = 4;
},
{
horizontal = 1;
origin = "{1, 27}";
type = Anchor;
},
{
horizontal = 1;
origin = "{1, 27}";
target = "{1, 26}";
type = TTStem;
options = 4;
},
{
horizontal = 1;
origin = "{0, 14}";
type = Anchor;
},
{
horizontal = 1;
origin = "{0, 14}";
target = "{0, 13}";
type = TTStem;
options = 4;
}
);
layerId = "87470B05-E19F-4BE8-998C-E64C1608970F";
paths = (
{
closed = 1;
nodes = (
"15 -343 LINE",
"37 -314 LINE",
"565 1183 LINE SMOOTH",
"590 1253 OFFCURVE",
"614 1322 OFFCURVE",
"629 1352 CURVE",
"617 1384 LINE",
"320 1316 LINE",
"321 1265 LINE",
"529 1265 LINE",
"501 1284 LINE",
"-68 -335 LINE",
"-22 -272 LINE",
"-281 -436 LINE",
"-242 -503 LINE"
);
},
{
closed = 1;
nodes = (
"264 -14 OFFCURVE",
"403 35 OFFCURVE",
"503 87 CURVE SMOOTH",
"903 295 OFFCURVE",
"1145 770 OFFCURVE",
"1145 1097 CURVE SMOOTH",
"1145 1218 OFFCURVE",
"1112 1327 OFFCURVE",
"994 1327 CURVE SMOOTH",
"927 1327 OFFCURVE",
"872 1292 OFFCURVE",
"817 1255 CURVE SMOOTH",
"462 1013 LINE",
"441 952 LINE",
"827 1211 LINE SMOOTH",
"837 1216 OFFCURVE",
"857 1229 OFFCURVE",
"888 1229 CURVE SMOOTH",
"967 1229 OFFCURVE",
"1002 1146 OFFCURVE",
"1002 1022 CURVE SMOOTH",
"1002 721 OFFCURVE",
"803 352 OFFCURVE",
"514 158 CURVE SMOOTH",
"390 74 OFFCURVE",
"284 50 OFFCURVE",
"126 47 CURVE",
"92 -27 LINE"
);
}
);
width = 1049;
},
{
anchors = (
{
name = bottom;
position = "{621, 0}";
},
{
name = top;
position = "{832, 1358}";
}
);
layerId = "945CD315-E705-4656-B029-92F168859E1E";
paths = (
{
closed = 1;
nodes = (
"72 -345 LINE",
"127 -289 LINE",
"654 1218 LINE SMOOTH",
"667 1255 OFFCURVE",
"686 1298 OFFCURVE",
"712 1350 CURVE",
"674 1393 LINE",
"249 1321 LINE",
"241 1227 LINE",
"470 1227 LINE",
"411 1263 LINE",
"-155 -320 LINE",
"-109 -265 LINE",
"-334 -417 LINE",
"-272 -535 LINE"
);
},
{
closed = 1;
nodes = (
"298 -13 OFFCURVE",
"431 25 OFFCURVE",
"531 67 CURVE SMOOTH",
"944 239 OFFCURVE",
"1256 645 OFFCURVE",
"1256 1018 CURVE SMOOTH",
"1256 1194 OFFCURVE",
"1186 1329 OFFCURVE",
"1044 1329 CURVE SMOOTH",
"976 1329 OFFCURVE",
"895 1300 OFFCURVE",
"818 1246 CURVE SMOOTH",
"548 1055 LINE",
"471 923 LINE",
"847 1168 LINE SMOOTH",
"864 1179 OFFCURVE",
"881 1184 OFFCURVE",
"888 1184 CURVE SMOOTH",
"919 1184 OFFCURVE",
"942 1094 OFFCURVE",
"942 999 CURVE SMOOTH",
"942 716 OFFCURVE",
"743 342 OFFCURVE",
"483 172 CURVE SMOOTH",
"418 129 OFFCURVE",
"307 74 OFFCURVE",
"174 74 CURVE",
"139 -27 LINE"
);
}
);
width = 1049;
}
);
note = Thorn;
unicode = 00DE;
},
{
glyphname = Q;
lastChange = "2019-06-22 14:11:28 +0000";
layers = (
{
anchors = (
{
name = bottom;
position = "{587, 0}";
},
{
name = top;
position = "{1081, 1358}";
}
);
layerId = "9207B417-A6D7-41AF-BE7C-4506B089B767";
paths = (
{
closed = 1;
nodes = (
"1956 -311 OFFCURVE",
"2177 -245 OFFCURVE",
"2355 -147 CURVE",
"2350 -81 LINE",
"2171 -131 OFFCURVE",
"2027 -151 OFFCURVE",
"1807 -151 CURVE SMOOTH",
"1394 -151 OFFCURVE",
"918 -82 OFFCURVE",
"676 26 CURVE SMOOTH",
"475 116 OFFCURVE",
"411 234 OFFCURVE",
"411 386 CURVE SMOOTH",
"411 688 OFFCURVE",
"672 1293 OFFCURVE",
"1047 1293 CURVE SMOOTH",
"1198 1293 OFFCURVE",
"1267 1193 OFFCURVE",
"1267 1015 CURVE SMOOTH",
"1267 679 OFFCURVE",
"1022 87 OFFCURVE",
"582 87 CURVE SMOOTH",
"529 87 OFFCURVE",
"470 95 OFFCURVE",
"433 102 CURVE",
"514 -4 LINE",
"531 -6 OFFCURVE",
"549 -6 OFFCURVE",
"567 -6 CURVE SMOOTH",
"1140 -6 OFFCURVE",
"1609 478 OFFCURVE",
"1609 946 CURVE SMOOTH",
"1609 1255 OFFCURVE",
"1405 1385 OFFCURVE",
"1105 1385 CURVE SMOOTH",
"491 1385 OFFCURVE",
"69 828 OFFCURVE",
"69 449 CURVE SMOOTH",
"69 197 OFFCURVE",
"270 17 OFFCURVE",
"567 -112 CURVE SMOOTH",
"934 -272 OFFCURVE",
"1330 -311 OFFCURVE",
"1606 -311 CURVE SMOOTH"
);
}
);
width = 1526;
},
{
anchors = (
{
name = bottom;
position = "{496, 0}";
},
{
name = top;
position = "{990, 1358}";
}
);
layerId = "5006D1C8-6490-4B45-8DF5-310CA26D976E";
paths = (
{
closed = 1;
nodes = (
"2020 -271 OFFCURVE",
"2245 -219 OFFCURVE",
"2397 -142 CURVE",
"2394 -121 LINE",
"2216 -167 OFFCURVE",
"2062 -191 OFFCURVE",
"1826 -191 CURVE SMOOTH",
"1396 -191 OFFCURVE",
"913 -111 OFFCURVE",
"561 28 CURVE SMOOTH",
"406 89 OFFCURVE",
"219 183 OFFCURVE",
"219 455 CURVE SMOOTH",
"219 819 OFFCURVE",
"558 1328 OFFCURVE",
"985 1328 CURVE SMOOTH",
"1236 1328 OFFCURVE",
"1364 1146 OFFCURVE",
"1364 907 CURVE SMOOTH",
"1364 498 OFFCURVE",
"982 45 OFFCURVE",
"496 45 CURVE SMOOTH",
"443 45 OFFCURVE",
"392 49 OFFCURVE",
"333 60 CURVE",
"437 -4 LINE",
"455 -6 OFFCURVE",
"462 -6 OFFCURVE",
"468 -6 CURVE SMOOTH",
"1009 -6 OFFCURVE",
"1473 456 OFFCURVE",
"1473 910 CURVE SMOOTH",
"1473 1180 OFFCURVE",
"1308 1385 OFFCURVE",
"1002 1385 CURVE SMOOTH",
"488 1385 OFFCURVE",
"94 805 OFFCURVE",
"94 440 CURVE SMOOTH",
"94 208 OFFCURVE",
"242 50 OFFCURVE",
"508 -54 CURVE SMOOTH",
"789 -165 OFFCURVE",
"1365 -271 OFFCURVE",
"1752 -271 CURVE SMOOTH"
);
}
);
width = 1421;
},
{
anchors = (
{
name = bottom;
position = "{464, 0}";
},
{
name = top;
position = "{958, 1358}";
}
);
hints = (
{
horizontal = 1;
origin = "{0, 28}";
type = Anchor;
},
{
horizontal = 1;
origin = "{0, 28}";
target = "{0, 21}";
type = TTStem;
options = 4;
},
{
horizontal = 1;
origin = "{0, 34}";
type = Anchor;
},
{
horizontal = 1;
origin = "{0, 34}";
target = "{0, 15}";
type = TTStem;
options = 4;
},
{
horizontal = 1;
origin = "{0, 28}";
target = "{0, 43}";
type = TTStem;
stem = -1;
},
{
horizontal = 1;
origin = "{0, 43}";
target = "{0, 6}";
type = TTStem;
options = 4;
}
);
layerId = "87470B05-E19F-4BE8-998C-E64C1608970F";
paths = (
{
closed = 1;
nodes = (
"1891 -271 OFFCURVE",
"2102 -220 OFFCURVE",
"2247 -142 CURVE",
"2245 -121 LINE",
"2081 -166 OFFCURVE",
"1940 -191 OFFCURVE",
"1709 -191 CURVE SMOOTH",
"1320 -191 OFFCURVE",
"891 -120 OFFCURVE",
"537 28 CURVE SMOOTH",
"412 81 OFFCURVE",
"220 169 OFFCURVE",
"220 440 CURVE SMOOTH",
"220 792 OFFCURVE",
"547 1328 OFFCURVE",
"962 1328 CURVE SMOOTH",
"1197 1328 OFFCURVE",
"1316 1155 OFFCURVE",
"1316 927 CURVE SMOOTH",
"1316 527 OFFCURVE",
"953 44 OFFCURVE",
"477 44 CURVE SMOOTH",
"436 44 OFFCURVE",
"381 48 OFFCURVE",
"326 59 CURVE",
"422 -4 LINE",
"439 -6 OFFCURVE",
"457 -6 OFFCURVE",
"475 -6 CURVE SMOOTH",
"981 -6 OFFCURVE",
"1421 492 OFFCURVE",
"1421 927 CURVE SMOOTH",
"1421 1183 OFFCURVE",
"1268 1385 OFFCURVE",
"982 1385 CURVE SMOOTH",
"490 1385 OFFCURVE",
"116 818 OFFCURVE",
"116 456 CURVE SMOOTH",
"116 177 OFFCURVE",
"253 47 OFFCURVE",
"486 -53 CURVE SMOOTH",
"755 -169 OFFCURVE",
"1289 -271 OFFCURVE",
"1646 -271 CURVE SMOOTH"
);
}
);
width = 1345;
},
{
anchors = (
{
name = bottom;
position = "{500, 0}";
},
{
name = top;
position = "{994, 1358}";
}
);
layerId = "945CD315-E705-4656-B029-92F168859E1E";
paths = (
{
closed = 1;
nodes = (
"1716 -304 OFFCURVE",
"1913 -241 OFFCURVE",
"2072 -146 CURVE",
"2070 -88 LINE",
"1910 -137 OFFCURVE",
"1777 -158 OFFCURVE",
"1584 -158 CURVE SMOOTH",
"1237 -158 OFFCURVE",
"820 -95 OFFCURVE",
"578 27 CURVE SMOOTH",
"424 105 OFFCURVE",
"349 210 OFFCURVE",
"349 373 CURVE SMOOTH",
"349 690 OFFCURVE",
"629 1299 OFFCURVE",
"966 1299 CURVE SMOOTH",
"1106 1299 OFFCURVE",
"1171 1194 OFFCURVE",
"1171 1029 CURVE SMOOTH",
"1171 673 OFFCURVE",
"899 80 OFFCURVE",
"502 80 CURVE SMOOTH",
"462 80 OFFCURVE",
"403 87 OFFCURVE",
"369 95 CURVE",
"440 -4 LINE",
"455 -6 OFFCURVE",
"473 -6 OFFCURVE",
"487 -6 CURVE SMOOTH",
"986 -6 OFFCURVE",
"1439 492 OFFCURVE",
"1439 973 CURVE SMOOTH",
"1439 1251 OFFCURVE",
"1272 1385 OFFCURVE",
"1017 1385 CURVE SMOOTH",
"488 1385 OFFCURVE",
"81 812 OFFCURVE",
"81 428 CURVE SMOOTH",
"81 182 OFFCURVE",
"246 16 OFFCURVE",
"483 -102 CURVE SMOOTH",
"792 -256 OFFCURVE",
"1162 -304 OFFCURVE",
"1419 -304 CURVE SMOOTH"
);
}
);
width = 1345;
}
);
leftKerningGroup = C;
leftMetricsKey = "=O";
widthMetricsKey = O;
note = Q;
unicode = 0051;
},
{
glyphname = R;
lastChange = "2019-06-22 14:11:28 +0000";
layers = (
{
anchors = (
{
name = bottom;
position = "{624, 0}";
},
{
name = ogonek;
position = "{344, 10}";
},
{
name = top;
position = "{930, 1363}";
},
{
name = topleft;
position = "{333, 1357}";
}
);
layerId = "9207B417-A6D7-41AF-BE7C-4506B089B767";
paths = (
{
closed = 1;
nodes = (
"1238 -25 OFFCURVE",
"1270 -21 OFFCURVE",
"1305 -17 CURVE",
"1322 48 LINE",
"1270 53 OFFCURVE",
"1230 86 OFFCURVE",
"1174 180 CURVE SMOOTH",
"1100 304 OFFCURVE",
"1056 458 OFFCURVE",
"993 658 CURVE",
"947 611 LINE",
"1471 733 OFFCURVE",
"1472 1026 OFFCURVE",
"1472 1062 CURVE SMOOTH",
"1472 1241 OFFCURVE",
"1297 1358 OFFCURVE",
"997 1358 CURVE SMOOTH",
"376 1358 LINE",
"339 1256 LINE",
"873 1256 LINE SMOOTH",
"1047 1256 OFFCURVE",
"1150 1194 OFFCURVE",
"1150 1057 CURVE SMOOTH",
"1150 891 OFFCURVE",
"1004 680 OFFCURVE",
"684 680 CURVE SMOOTH",
"641 680 OFFCURVE",
"597 684 OFFCURVE",
"563 689 CURVE",
"536 586 LINE",
"631 586 LINE SMOOTH",
"676 586 OFFCURVE",
"713 504 OFFCURVE",
"725 428 CURVE SMOOTH",
"734 373 OFFCURVE",
"788 250 OFFCURVE",
"850 163 CURVE SMOOTH",
"939 37 OFFCURVE",
"1043 -25 OFFCURVE",
"1198 -25 CURVE SMOOTH"
);
},
{
closed = 1;
nodes = (
"367 46 LINE",
"827 1314 LINE",
"521 1314 LINE",
"51 46 LINE"
);
},
{
closed = 1;
nodes = (
"520 -1 LINE",
"556 101 LINE",
"-91 101 LINE",
"-127 -1 LINE"
);
}
);
width = 1469;
},
{
anchors = (
{
name = bottom;
position = "{533, 0}";
},
{
name = ogonek;
position = "{240, 10}";
},
{
name = top;
position = "{887, 1363}";
},
{
name = topleft;
position = "{353, 1364}";
}
);
layerId = "5006D1C8-6490-4B45-8DF5-310CA26D976E";
paths = (
{
closed = 1;
nodes = (
"1186 -25 OFFCURVE",
"1197 -26 OFFCURVE",
"1220 -23 CURVE",
"1233 11 LINE",
"1174 11 OFFCURVE",
"1093 54 OFFCURVE",
"1024 144 CURVE SMOOTH",
"932 264 OFFCURVE",
"823 511 OFFCURVE",
"818 651 CURVE",
"781 622 LINE",
"1109 677 OFFCURVE",
"1283 851 OFFCURVE",
"1283 1086 CURVE SMOOTH",
"1283 1267 OFFCURVE",
"1157 1358 OFFCURVE",
"905 1358 CURVE SMOOTH",
"372 1358 LINE",
"348 1293 LINE",
"806 1293 LINE SMOOTH",
"927 1293 OFFCURVE",
"1155 1284 OFFCURVE",
"1155 1077 CURVE SMOOTH",
"1155 846 OFFCURVE",
"981 667 OFFCURVE",
"572 667 CURVE SMOOTH",
"542 667 OFFCURVE",
"477 668 OFFCURVE",
"399 694 CURVE",
"355 603 LINE",
"553 603 LINE SMOOTH",
"635 603 OFFCURVE",
"664 567 OFFCURVE",
"708 428 CURVE SMOOTH",
"737 337 OFFCURVE",
"757 281 OFFCURVE",
"797 218 CURVE SMOOTH",
"855 127 OFFCURVE",
"986 -25 OFFCURVE",
"1175 -25 CURVE SMOOTH"
);
},
{
closed = 1;
nodes = (
"169 29 LINE",
"656 1324 LINE",
"548 1324 LINE",
"64 29 LINE"
);
},
{
closed = 1;
nodes = (
"365 0 LINE",
"390 65 LINE",
"-109 65 LINE",
"-134 0 LINE"
);
}
);
width = 1406;
},
{
anchors = (
{
name = bottom;
position = "{503, 0}";
},
{
name = ogonek;
position = "{230, 10}";
},
{
name = top;
position = "{848, 1363}";
},
{
name = topleft;
position = "{352, 1364}";
}
);
hints = (
{
horizontal = 1;
origin = "{2, 3}";
type = Anchor;
},
{
horizontal = 1;
origin = "{2, 3}";
target = "{2, 2}";
type = TTStem;
options = 4;
},
{
horizontal = 1;
origin = "{0, 17}";
type = Anchor;
},
{
horizontal = 1;
origin = "{0, 17}";
target = "{0, 18}";
type = TTStem;
options = 4;
},
{
horizontal = 1;
origin = "{2, 3}";
target = "{0, 17}";
other1 = "{0, 30}";
type = Interpolate;
},
{
horizontal = 1;
origin = "{0, 30}";
target = "{0, 25}";
type = TTStem;
options = 4;
},
{
horizontal = 1;
origin = "{0, 17}";
target = "{0, 18}";
other1 = "{1, 2}";
type = Interpolate;
options = 4;
},
{
horizontal = 1;
origin = "{2, 3}";
target = "{2, 2}";
other1 = "{1, 3}";
type = Interpolate;
options = 4;
}
);
layerId = "87470B05-E19F-4BE8-998C-E64C1608970F";
paths = (
{
closed = 1;
nodes = (
"1116 -25 OFFCURVE",
"1122 -26 OFFCURVE",
"1145 -23 CURVE",
"1156 11 LINE",
"1102 10 OFFCURVE",
"1026 54 OFFCURVE",
"962 144 CURVE SMOOTH",
"878 262 OFFCURVE",
"776 513 OFFCURVE",
"775 650 CURVE",
"739 622 LINE",
"1122 692 OFFCURVE",
"1216 964 OFFCURVE",
"1216 1105 CURVE SMOOTH",
"1216 1271 OFFCURVE",
"1107 1358 OFFCURVE",
"865 1358 CURVE SMOOTH",
"368 1358 LINE",
"350 1305 LINE",
"771 1305 LINE SMOOTH",
"976 1305 OFFCURVE",
"1097 1224 OFFCURVE",
"1097 1079 CURVE SMOOTH",
"1097 917 OFFCURVE",
"952 646 OFFCURVE",
"546 646 CURVE SMOOTH",
"515 646 OFFCURVE",
"458 647 OFFCURVE",
"384 673 CURVE",
"342 603 LINE",
"528 603 LINE SMOOTH",
"596 603 OFFCURVE",
"627 587 OFFCURVE",
"673 426 CURVE SMOOTH",
"699 338 OFFCURVE",
"717 280 OFFCURVE",
"752 219 CURVE SMOOTH",
"805 127 OFFCURVE",
"927 -25 OFFCURVE",
"1104 -25 CURVE SMOOTH"
);
},
{
closed = 1;
nodes = (
"175 27 LINE",
"633 1328 LINE",
"535 1328 LINE",
"79 27 LINE"
);
},
{
closed = 1;
nodes = (
"348 0 LINE",
"368 53 LINE",
"-93 53 LINE",
"-114 0 LINE"
);
}
);
width = 1315;
},
{
anchors = (
{
name = bottom;
position = "{531, 0}";
},
{
name = ogonek;
position = "{276, 10}";
},
{
name = top;
position = "{859, 1363}";
},
{
name = topleft;
position = "{327, 1358}";
}
);
layerId = "945CD315-E705-4656-B029-92F168859E1E";
paths = (
{
closed = 1;
nodes = (
"1089 -25 OFFCURVE",
"1118 -22 OFFCURVE",
"1149 -18 CURVE",
"1165 42 LINE",
"1115 47 OFFCURVE",
"1076 81 OFFCURVE",
"1026 175 CURVE SMOOTH",
"961 297 OFFCURVE",
"917 470 OFFCURVE",
"875 657 CURVE",
"832 613 LINE",
"1296 726 OFFCURVE",
"1321 1018 OFFCURVE",
"1321 1078 CURVE SMOOTH",
"1321 1249 OFFCURVE",
"1174 1358 OFFCURVE",
"913 1358 CURVE SMOOTH",
"363 1358 LINE",
"329 1264 LINE",
"801 1264 LINE SMOOTH",
"961 1264 OFFCURVE",
"1056 1201 OFFCURVE",
"1056 1070 CURVE SMOOTH",
"1056 900 OFFCURVE",
"910 674 OFFCURVE",
"605 674 CURVE SMOOTH",
"567 674 OFFCURVE",
"524 678 OFFCURVE",
"488 686 CURVE",
"458 589 LINE",
"559 589 LINE SMOOTH",
"603 589 OFFCURVE",
"633 520 OFFCURVE",
"646 430 CURVE SMOOTH",
"655 368 OFFCURVE",
"698 252 OFFCURVE",
"746 173 CURVE SMOOTH",
"819 53 OFFCURVE",
"913 -25 OFFCURVE",
"1059 -25 CURVE SMOOTH"
);
},
{
closed = 1;
nodes = (
"286 43 LINE",
"746 1316 LINE",
"497 1316 LINE",
"30 43 LINE"
);
},
{
closed = 1;
nodes = (
"428 -1 LINE",
"462 93 LINE",
"-104 93 LINE",
"-137 -1 LINE"
);
}
);
width = 1315;
}
);
leftMetricsKey = H;
note = R;
rightKerningGroup = R;
unicode = 0052;
},
{
glyphname = S;
lastChange = "2019-06-22 14:11:28 +0000";
layers = (
{
anchors = (
{
name = bottom;
position = "{317, 0}";
},
{
name = top;
position = "{811, 1358}";
}
);
layerId = "9207B417-A6D7-41AF-BE7C-4506B089B767";
paths = (
{
closed = 1;
nodes = (
"677 -27 OFFCURVE",
"891 127 OFFCURVE",
"891 363 CURVE SMOOTH",
"891 512 OFFCURVE",
"842 650 OFFCURVE",
"743 794 CURVE SMOOTH",
"674 894 OFFCURVE",
"589 1029 OFFCURVE",
"589 1129 CURVE SMOOTH",
"589 1228 OFFCURVE",
"646 1296 OFFCURVE",
"746 1296 CURVE SMOOTH",
"904 1296 OFFCURVE",
"992 1195 OFFCURVE",
"992 1061 CURVE SMOOTH",
"992 1028 OFFCURVE",
"987 987 OFFCURVE",
"974 946 CURVE",
"1075 946 LINE",
"1195 1324 LINE",
"1096 1328 LINE",
"1033 1130 LINE",
"1094 1172 LINE",
"986 1344 OFFCURVE",
"836 1385 OFFCURVE",
"701 1385 CURVE SMOOTH",
"475 1385 OFFCURVE",
"291 1249 OFFCURVE",
"291 1055 CURVE SMOOTH",
"291 892 OFFCURVE",
"366 733 OFFCURVE",
"459 572 CURVE SMOOTH",
"510 483 OFFCURVE",
"587 340 OFFCURVE",
"587 245 CURVE SMOOTH",
"587 153 OFFCURVE",
"526 73 OFFCURVE",
"422 73 CURVE SMOOTH",
"215 73 OFFCURVE",
"171 264 OFFCURVE",
"171 381 CURVE SMOOTH",
"171 431 OFFCURVE",
"176 470 OFFCURVE",
"189 514 CURVE",
"84 514 LINE",
"-64 15 LINE",
"41 15 LINE",
"120 286 LINE",
"38 173 LINE",
"180 2 OFFCURVE",
"315 -27 OFFCURVE",
"433 -27 CURVE SMOOTH"
);
}
);
width = 968;
},
{
anchors = (
{
name = bottom;
position = "{315, 0}";
},
{
name = top;
position = "{810, 1358}";
}
);
layerId = "5006D1C8-6490-4B45-8DF5-310CA26D976E";
paths = (
{
closed = 1;
nodes = (
"686 -27 OFFCURVE",
"853 127 OFFCURVE",
"853 362 CURVE SMOOTH",
"853 519 OFFCURVE",
"771 605 OFFCURVE",
"661 733 CURVE SMOOTH",
"587 819 OFFCURVE",
"486 946 OFFCURVE",
"486 1080 CURVE SMOOTH",
"486 1212 OFFCURVE",
"595 1330 OFFCURVE",
"741 1330 CURVE SMOOTH",
"896 1330 OFFCURVE",
"983 1177 OFFCURVE",
"983 955 CURVE SMOOTH",
"983 928 OFFCURVE",
"981 901 OFFCURVE",
"978 871 CURVE",
"1044 871 LINE",
"1189 1329 LINE",
"1122 1328 LINE",
"1053 1107 LINE",
"1095 1138 LINE",
"989 1321 OFFCURVE",
"885 1385 OFFCURVE",
"733 1385 CURVE SMOOTH",
"504 1385 OFFCURVE",
"364 1232 OFFCURVE",
"364 1010 CURVE SMOOTH",
"364 866 OFFCURVE",
"431 790 OFFCURVE",
"552 647 CURVE SMOOTH",
"629 556 OFFCURVE",
"722 447 OFFCURVE",
"722 306 CURVE SMOOTH",
"722 147 OFFCURVE",
"592 27 OFFCURVE",
"422 27 CURVE SMOOTH",
"203 27 OFFCURVE",
"125 247 OFFCURVE",
"125 387 CURVE SMOOTH",
"125 423 OFFCURVE",
"130 470 OFFCURVE",
"144 514 CURVE",
"80 514 LINE",
"-79 15 LINE",
"-14 15 LINE",
"57 238 LINE",
"2 173 LINE",
"189 1 OFFCURVE",
"320 -27 OFFCURVE",
"429 -27 CURVE SMOOTH"
);
}
);
width = 1013;
},
{
anchors = (
{
name = bottom;
position = "{294, 0}";
},
{
name = top;
position = "{788, 1358}";
}
);
hints = (
{
horizontal = 1;
origin = "{0, 25}";
type = Anchor;
},
{
horizontal = 1;
origin = "{0, 25}";
target = "{0, 11}";
type = TTStem;
options = 4;
},
{
horizontal = 1;
origin = "{0, 51}";
type = Anchor;
},
{
horizontal = 1;
origin = "{0, 51}";
target = "{0, 37}";
type = TTStem;
options = 4;
},
{
origin = "{0, 28}";
target = "{0, 8}";
type = TTStem;
options = 4;
},
{
origin = "{0, 2}";
target = "{0, 34}";
type = TTStem;
options = 4;
}
);
layerId = "87470B05-E19F-4BE8-998C-E64C1608970F";
paths = (
{
closed = 1;
nodes = (
"660 -27 OFFCURVE",
"814 127 OFFCURVE",
"814 362 CURVE SMOOTH",
"814 514 OFFCURVE",
"746 596 OFFCURVE",
"635 732 CURVE SMOOTH",
"571 811 OFFCURVE",
"471 945 OFFCURVE",
"471 1080 CURVE SMOOTH",
"471 1212 OFFCURVE",
"575 1330 OFFCURVE",
"711 1330 CURVE SMOOTH",
"856 1330 OFFCURVE",
"936 1177 OFFCURVE",
"936 955 CURVE SMOOTH",
"936 924 OFFCURVE",
"935 896 OFFCURVE",
"933 870 CURVE",
"993 870 LINE",
"1128 1329 LINE",
"1067 1328 LINE",
"1002 1107 LINE",
"1041 1138 LINE",
"943 1320 OFFCURVE",
"848 1385 OFFCURVE",
"703 1385 CURVE SMOOTH",
"491 1385 OFFCURVE",
"362 1232 OFFCURVE",
"362 1009 CURVE SMOOTH",
"362 864 OFFCURVE",
"422 791 OFFCURVE",
"536 650 CURVE SMOOTH",
"610 558 OFFCURVE",
"697 447 OFFCURVE",
"697 307 CURVE SMOOTH",
"697 147 OFFCURVE",
"574 26 OFFCURVE",
"414 26 CURVE SMOOTH",
"210 26 OFFCURVE",
"136 247 OFFCURVE",
"136 387 CURVE SMOOTH",
"136 417 OFFCURVE",
"141 470 OFFCURVE",
"154 514 CURVE",
"95 514 LINE",
"-53 15 LINE",
"6 15 LINE",
"73 238 LINE",
"21 173 LINE",
"197 1 OFFCURVE",
"319 -27 OFFCURVE",
"421 -27 CURVE SMOOTH"
);
}
);
width = 963;
},
{
anchors = (
{
name = bottom;
position = "{383, 0}";
},
{
name = top;
position = "{717, 1358}";
}
);
layerId = "945CD315-E705-4656-B029-92F168859E1E";
paths = (
{
closed = 1;
nodes = (
"655 -27 OFFCURVE",
"858 127 OFFCURVE",
"858 365 CURVE SMOOTH",
"858 502 OFFCURVE",
"815 631 OFFCURVE",
"708 784 CURVE SMOOTH",
"641 880 OFFCURVE",
"555 1014 OFFCURVE",
"555 1120 CURVE SMOOTH",
"555 1224 OFFCURVE",
"620 1302 OFFCURVE",
"724 1302 CURVE SMOOTH",
"879 1302 OFFCURVE",
"965 1192 OFFCURVE",
"965 1044 CURVE SMOOTH",
"965 1010 OFFCURVE",
"960 974 OFFCURVE",
"948 933 CURVE",
"1042 933 LINE",
"1165 1325 LINE",
"1073 1328 LINE",
"1009 1126 LINE",
"1066 1166 LINE",
"962 1340 OFFCURVE",
"822 1385 OFFCURVE",
"687 1385 CURVE SMOOTH",
"465 1385 OFFCURVE",
"290 1246 OFFCURVE",
"290 1045 CURVE SMOOTH",
"290 886 OFFCURVE",
"362 742 OFFCURVE",
"457 584 CURVE SMOOTH",
"513 491 OFFCURVE",
"588 357 OFFCURVE",
"588 256 CURVE SMOOTH",
"588 152 OFFCURVE",
"516 65 OFFCURVE",
"404 65 CURVE SMOOTH",
"201 65 OFFCURVE",
"151 260 OFFCURVE",
"151 381 CURVE SMOOTH",
"151 426 OFFCURVE",
"157 472 OFFCURVE",
"170 514 CURVE",
"73 514 LINE",
"-75 15 LINE",
"21 15 LINE",
"98 278 LINE",
"22 173 LINE",
"168 2 OFFCURVE",
"299 -27 OFFCURVE",
"414 -27 CURVE SMOOTH"
);
}
);
width = 963;
}
);
leftKerningGroup = S;
note = S;
rightKerningGroup = S;
unicode = 0053;
},
{
glyphname = uni1E9E;
lastChange = "2019-06-22 14:11:28 +0000";
layers = (
{
anchors = (
{
name = bottom;
position = "{604, 0}";
},
{
name = top;
position = "{1186, 1358}";
}
);
layerId = "9207B417-A6D7-41AF-BE7C-4506B089B767";
paths = (
{
closed = 1;
nodes = (
"1292 -26 OFFCURVE",
"1492 287 OFFCURVE",
"1492 494 CURVE SMOOTH",
"1492 641 OFFCURVE",
"1383 728 OFFCURVE",
"1205 739 CURVE",
"1697 1302 LINE",
"1697 1320 LINE",
"1614 1360 OFFCURVE",
"1457 1384 OFFCURVE",
"1282 1384 CURVE SMOOTH",
"1071 1384 OFFCURVE",
"860 1327 OFFCURVE",
"705 1228 CURVE SMOOTH",
"522 1111 OFFCURVE",
"395 956 OFFCURVE",
"327 770 CURVE SMOOTH",
"63 48 LINE",
"367 48 LINE",
"620 737 LINE SMOOTH",
"681 903 OFFCURVE",
"749 1039 OFFCURVE",
"822 1118 CURVE SMOOTH",
"926 1230 OFFCURVE",
"1035 1292 OFFCURVE",
"1205 1292 CURVE SMOOTH",
"1276 1292 OFFCURVE",
"1333 1281 OFFCURVE",
"1360 1263 CURVE",
"900 719 LINE",
"943 661 LINE",
"1133 661 OFFCURVE",
"1222 602 OFFCURVE",
"1222 447 CURVE SMOOTH",
"1222 258 OFFCURVE",
"1118 72 OFFCURVE",
"953 72 CURVE SMOOTH",
"848 72 OFFCURVE",
"801 140 OFFCURVE",
"801 250 CURVE SMOOTH",
"801 286 OFFCURVE",
"806 329 OFFCURVE",
"819 375 CURVE",
"675 375 LINE",
"642 269 OFFCURVE",
"620 196 OFFCURVE",
"617 81 CURVE",
"651 23 OFFCURVE",
"785 -26 OFFCURVE",
"904 -26 CURVE SMOOTH"
);
},
{
closed = 1;
nodes = (
"521 0 LINE",
"556 102 LINE",
"-101 102 LINE",
"-137 0 LINE"
);
}
);
width = 1518;
},
{
anchors = (
{
name = bottom;
position = "{473, 0}";
},
{
name = top;
position = "{1168, 1358}";
}
);
layerId = "5006D1C8-6490-4B45-8DF5-310CA26D976E";
paths = (
{
closed = 1;
nodes = (
"1241 -36 OFFCURVE",
"1369 305 OFFCURVE",
"1369 482 CURVE SMOOTH",
"1369 664 OFFCURVE",
"1226 736 OFFCURVE",
"1028 739 CURVE",
"1594 1285 LINE",
"1588 1331 LINE",
"1477 1367 OFFCURVE",
"1380 1385 OFFCURVE",
"1248 1385 CURVE SMOOTH",
"1033 1385 OFFCURVE",
"854 1335 OFFCURVE",
"683 1229 CURVE SMOOTH",
"519 1128 OFFCURVE",
"408 975 OFFCURVE",
"333 770 CURVE SMOOTH",
"59 28 LINE",
"171 28 LINE",
"428 738 LINE SMOOTH",
"502 941 OFFCURVE",
"562 1028 OFFCURVE",
"691 1147 CURVE SMOOTH",
"815 1259 OFFCURVE",
"1003 1326 OFFCURVE",
"1173 1326 CURVE SMOOTH",
"1249 1326 OFFCURVE",
"1369 1306 OFFCURVE",
"1396 1245 CURVE",
"867 719 LINE",
"874 686 LINE",
"1066 686 OFFCURVE",
"1218 615 OFFCURVE",
"1218 454 CURVE SMOOTH",
"1218 291 OFFCURVE",
"1107 37 OFFCURVE",
"824 37 CURVE SMOOTH",
"690 37 OFFCURVE",
"624 130 OFFCURVE",
"624 264 CURVE SMOOTH",
"624 295 OFFCURVE",
"630 332 OFFCURVE",
"642 374 CURVE",
"587 374 LINE",
"550 280 OFFCURVE",
"533 179 OFFCURVE",
"530 72 CURVE",
"584 4 OFFCURVE",
"672 -36 OFFCURVE",
"779 -36 CURVE SMOOTH"
);
},
{
closed = 1;
nodes = (
"374 0 LINE",
"398 65 LINE",
"-128 65 LINE",
"-152 0 LINE"
);
}
);
width = 1464;
},
{
anchors = (
{
name = bottom;
position = "{472, 0}";
},
{
name = top;
position = "{1067, 1358}";
}
);
hints = (
{
horizontal = 1;
origin = "{1, 3}";
type = Anchor;
},
{
horizontal = 1;
origin = "{1, 3}";
target = "{1, 2}";
type = TTStem;
options = 4;
},
{
horizontal = 1;
origin = "{0, 10}";
type = Anchor;
},
{
horizontal = 1;
origin = "{0, 10}";
target = "{0, 25}";
type = TTStem;
options = 4;
},
{
horizontal = 1;
origin = "{0, 49}";
type = Anchor;
},
{
horizontal = 1;
origin = "{0, 49}";
target = "{0, 36}";
type = TTStem;
options = 4;
},
{
horizontal = 1;
origin = "{0, 10}";
target = "{0, 49}";
other1 = "{0, 30}";
type = Interpolate;
},
{
horizontal = 1;
origin = "{0, 30}";
target = "{0, 29}";
type = TTStem;
options = 4;
},
{
horizontal = 1;
origin = "{1, 3}";
target = "{1, 2}";
other1 = "{0, 17}";
type = Interpolate;
options = 4;
}
);
layerId = "87470B05-E19F-4BE8-998C-E64C1608970F";
paths = (
{
closed = 1;
nodes = (
"1183 -36 OFFCURVE",
"1290 328 OFFCURVE",
"1290 484 CURVE SMOOTH",
"1290 641 OFFCURVE",
"1177 736 OFFCURVE",
"971 739 CURVE",
"1506 1285 LINE",
"1500 1331 LINE",
"1397 1367 OFFCURVE",
"1308 1385 OFFCURVE",
"1185 1385 CURVE SMOOTH",
"981 1385 OFFCURVE",
"814 1333 OFFCURVE",
"658 1230 CURVE SMOOTH",
"502 1128 OFFCURVE",
"397 975 OFFCURVE",
"325 770 CURVE SMOOTH",
"62 25 LINE",
"161 25 LINE",
"411 738 LINE SMOOTH",
"482 940 OFFCURVE",
"540 1029 OFFCURVE",
"661 1147 CURVE SMOOTH",
"780 1260 OFFCURVE",
"955 1326 OFFCURVE",
"1114 1326 CURVE SMOOTH",
"1188 1326 OFFCURVE",
"1299 1305 OFFCURVE",
"1323 1245 CURVE",
"823 719 LINE",
"828 687 LINE",
"1030 687 OFFCURVE",
"1149 596 OFFCURVE",
"1149 453 CURVE SMOOTH",
"1149 308 OFFCURVE",
"1051 37 OFFCURVE",
"775 37 CURVE SMOOTH",
"658 37 OFFCURVE",
"587 129 OFFCURVE",
"587 240 CURVE SMOOTH",
"587 276 OFFCURVE",
"594 323 OFFCURVE",
"607 374 CURVE",
"557 374 LINE",
"523 279 OFFCURVE",
"505 182 OFFCURVE",
"501 71 CURVE",
"549 6 OFFCURVE",
"628 -36 OFFCURVE",
"731 -36 CURVE SMOOTH"
);
},
{
closed = 1;
nodes = (
"352 0 LINE",
"372 52 LINE",
"-111 52 LINE",
"-131 0 LINE"
);
}
);
width = 1369;
},
{
anchors = (
{
name = bottom;
position = "{483, 0}";
},
{
name = top;
position = "{1062, 1358}";
}
);
layerId = "945CD315-E705-4656-B029-92F168859E1E";
paths = (
{
closed = 1;
nodes = (
"1143 -28 OFFCURVE",
"1328 299 OFFCURVE",
"1328 499 CURVE SMOOTH",
"1328 639 OFFCURVE",
"1232 729 OFFCURVE",
"1057 739 CURVE",
"1539 1299 LINE",
"1540 1322 LINE",
"1459 1361 OFFCURVE",
"1322 1384 OFFCURVE",
"1165 1384 CURVE SMOOTH",
"966 1384 OFFCURVE",
"774 1328 OFFCURVE",
"626 1228 CURVE SMOOTH",
"456 1113 OFFCURVE",
"337 962 OFFCURVE",
"267 770 CURVE SMOOTH",
"3 44 LINE",
"258 44 LINE",
"512 737 LINE SMOOTH",
"573 904 OFFCURVE",
"638 1038 OFFCURVE",
"715 1122 CURVE SMOOTH",
"816 1232 OFFCURVE",
"931 1298 OFFCURVE",
"1092 1298 CURVE SMOOTH",
"1157 1298 OFFCURVE",
"1221 1285 OFFCURVE",
"1245 1260 CURVE",
"794 719 LINE",
"828 665 LINE",
"1005 665 OFFCURVE",
"1093 603 OFFCURVE",
"1093 456 CURVE SMOOTH",
"1093 273 OFFCURVE",
"988 66 OFFCURVE",
"814 66 CURVE SMOOTH",
"716 66 OFFCURVE",
"670 138 OFFCURVE",
"670 240 CURVE SMOOTH",
"670 280 OFFCURVE",
"677 329 OFFCURVE",
"690 375 CURVE",
"569 375 LINE",
"538 277 OFFCURVE",
"515 201 OFFCURVE",
"508 79 CURVE",
"541 20 OFFCURVE",
"660 -28 OFFCURVE",
"768 -28 CURVE SMOOTH"
);
},
{
closed = 1;
nodes = (
"362 0 LINE",
"395 94 LINE",
"-107 94 LINE",
"-140 0 LINE"
);
}
);
width = 1369;
}
);
note = uni1E9E;
unicode = 1E9E;
},
{
glyphname = T;
lastChange = "2019-06-22 14:11:28 +0000";
layers = (
{
anchors = (
{
name = bottom;
position = "{570, 0}";
},
{
name = center;
position = "{817, 679}";
},
{
name = ogonek;
position = "{751, 10}";
},
{
name = overlay;
position = "{822, 690}";
},
{
name = top;
position = "{1064, 1358}";
},
{
name = topleft;
position = "{741, 1357}";
}
);
layerId = "9207B417-A6D7-41AF-BE7C-4506B089B767";
paths = (
{
closed = 1;
nodes = (
"310 1089 LINE",
"434 1218 LINE SMOOTH",
"471 1256 OFFCURVE",
"521 1256 OFFCURVE",
"619 1256 CURVE SMOOTH",
"1495 1256 LINE SMOOTH",
"1566 1256 OFFCURVE",
"1583 1243 OFFCURVE",
"1587 1227 CURVE SMOOTH",
"1623 1090 LINE",
"1671 1090 LINE",
"1797 1460 LINE",
"1730 1460 LINE",
"1706 1413 OFFCURVE",
"1653 1358 OFFCURVE",
"1600 1358 CURVE SMOOTH",
"614 1358 LINE SMOOTH",
"515 1358 OFFCURVE",
"471 1395 OFFCURVE",
"449 1458 CURVE",
"409 1458 LINE",
"262 1089 LINE"
);
},
{
closed = 1;
nodes = (
"763 46 LINE",
"1222 1309 LINE",
"917 1309 LINE",
"447 46 LINE"
);
},
{
closed = 1;
nodes = (
"925 0 LINE",
"961 102 LINE",
"306 102 LINE",
"270 0 LINE"
);
}
);
width = 1456;
},
{
anchors = (
{
name = bottom;
position = "{578, 0}";
},
{
name = center;
position = "{826, 679}";
},
{
name = ogonek;
position = "{692, 10}";
},
{
name = overlay;
position = "{824, 687}";
},
{
name = top;
position = "{1073, 1358}";
},
{
name = topleft;
position = "{805, 1364}";
}
);
layerId = "5006D1C8-6490-4B45-8DF5-310CA26D976E";
paths = (
{
closed = 1;
nodes = (
"321 1083 LINE",
"445 1245 LINE SMOOTH",
"470 1279 OFFCURVE",
"518 1293 OFFCURVE",
"588 1293 CURVE SMOOTH",
"1498 1293 LINE SMOOTH",
"1557 1293 OFFCURVE",
"1600 1277 OFFCURVE",
"1607 1236 CURVE SMOOTH",
"1630 1084 LINE",
"1680 1084 LINE",
"1806 1460 LINE",
"1739 1460 LINE",
"1715 1413 OFFCURVE",
"1662 1358 OFFCURVE",
"1609 1358 CURVE SMOOTH",
"623 1358 LINE SMOOTH",
"524 1358 OFFCURVE",
"480 1395 OFFCURVE",
"458 1458 CURVE",
"418 1458 LINE",
"271 1083 LINE"
);
},
{
closed = 1;
nodes = (
"622 28 LINE",
"1111 1331 LINE",
"1003 1331 LINE",
"517 28 LINE"
);
},
{
closed = 1;
nodes = (
"820 0 LINE",
"844 65 LINE",
"343 65 LINE",
"319 0 LINE"
);
}
);
width = 1506;
},
{
anchors = (
{
name = bottom;
position = "{594, 0}";
},
{
name = center;
position = "{841, 679}";
},
{
name = ogonek;
position = "{715, 10}";
},
{
name = overlay;
position = "{841, 688}";
},
{
name = top;
position = "{1088, 1358}";
},
{
name = topleft;
position = "{837, 1364}";
}
);
hints = (
{
horizontal = 1;
origin = "{0, 16}";
type = Anchor;
},
{
horizontal = 1;
origin = "{0, 16}";
target = "{0, 4}";
type = TTStem;
options = 4;
},
{
horizontal = 1;
origin = "{0, 16}";
target = "{0, 4}";
other1 = "{1, 2}";
type = Interpolate;
options = 4;
},
{
horizontal = 1;
origin = "{2, 3}";
type = Anchor;
},
{
horizontal = 1;
origin = "{2, 3}";
target = "{2, 2}";
type = TTStem;
options = 4;
},
{
horizontal = 1;
origin = "{2, 3}";
target = "{2, 2}";
other1 = "{1, 3}";
type = Interpolate;
options = 4;
}
);
layerId = "87470B05-E19F-4BE8-998C-E64C1608970F";
paths = (
{
closed = 1;
nodes = (
"336 1091 LINE",
"441 1238 LINE SMOOTH",
"479 1291 OFFCURVE",
"523 1305 OFFCURVE",
"603 1305 CURVE SMOOTH",
"1519 1305 LINE SMOOTH",
"1574 1305 OFFCURVE",
"1609 1291 OFFCURVE",
"1617 1250 CURVE SMOOTH",
"1646 1092 LINE",
"1696 1092 LINE",
"1822 1460 LINE",
"1754 1460 LINE",
"1730 1413 OFFCURVE",
"1677 1358 OFFCURVE",
"1624 1358 CURVE SMOOTH",
"638 1358 LINE SMOOTH",
"539 1358 OFFCURVE",
"494 1396 OFFCURVE",
"473 1458 CURVE",
"433 1458 LINE",
"286 1091 LINE"
);
},
{
closed = 1;
nodes = (
"657 23 LINE",
"1114 1333 LINE",
"1017 1333 LINE",
"561 23 LINE"
);
},
{
closed = 1;
nodes = (
"852 0 LINE",
"872 53 LINE",
"389 53 LINE",
"368 0 LINE"
);
}
);
width = 1505;
},
{
anchors = (
{
name = bottom;
position = "{618, 0}";
},
{
name = center;
position = "{862, 679}";
},
{
name = ogonek;
position = "{765, 10}";
},
{
name = overlay;
position = "{861, 679}";
},
{
name = top;
position = "{1088, 1358}";
},
{
name = topleft;
position = "{777, 1358}";
}
);
layerId = "945CD315-E705-4656-B029-92F168859E1E";
paths = (
{
closed = 1;
nodes = (
"316 1089 LINE",
"437 1221 LINE SMOOTH",
"476 1264 OFFCURVE",
"533 1264 OFFCURVE",
"618 1264 CURVE SMOOTH",
"1540 1264 LINE SMOOTH",
"1608 1264 OFFCURVE",
"1628 1251 OFFCURVE",
"1633 1231 CURVE SMOOTH",
"1668 1090 LINE",
"1716 1090 LINE",
"1842 1460 LINE",
"1775 1460 LINE",
"1751 1413 OFFCURVE",
"1698 1358 OFFCURVE",
"1645 1358 CURVE SMOOTH",
"620 1358 LINE SMOOTH",
"523 1358 OFFCURVE",
"478 1393 OFFCURVE",
"455 1458 CURVE",
"415 1458 LINE",
"268 1089 LINE"
);
},
{
closed = 1;
nodes = (
"765 42 LINE",
"1224 1313 LINE",
"954 1313 LINE",
"486 42 LINE"
);
},
{
closed = 1;
nodes = (
"933 0 LINE",
"966 94 LINE",
"340 94 LINE",
"306 0 LINE"
);
}
);
width = 1505;
}
);
leftKerningGroup = T;
note = T;
rightKerningGroup = T;
unicode = 0054;
},
{
glyphname = U;
lastChange = "2019-06-22 14:11:28 +0000";
layers = (
{
anchors = (
{
name = bottom;
position = "{620, 0}";
},
{
name = ogonek;
position = "{1043, 84}";
},
{
name = top;
position = "{1100, 1363}";
},
{
name = topright;
position = "{1749, 1363}";
}
);
guideLines = (
{
position = "{879, 1311}";
}
);
layerId = "9207B417-A6D7-41AF-BE7C-4506B089B767";
paths = (
{
closed = 1;
nodes = (
"841 -27 OFFCURVE",
"1060 37 OFFCURVE",
"1217 246 CURVE SMOOTH",
"1298 354 OFFCURVE",
"1372 515 OFFCURVE",
"1456 740 CURVE SMOOTH",
"1667 1308 LINE",
"1470 1308 LINE",
"1174 505 LINE SMOOTH",
"1075 237 OFFCURVE",
"932 84 OFFCURVE",
"680 84 CURVE SMOOTH",
"515 84 OFFCURVE",
"472 147 OFFCURVE",
"472 249 CURVE SMOOTH",
"472 327 OFFCURVE",
"495 433 OFFCURVE",
"533 537 CURVE SMOOTH",
"816 1308 LINE",
"511 1308 LINE",
"230 546 LINE SMOOTH",
"189 435 OFFCURVE",
"165 339 OFFCURVE",
"165 266 CURVE SMOOTH",
"165 160 OFFCURVE",
"205 92 OFFCURVE",
"301 37 CURVE SMOOTH",
"362 2 OFFCURVE",
"485 -27 OFFCURVE",
"610 -27 CURVE SMOOTH"
);
},
{
closed = 1;
nodes = (
"944 1255 LINE",
"980 1358 LINE",
"360 1358 LINE",
"324 1255 LINE"
);
},
{
closed = 1;
nodes = (
"1786 1255 LINE",
"1822 1358 LINE",
"1309 1358 LINE",
"1273 1255 LINE"
);
}
);
width = 1507;
},
{
anchors = (
{
name = bottom;
position = "{569, 0}";
},
{
name = ogonek;
position = "{980, 91}";
},
{
name = top;
position = "{1068, 1363}";
},
{
name = topright;
position = "{1845, 1363}";
}
);
layerId = "5006D1C8-6490-4B45-8DF5-310CA26D976E";
paths = (
{
closed = 1;
nodes = (
"801 -27 OFFCURVE",
"1019 76 OFFCURVE",
"1164 254 CURVE SMOOTH",
"1232 337 OFFCURVE",
"1293 502 OFFCURVE",
"1376 728 CURVE SMOOTH",
"1597 1331 LINE",
"1522 1331 LINE",
"1213 485 LINE SMOOTH",
"1095 161 OFFCURVE",
"875 32 OFFCURVE",
"600 32 CURVE SMOOTH",
"467 32 OFFCURVE",
"310 55 OFFCURVE",
"310 262 CURVE SMOOTH",
"310 342 OFFCURVE",
"326 437 OFFCURVE",
"365 542 CURVE SMOOTH",
"655 1331 LINE",
"547 1331 LINE",
"256 538 LINE SMOOTH",
"212 418 OFFCURVE",
"189 301 OFFCURVE",
"189 211 CURVE SMOOTH",
"189 121 OFFCURVE",
"221 79 OFFCURVE",
"262 48 CURVE SMOOTH",
"322 3 OFFCURVE",
"416 -27 OFFCURVE",
"552 -27 CURVE SMOOTH"
);
},
{
closed = 1;
nodes = (
"852 1293 LINE",
"876 1358 LINE",
"353 1358 LINE",
"329 1293 LINE"
);
},
{
closed = 1;
nodes = (
"1776 1293 LINE",
"1800 1358 LINE",
"1305 1358 LINE",
"1281 1293 LINE"
);
}
);
width = 1504;
},
{
anchors = (
{
name = bottom;
position = "{550, 0}";
},
{
name = ogonek;
position = "{935, 92}";
},
{
name = top;
position = "{1030, 1363}";
},
{
name = topright;
position = "{1757, 1363}";
}
);
hints = (
{
horizontal = 1;
origin = "{0, 29}";
type = Anchor;
},
{
horizontal = 1;
origin = "{0, 29}";
target = "{0, 11}";
type = TTStem;
options = 4;
},
{
horizontal = 1;
origin = "{1, 2}";
type = Anchor;
},
{
horizontal = 1;
origin = "{1, 2}";
target = "{1, 3}";
type = TTStem;
options = 4;
},
{
horizontal = 1;
origin = "{1, 2}";
target = "{2, 2}";
type = Align;
options = 4;
},
{
horizontal = 1;
origin = "{1, 3}";
target = "{2, 3}";
type = Align;
options = 4;
},
{
horizontal = 1;
origin = "{1, 2}";
target = "{1, 3}";
other1 = "{0, 19}";
type = Interpolate;
options = 4;
},
{
horizontal = 1;
origin = "{0, 19}";
target = "{0, 7}";
type = Align;
options = 4;
}
);
layerId = "87470B05-E19F-4BE8-998C-E64C1608970F";
paths = (
{
closed = 1;
nodes = (
"770 -27 OFFCURVE",
"972 79 OFFCURVE",
"1108 254 CURVE SMOOTH",
"1180 347 OFFCURVE",
"1247 539 OFFCURVE",
"1311 728 CURVE SMOOTH",
"1517 1332 LINE",
"1450 1332 LINE",
"1158 485 LINE SMOOTH",
"1048 166 OFFCURVE",
"842 32 OFFCURVE",
"579 32 CURVE SMOOTH",
"433 32 OFFCURVE",
"306 83 OFFCURVE",
"306 274 CURVE SMOOTH",
"306 347 OFFCURVE",
"329 445 OFFCURVE",
"363 542 CURVE SMOOTH",
"643 1332 LINE",
"546 1332 LINE",
"265 538 LINE SMOOTH",
"225 425 OFFCURVE",
"195 311 OFFCURVE",
"195 224 CURVE SMOOTH",
"195 146 OFFCURVE",
"217 86 OFFCURVE",
"266 47 CURVE SMOOTH",
"321 3 OFFCURVE",
"407 -27 OFFCURVE",
"534 -27 CURVE SMOOTH"
);
},
{
closed = 1;
nodes = (
"829 1305 LINE",
"848 1358 LINE",
"360 1358 LINE",
"340 1305 LINE"
);
},
{
closed = 1;
nodes = (
"1694 1305 LINE",
"1714 1358 LINE",
"1251 1358 LINE",
"1231 1305 LINE"
);
}
);
width = 1398;
},
{
anchors = (
{
name = bottom;
position = "{570, 0}";
},
{
name = ogonek;
position = "{960, 85}";
},
{
name = top;
position = "{1051, 1363}";
},
{
name = topright;
position = "{1680, 1363}";
}
);
layerId = "945CD315-E705-4656-B029-92F168859E1E";
paths = (
{
closed = 1;
nodes = (
"773 -27 OFFCURVE",
"980 47 OFFCURVE",
"1125 243 CURVE SMOOTH",
"1208 355 OFFCURVE",
"1286 538 OFFCURVE",
"1359 738 CURVE SMOOTH",
"1568 1312 LINE",
"1402 1312 LINE",
"1105 502 LINE SMOOTH",
"1018 264 OFFCURVE",
"886 75 OFFCURVE",
"616 75 CURVE SMOOTH",
"466 75 OFFCURVE",
"410 134 OFFCURVE",
"410 246 CURVE SMOOTH",
"410 327 OFFCURVE",
"436 433 OFFCURVE",
"474 538 CURVE SMOOTH",
"757 1312 LINE",
"498 1312 LINE",
"217 545 LINE SMOOTH",
"172 422 OFFCURVE",
"150 324 OFFCURVE",
"150 251 CURVE SMOOTH",
"150 151 OFFCURVE",
"185 91 OFFCURVE",
"264 40 CURVE SMOOTH",
"324 1 OFFCURVE",
"432 -27 OFFCURVE",
"551 -27 CURVE SMOOTH"
);
},
{
closed = 1;
nodes = (
"887 1263 LINE",
"920 1358 LINE",
"350 1358 LINE",
"317 1263 LINE"
);
},
{
closed = 1;
nodes = (
"1691 1263 LINE",
"1724 1358 LINE",
"1244 1358 LINE",
"1211 1263 LINE"
);
}
);
width = 1398;
}
);
leftKerningGroup = U;
note = U;
rightKerningGroup = U;
unicode = 0055;
},
{
glyphname = V;
lastChange = "2019-06-22 14:11:28 +0000";
layers = (
{
anchors = (
{
name = bottom;
position = "{136, 0}";
},
{
name = top;
position = "{1104, 1363}";
}
);
guideLines = (
{
position = "{850, 1314}";
}
);
layerId = "9207B417-A6D7-41AF-BE7C-4506B089B767";
leftMetricsKey = "=H+29";
paths = (
{
closed = 1;
nodes = (
"116 -39 LINE",
"377 186 LINE",
"1591 1311 LINE",
"1416 1311 LINE",
"386 322 LINE",
"469 348 LINE",
"825 1311 LINE",
"514 1311 LINE",
"17 -39 LINE"
);
},
{
closed = 1;
nodes = (
"973 1255 LINE",
"1009 1358 LINE",
"395 1358 LINE",
"359 1255 LINE"
);
},
{
closed = 1;
nodes = (
"1703 1255 LINE",
"1738 1358 LINE",
"1227 1358 LINE",
"1191 1255 LINE"
);
}
);
width = 1393;
},
{
anchors = (
{
name = bottom;
position = "{33, 0}";
},
{
name = top;
position = "{1034, 1358}";
}
);
layerId = "5006D1C8-6490-4B45-8DF5-310CA26D976E";
paths = (
{
closed = 1;
nodes = (
"34 -38 LINE",
"200 73 LINE",
"1577 1334 LINE",
"1473 1334 LINE",
"160 91 LINE",
"183 96 LINE",
"660 1334 LINE",
"536 1334 LINE",
"8 -38 LINE"
);
},
{
closed = 1;
nodes = (
"813 1305 LINE",
"835 1358 LINE",
"350 1358 LINE",
"328 1305 LINE"
);
},
{
closed = 1;
nodes = (
"1686 1305 LINE",
"1709 1358 LINE",
"1246 1358 LINE",
"1225 1305 LINE"
);
}
);
width = 1384;
},
{
anchors = (
{
name = bottom;
position = "{26, 0}";
},
{
name = top;
position = "{1007, 1363}";
}
);
hints = (
{
horizontal = 1;
origin = "{1, 2}";
type = Anchor;
},
{
horizontal = 1;
origin = "{1, 2}";
target = "{1, 3}";
type = TTStem;
options = 4;
},
{
horizontal = 1;
origin = "{1, 2}";
target = "{2, 2}";
type = Align;
options = 4;
},
{
horizontal = 1;
origin = "{1, 3}";
target = "{2, 3}";
type = Align;
options = 4;
},
{
horizontal = 1;
origin = "{0, 8}";
type = Anchor;
},
{
horizontal = 1;
origin = "{1, 2}";
target = "{1, 3}";
other1 = "{0, 7}";
type = Interpolate;
options = 4;
},
{
horizontal = 1;
origin = "{0, 7}";
target = "{0, 3}";
type = Align;
options = 4;
}
);
layerId = "87470B05-E19F-4BE8-998C-E64C1608970F";
paths = (
{
closed = 1;
nodes = (
"28 -38 LINE",
"211 72 LINE",
"1591 1334 LINE",
"1494 1334 LINE",
"232 142 LINE",
"189 139 LINE",
"675 1334 LINE",
"563 1334 LINE",
"4 -38 LINE"
);
},
{
closed = 1;
nodes = (
"797 1305 LINE",
"817 1358 LINE",
"359 1358 LINE",
"339 1305 LINE"
);
},
{
closed = 1;
nodes = (
"1685 1305 LINE",
"1706 1358 LINE",
"1257 1358 LINE",
"1237 1305 LINE"
);
}
);
width = 1369;
},
{
anchors = (
{
name = bottom;
position = "{81, 0}";
},
{
name = top;
position = "{1056, 1363}";
}
);
layerId = "945CD315-E705-4656-B029-92F168859E1E";
paths = (
{
closed = 1;
nodes = (
"65 -39 LINE",
"314 167 LINE",
"1562 1315 LINE",
"1399 1315 LINE",
"324 292 LINE",
"387 313 LINE",
"764 1315 LINE",
"484 1315 LINE",
"-23 -39 LINE"
);
},
{
closed = 1;
nodes = (
"911 1263 LINE",
"944 1358 LINE",
"350 1358 LINE",
"317 1263 LINE"
);
},
{
closed = 1;
nodes = (
"1672 1263 LINE",
"1705 1358 LINE",
"1201 1358 LINE",
"1168 1263 LINE"
);
}
);
width = 1369;
}
);
leftKerningGroup = V;
leftMetricsKey = "=H*0.66";
note = V;
rightKerningGroup = V;
unicode = 0056;
},
{
glyphname = W;
lastChange = "2019-06-22 18:53:28 +0000";
layers = (
{
anchors = (
{
name = bottom;
position = "{646, 0}";
},
{
name = top;
position = "{1407, 1363}";
}
);
guideLines = (
{
position = "{2238, 1315}";
}
);
layerId = "9207B417-A6D7-41AF-BE7C-4506B089B767";
paths = (
{
closed = 1;
nodes = (
"993 -29 LINE",
"2204 1312 LINE",
"2028 1312 LINE",
"1110 244 LINE",
"1200 242 LINE",
"1485 1312 LINE",
"1172 1312 LINE",
"815 -29 LINE"
);
},
{
closed = 1;
nodes = (
"324 -29 LINE",
"1248 833 LINE",
"1272 1012 LINE",
"442 229 LINE",
"520 217 LINE",
"801 1312 LINE",
"488 1312 LINE",
"146 -29 LINE"
);
},
{
closed = 1;
nodes = (
"932 1255 LINE",
"968 1358 LINE",
"395 1358 LINE",
"359 1255 LINE"
);
},
{
closed = 1;
nodes = (
"1621 1255 LINE",
"1657 1358 LINE",
"1101 1358 LINE",
"1065 1255 LINE"
);
},
{
closed = 1;
nodes = (
"2311 1255 LINE",
"2347 1358 LINE",
"1877 1358 LINE",
"1841 1255 LINE"
);
}
);
width = 2001;
},
{
anchors = (
{
name = bottom;
position = "{299, 0}";
},
{
name = top;
position = "{1236, 1363}";
}
);
layerId = "5006D1C8-6490-4B45-8DF5-310CA26D976E";
paths = (
{
closed = 1;
nodes = (
"824 -29 LINE",
"2101 1334 LINE",
"2012 1334 LINE",
"947 181 LINE",
"983 193 LINE",
"1291 1334 LINE",
"1184 1334 LINE",
"816 -29 LINE"
);
},
{
closed = 1;
nodes = (
"32 -29 LINE",
"1129 915 LINE",
"1103 982 LINE",
"189 164 LINE",
"210 165 LINE",
"631 1334 LINE",
"524 1334 LINE",
"33 -29 LINE"
);
},
{
closed = 1;
nodes = (
"745 1305 LINE",
"766 1358 LINE",
"350 1358 LINE",
"328 1305 LINE"
);
},
{
closed = 1;
nodes = (
"1447 1305 LINE",
"1470 1358 LINE",
"1064 1358 LINE",
"1044 1305 LINE"
);
},
{
closed = 1;
nodes = (
"2189 1305 LINE",
"2211 1358 LINE",
"1843 1358 LINE",
"1821 1305 LINE"
);
}
);
width = 1886;
},
{
anchors = (
{
name = bottom;
position = "{468, 0}";
},
{
name = top;
position = "{1197, 1363}";
}
);
hints = (
{
horizontal = 1;
origin = "{2, 2}";
type = Anchor;
},
{
horizontal = 1;
origin = "{2, 2}";
target = "{3, 2}";
type = Align;
options = 4;
},
{
horizontal = 1;
origin = "{2, 2}";
target = "{4, 2}";
type = Align;
options = 4;
},
{
horizontal = 1;
origin = "{2, 2}";
target = "{2, 3}";
type = TTStem;
options = 4;
},
{
horizontal = 1;
origin = "{2, 3}";
target = "{3, 3}";
type = Align;
options = 4;
},
{
horizontal = 1;
origin = "{2, 3}";
target = "{4, 3}";
type = Align;
options = 4;
},
{
horizontal = 1;
origin = "{1, 7}";
type = Anchor;
},
{
horizontal = 1;
origin = "{1, 7}";
target = "{0, 7}";
type = Align;
options = 4;
},
{
horizontal = 1;
origin = "{2, 2}";
target = "{2, 3}";
other1 = "{1, 6}";
type = Interpolate;
options = 4;
},
{
horizontal = 1;
origin = "{1, 6}";
target = "{0, 6}";
type = Align;
options = 4;
},
{
horizontal = 1;
origin = "{1, 6}";
target = "{0, 2}";
type = Align;
options = 4;
}
);
layerId = "87470B05-E19F-4BE8-998C-E64C1608970F";
paths = (
{
closed = 1;
nodes = (
"796 -29 LINE",
"1988 1334 LINE",
"1907 1334 LINE",
"911 180 LINE",
"944 193 LINE",
"1231 1334 LINE",
"1134 1334 LINE",
"792 -29 LINE"
);
},
{
closed = 1;
nodes = (
"56 -29 LINE",
"1081 916 LINE",
"1056 982 LINE",
"203 163 LINE",
"222 165 LINE",
"620 1334 LINE",
"524 1334 LINE",
"60 -29 LINE"
);
},
{
closed = 1;
nodes = (
"722 1305 LINE",
"742 1358 LINE",
"358 1358 LINE",
"339 1305 LINE"
);
},
{
closed = 1;
nodes = (
"1377 1305 LINE",
"1398 1358 LINE",
"1023 1358 LINE",
"1003 1305 LINE"
);
},
{
closed = 1;
nodes = (
"2069 1305 LINE",
"2089 1358 LINE",
"1747 1358 LINE",
"1727 1305 LINE"
);
}
);
width = 1752;
},
{
anchors = (
{
name = bottom;
position = "{481, 0}";
},
{
name = top;
position = "{1179, 1358}";
}
);
layerId = "945CD315-E705-4656-B029-92F168859E1E";
paths = (
{
closed = 1;
nodes = (
"822 -29 LINE",
"1964 1316 LINE",
"1817 1316 LINE",
"936 233 LINE",
"1010 234 LINE",
"1305 1316 LINE",
"1053 1316 LINE",
"685 -29 LINE"
);
},
{
closed = 1;
nodes = (
"206 -29 LINE",
"1086 847 LINE",
"1106 1007 LINE",
"325 218 LINE",
"386 208 LINE",
"696 1316 LINE",
"443 1316 LINE",
"70 -29 LINE"
);
},
{
closed = 1;
nodes = (
"808 1263 LINE",
"842 1358 LINE",
"350 1358 LINE",
"317 1263 LINE"
);
},
{
closed = 1;
nodes = (
"1428 1263 LINE",
"1461 1358 LINE",
"984 1358 LINE",
"951 1263 LINE"
);
},
{
closed = 1;
nodes = (
"2055 1263 LINE",
"2088 1358 LINE",
"1681 1358 LINE",
"1647 1263 LINE"
);
}
);
width = 1752;
}
);
leftKerningGroup = W;
leftMetricsKey = V;
note = W;
rightKerningGroup = V;
rightMetricsKey = V;
unicode = 0057;
},
{
glyphname = X;
lastChange = "2019-06-22 14:11:28 +0000";
layers = (
{
anchors = (
{
name = bottom;
position = "{591, 0}";
},
{
name = top;
position = "{1077, 1363}";
}
);
guideLines = (
{
position = "{1571, 1315}";
},
{
position = "{1106, 50}";
}
);
layerId = "9207B417-A6D7-41AF-BE7C-4506B089B767";
paths = (
{
closed = 1;
nodes = (
"838 781 LINE",
"83 53 LINE",
"295 53 LINE",
"892 651 LINE"
);
},
{
closed = 1;
nodes = (
"1256 53 LINE",
"784 1312 LINE",
"470 1312 LINE",
"943 53 LINE"
);
},
{
closed = 1;
nodes = (
"970 1255 LINE",
"1006 1358 LINE",
"373 1358 LINE",
"337 1255 LINE"
);
},
{
closed = 1;
nodes = (
"1625 1255 LINE",
"1661 1358 LINE",
"1178 1358 LINE",
"1142 1255 LINE"
);
},
{
closed = 1;
nodes = (
"500 0 LINE",
"535 102 LINE",
"-7 102 LINE",
"-43 0 LINE"
);
},
{
closed = 1;
nodes = (
"1359 0 LINE",
"1395 102 LINE",
"804 102 LINE",
"768 0 LINE"
);
},
{
closed = 1;
nodes = (
"872 651 LINE",
"1550 1312 LINE",
"1349 1312 LINE",
"818 781 LINE"
);
}
);
width = 1494;
},
{
anchors = (
{
name = bottom;
position = "{552, 0}";
},
{
name = top;
position = "{1028, 1363}";
}
);
layerId = "5006D1C8-6490-4B45-8DF5-310CA26D976E";
paths = (
{
closed = 1;
nodes = (
"831 778 LINE",
"32 28 LINE",
"126 28 LINE",
"853 728 LINE"
);
},
{
closed = 1;
nodes = (
"1170 28 LINE",
"641 1334 LINE",
"541 1334 LINE",
"1070 28 LINE"
);
},
{
closed = 1;
nodes = (
"836 1293 LINE",
"861 1358 LINE",
"355 1358 LINE",
"331 1293 LINE"
);
},
{
closed = 1;
nodes = (
"1574 1293 LINE",
"1598 1358 LINE",
"1187 1358 LINE",
"1162 1293 LINE"
);
},
{
closed = 1;
nodes = (
"427 0 LINE",
"452 65 LINE",
"-56 65 LINE",
"-80 0 LINE"
);
},
{
closed = 1;
nodes = (
"1327 0 LINE",
"1350 65 LINE",
"839 65 LINE",
"814 0 LINE"
);
},
{
closed = 1;
nodes = (
"833 728 LINE",
"1478 1334 LINE",
"1385 1334 LINE",
"811 778 LINE"
);
}
);
width = 1468;
},
{
anchors = (
{
name = bottom;
position = "{532, 0}";
},
{
name = top;
position = "{979, 1363}";
}
);
hints = (
{
horizontal = 1;
origin = "{4, 3}";
type = Anchor;
},
{
horizontal = 1;
origin = "{0, 1}";
target = "{5, 3}";
type = Align;
options = 4;
},
{
horizontal = 1;
origin = "{4, 3}";
target = "{4, 2}";
type = TTStem;
options = 4;
},
{
horizontal = 1;
origin = "{4, 2}";
target = "{5, 2}";
type = Align;
options = 4;
},
{
horizontal = 1;
origin = "{2, 2}";
type = Anchor;
},
{
horizontal = 1;
origin = "{2, 2}";
target = "{3, 2}";
type = Align;
options = 4;
},
{
horizontal = 1;
origin = "{2, 2}";
target = "{2, 3}";
type = TTStem;
options = 4;
},
{
horizontal = 1;
origin = "{2, 3}";
target = "{3, 3}";
type = Align;
options = 4;
},
{
horizontal = 1;
origin = "{0, 1}";
target = "{2, 2}";
other1 = "{0, 3}";
type = Interpolate;
options = 4;
},
{
horizontal = 1;
origin = "{0, 3}";
target = "{6, 0}";
type = Align;
options = 4;
},
{
horizontal = 1;
origin = "{0, 3}";
target = "{6, 3}";
type = TTStem;
options = 4;
},
{
horizontal = 1;
origin = "{6, 3}";
target = "{0, 0}";
type = Align;
options = 4;
},
{
horizontal = 1;
origin = "{2, 2}";
target = "{2, 3}";
other1 = "{1, 2}";
type = Interpolate;
options = 4;
},
{
horizontal = 1;
origin = "{1, 2}";
target = "{6, 2}";
type = Align;
options = 4;
},
{
horizontal = 1;
origin = "{4, 3}";
target = "{4, 2}";
other1 = "{0, 1}";
type = Interpolate;
options = 4;
},
{
horizontal = 1;
origin = "{0, 1}";
target = "{1, 3}";
type = Align;
options = 4;
}
);
layerId = "87470B05-E19F-4BE8-998C-E64C1608970F";
paths = (
{
closed = 1;
nodes = (
"772 771 LINE",
"-9 27 LINE",
"80 27 LINE",
"790 722 LINE"
);
},
{
closed = 1;
nodes = (
"1104 27 LINE",
"605 1334 LINE",
"514 1334 LINE",
"1013 27 LINE"
);
},
{
closed = 1;
nodes = (
"804 1305 LINE",
"825 1358 LINE",
"305 1358 LINE",
"284 1305 LINE"
);
},
{
closed = 1;
nodes = (
"1517 1305 LINE",
"1537 1358 LINE",
"1104 1358 LINE",
"1084 1305 LINE"
);
},
{
closed = 1;
nodes = (
"410 0 LINE",
"431 53 LINE",
"-67 53 LINE",
"-87 0 LINE"
);
},
{
closed = 1;
nodes = (
"1256 0 LINE",
"1276 53 LINE",
"779 53 LINE",
"758 0 LINE"
);
},
{
closed = 1;
nodes = (
"770 722 LINE",
"1417 1334 LINE",
"1327 1334 LINE",
"752 771 LINE"
);
}
);
width = 1388;
},
{
anchors = (
{
name = bottom;
position = "{539, 0}";
},
{
name = top;
position = "{1018, 1363}";
}
);
layerId = "945CD315-E705-4656-B029-92F168859E1E";
paths = (
{
closed = 1;
nodes = (
"759 779 LINE",
"5 49 LINE",
"195 49 LINE",
"807 663 LINE"
);
},
{
closed = 1;
nodes = (
"1158 49 LINE",
"690 1316 LINE",
"416 1316 LINE",
"884 49 LINE"
);
},
{
closed = 1;
nodes = (
"876 1263 LINE",
"909 1358 LINE",
"300 1358 LINE",
"267 1263 LINE"
);
},
{
closed = 1;
nodes = (
"1534 1263 LINE",
"1568 1358 LINE",
"1098 1358 LINE",
"1065 1263 LINE"
);
},
{
closed = 1;
nodes = (
"418 0 LINE",
"451 94 LINE",
"-79 94 LINE",
"-112 0 LINE"
);
},
{
closed = 1;
nodes = (
"1268 0 LINE",
"1301 94 LINE",
"731 94 LINE",
"698 0 LINE"
);
},
{
closed = 1;
nodes = (
"787 663 LINE",
"1457 1316 LINE",
"1276 1316 LINE",
"740 779 LINE"
);
}
);
width = 1388;
}
);
leftKerningGroup = X;
note = X;
rightKerningGroup = X;
unicode = 0058;
},
{
glyphname = Y;
lastChange = "2019-06-22 14:11:28 +0000";
layers = (
{
anchors = (
{
name = bottom;
position = "{574, 0}";
},
{
name = top;
position = "{1102, 1363}";
},
{
name = topleft;
position = "{349, 1363}";
}
);
guideLines = (
{
position = "{793, 50}";
},
{
position = "{824, 1315}";
}
);
layerId = "9207B417-A6D7-41AF-BE7C-4506B089B767";
paths = (
{
closed = 1;
nodes = (
"717 53 LINE",
"944 665 LINE",
"892 587 LINE",
"1694 1313 LINE",
"1498 1313 LINE",
"837 710 LINE",
"905 691 LINE",
"736 1313 LINE",
"423 1313 LINE",
"629 548 LINE",
"625 623 LINE",
"423 53 LINE"
);
},
{
closed = 1;
nodes = (
"869 1255 LINE",
"905 1358 LINE",
"359 1358 LINE",
"323 1255 LINE"
);
},
{
closed = 1;
nodes = (
"1750 1255 LINE",
"1786 1358 LINE",
"1311 1358 LINE",
"1275 1255 LINE"
);
},
{
closed = 1;
nodes = (
"895 0 LINE",
"931 102 LINE",
"279 102 LINE",
"243 0 LINE"
);
}
);
width = 1469;
},
{
anchors = (
{
name = bottom;
position = "{516, 0}";
},
{
name = top;
position = "{1010, 1363}";
},
{
name = topleft;
position = "{345, 1363}";
}
);
layerId = "5006D1C8-6490-4B45-8DF5-310CA26D976E";
paths = (
{
closed = 1;
nodes = (
"585 28 LINE",
"802 628 LINE",
"748 549 LINE",
"1568 1332 LINE",
"1492 1332 LINE",
"707 578 LINE",
"772 593 LINE",
"573 1332 LINE",
"473 1332 LINE",
"696 503 LINE",
"693 627 LINE",
"474 28 LINE"
);
},
{
closed = 1;
nodes = (
"769 1293 LINE",
"794 1358 LINE",
"346 1358 LINE",
"322 1293 LINE"
);
},
{
closed = 1;
nodes = (
"1666 1293 LINE",
"1691 1358 LINE",
"1287 1358 LINE",
"1263 1293 LINE"
);
},
{
closed = 1;
nodes = (
"797 0 LINE",
"821 65 LINE",
"299 65 LINE",
"275 0 LINE"
);
}
);
width = 1392;
},
{
anchors = (
{
name = bottom;
position = "{509, 0}";
},
{
name = top;
position = "{983, 1363}";
},
{
name = topleft;
position = "{362, 1363}";
}
);
hints = (
{
horizontal = 1;
origin = "{3, 3}";
type = Anchor;
},
{
horizontal = 1;
origin = "{3, 3}";
target = "{3, 2}";
type = TTStem;
options = 4;
},
{
horizontal = 1;
origin = "{1, 2}";
type = Anchor;
},
{
horizontal = 1;
origin = "{1, 2}";
target = "{2, 2}";
type = Align;
options = 4;
},
{
horizontal = 1;
origin = "{1, 2}";
target = "{1, 3}";
type = TTStem;
options = 4;
},
{
horizontal = 1;
origin = "{1, 3}";
target = "{2, 3}";
type = Align;
options = 4;
},
{
horizontal = 1;
origin = "{1, 2}";
target = "{1, 3}";
other1 = "{0, 8}";
type = Interpolate;
options = 4;
},
{
horizontal = 1;
origin = "{0, 8}";
target = "{0, 4}";
type = Align;
options = 4;
},
{
horizontal = 1;
origin = "{3, 3}";
target = "{3, 2}";
other1 = "{0, 11}";
type = Interpolate;
options = 4;
}
);
layerId = "87470B05-E19F-4BE8-998C-E64C1608970F";
paths = (
{
closed = 1;
nodes = (
"571 27 LINE",
"781 628 LINE",
"730 549 LINE",
"1503 1332 LINE",
"1434 1332 LINE",
"699 585 LINE",
"751 599 LINE",
"572 1332 LINE",
"481 1332 LINE",
"684 502 LINE",
"692 653 LINE",
"471 27 LINE"
);
},
{
closed = 1;
nodes = (
"756 1305 LINE",
"777 1358 LINE",
"360 1358 LINE",
"340 1305 LINE"
);
},
{
closed = 1;
nodes = (
"1607 1305 LINE",
"1628 1358 LINE",
"1253 1358 LINE",
"1233 1305 LINE"
);
},
{
closed = 1;
nodes = (
"768 0 LINE",
"788 53 LINE",
"304 53 LINE",
"284 0 LINE"
);
}
);
width = 1312;
},
{
anchors = (
{
name = bottom;
position = "{509, 0}";
},
{
name = top;
position = "{1026, 1363}";
},
{
name = topleft;
position = "{350, 1363}";
}
);
layerId = "945CD315-E705-4656-B029-92F168859E1E";
paths = (
{
closed = 1;
nodes = (
"619 49 LINE",
"843 659 LINE",
"793 581 LINE",
"1546 1316 LINE",
"1385 1316 LINE",
"749 689 LINE",
"810 676 LINE",
"673 1316 LINE",
"417 1316 LINE",
"581 540 LINE",
"582 628 LINE",
"377 49 LINE"
);
},
{
closed = 1;
nodes = (
"802 1263 LINE",
"836 1358 LINE",
"350 1358 LINE",
"317 1263 LINE"
);
},
{
closed = 1;
nodes = (
"1603 1263 LINE",
"1638 1358 LINE",
"1214 1358 LINE",
"1180 1263 LINE"
);
},
{
closed = 1;
nodes = (
"785 0 LINE",
"818 94 LINE",
"241 94 LINE",
"208 0 LINE"
);
}
);
width = 1312;
}
);
leftKerningGroup = Y;
note = Y;
rightKerningGroup = Y;
unicode = 0059;
},
{
glyphname = Z;
lastChange = "2019-06-22 14:11:28 +0000";
layers = (
{
anchors = (
{
name = bottom;
position = "{537, 0}";
},
{
name = center;
position = "{782, 697}";
},
{
name = top;
position = "{1018, 1363}";
}
);
layerId = "9207B417-A6D7-41AF-BE7C-4506B089B767";
paths = (
{
closed = 1;
nodes = (
"1131 2 LINE",
"1165 113 OFFCURVE",
"1227 253 OFFCURVE",
"1293 338 CURVE",
"1181 375 LINE",
"1110 242 OFFCURVE",
"959 116 OFFCURVE",
"915 113 CURVE SMOOTH",
"784 105 OFFCURVE",
"559 101 OFFCURVE",
"311 101 CURVE",
"319 117 LINE",
"1623 1309 LINE",
"1635 1358 LINE",
"635 1358 LINE",
"598 1358 OFFCURVE",
"535 1367 OFFCURVE",
"495 1379 CURVE",
"452 1345 LINE",
"419 1259 OFFCURVE",
"358 1111 OFFCURVE",
"295 989 CURVE",
"418 970 LINE",
"465 1051 OFFCURVE",
"628 1259 OFFCURVE",
"708 1259 CURVE SMOOTH",
"1234 1259 LINE",
"1225 1240 LINE",
"-125 49 LINE",
"-138 0 LINE",
"716 0 LINE SMOOTH",
"872 0 OFFCURVE",
"1043 -13 OFFCURVE",
"1096 -33 CURVE"
);
}
);
width = 1346;
},
{
anchors = (
{
name = bottom;
position = "{448, 0}";
},
{
name = center;
position = "{713, 697}";
},
{
name = top;
position = "{949, 1363}";
}
);
layerId = "5006D1C8-6490-4B45-8DF5-310CA26D976E";
paths = (
{
closed = 1;
nodes = (
"1016 -20 LINE",
"1042 50 OFFCURVE",
"1105 170 OFFCURVE",
"1197 331 CURVE",
"1136 338 LINE",
"1112 305 OFFCURVE",
"932 66 OFFCURVE",
"808 65 CURVE SMOOTH",
"658 65 OFFCURVE",
"407 66 OFFCURVE",
"93 66 CURVE",
"93 82 LINE",
"1516 1340 LINE",
"1516 1358 LINE",
"652 1358 LINE",
"614 1358 OFFCURVE",
"538 1361 OFFCURVE",
"473 1366 CURVE",
"450 1350 LINE",
"418 1254 OFFCURVE",
"356 1127 OFFCURVE",
"283 989 CURVE",
"342 983 LINE",
"435 1124 OFFCURVE",
"578 1292 OFFCURVE",
"693 1292 CURVE SMOOTH",
"1310 1292 LINE",
"1310 1278 LINE",
"-128 19 LINE",
"-127 0 LINE",
"691 0 LINE SMOOTH",
"790 0 OFFCURVE",
"932 -7 OFFCURVE",
"998 -33 CURVE"
);
}
);
width = 1306;
},
{
anchors = (
{
name = bottom;
position = "{425, 0}";
},
{
name = center;
position = "{676, 697}";
},
{
name = top;
position = "{906, 1363}";
}
);
hints = (
{
horizontal = 1;
origin = "{0, 14}";
type = Anchor;
},
{
horizontal = 1;
origin = "{0, 14}";
target = "{0, 25}";
type = TTStem;
options = 4;
},
{
horizontal = 1;
origin = "{0, 31}";
type = Anchor;
},
{
horizontal = 1;
origin = "{0, 31}";
target = "{0, 9}";
type = TTStem;
options = 4;
}
);
layerId = "87470B05-E19F-4BE8-998C-E64C1608970F";
paths = (
{
closed = 1;
nodes = (
"953 -20 LINE",
"980 52 OFFCURVE",
"1035 163 OFFCURVE",
"1127 330 CURVE",
"1095 338 LINE",
"1074 306 OFFCURVE",
"904 80 OFFCURVE",
"785 72 CURVE SMOOTH",
"645 63 OFFCURVE",
"360 59 OFFCURVE",
"84 59 CURVE",
"92 82 LINE",
"1435 1340 LINE",
"1442 1358 LINE",
"629 1358 LINE",
"602 1358 OFFCURVE",
"531 1360 OFFCURVE",
"463 1366 CURVE",
"441 1350 LINE",
"411 1258 OFFCURVE",
"356 1136 OFFCURVE",
"282 989 CURVE",
"312 983 LINE",
"400 1124 OFFCURVE",
"536 1301 OFFCURVE",
"644 1301 CURVE SMOOTH",
"1252 1301 LINE",
"1244 1278 LINE",
"-112 19 LINE",
"-119 0 LINE",
"652 0 LINE SMOOTH",
"744 0 OFFCURVE",
"876 -7 OFFCURVE",
"936 -33 CURVE"
);
}
);
width = 1220;
},
{
anchors = (
{
name = bottom;
position = "{466, 0}";
},
{
name = center;
position = "{712, 697}";
},
{
name = top;
position = "{947, 1363}";
}
);
layerId = "945CD315-E705-4656-B029-92F168859E1E";
paths = (
{
closed = 1;
nodes = (
"1049 -2 LINE",
"1082 103 OFFCURVE",
"1144 238 OFFCURVE",
"1213 337 CURVE",
"1115 369 LINE",
"1052 253 OFFCURVE",
"897 110 OFFCURVE",
"841 106 CURVE SMOOTH",
"709 98 OFFCURVE",
"465 94 OFFCURVE",
"221 94 CURVE",
"229 111 LINE",
"1540 1314 LINE",
"1551 1358 LINE",
"582 1358 LINE",
"546 1358 OFFCURVE",
"482 1366 OFFCURVE",
"438 1377 CURVE",
"398 1346 LINE",
"365 1256 OFFCURVE",
"300 1104 OFFCURVE",
"241 989 CURVE",
"348 972 LINE",
"402 1063 OFFCURVE",
"561 1266 OFFCURVE",
"645 1266 CURVE SMOOTH",
"1185 1266 LINE",
"1176 1246 LINE",
"-175 44 LINE",
"-187 0 LINE",
"653 0 LINE SMOOTH",
"798 0 OFFCURVE",
"963 -12 OFFCURVE",
"1017 -33 CURVE"
);
}
);
width = 1220;
}
);
leftKerningGroup = Z;
note = Z;
rightKerningGroup = Z;
unicode = 005A;
},
{
glyphname = uni01F6;
lastChange = "2019-06-22 14:11:28 +0000";
layers = (
{
anchors = (
{
name = bottom;
position = "{756, 0}";
},
{
name = top;
position = "{1074, 1358}";
}
);
guideLines = (
{
position = "{707, 1315}";
},
{
position = "{305, 50}";
}
);
layerId = "9207B417-A6D7-41AF-BE7C-4506B089B767";
paths = (
{
closed = 1;
nodes = (
"1680 -21 OFFCURVE",
"1917 347 OFFCURVE",
"1917 612 CURVE SMOOTH",
"1917 764 OFFCURVE",
"1847 811 OFFCURVE",
"1730 811 CURVE SMOOTH",
"1669 811 OFFCURVE",
"1520 727 OFFCURVE",
"1496 686 CURVE",
"1572 661 OFFCURVE",
"1605 620 OFFCURVE",
"1605 544 CURVE SMOOTH",
"1605 484 OFFCURVE",
"1539 83 OFFCURVE",
"1266 83 CURVE SMOOTH",
"1215 83 OFFCURVE",
"1205 107 OFFCURVE",
"1205 163 CURVE SMOOTH",
"1205 193 OFFCURVE",
"1213 237 OFFCURVE",
"1224 268 CURVE SMOOTH",
"1604 1313 LINE",
"1298 1313 LINE",
"911 268 LINE SMOOTH",
"901 241 OFFCURVE",
"895 194 OFFCURVE",
"895 175 CURVE SMOOTH",
"895 65 OFFCURVE",
"1028 -21 OFFCURVE",
"1237 -21 CURVE SMOOTH"
);
},
{
closed = 1;
nodes = (
"520 0 LINE",
"556 102 LINE",
"-91 102 LINE",
"-127 0 LINE"
);
},
{
closed = 1;
nodes = (
"371 53 LINE",
"827 1313 LINE",
"521 1313 LINE",
"55 53 LINE"
);
},
{
closed = 1;
nodes = (
"1238 658 LINE",
"1250 743 LINE",
"431 743 LINE",
"419 658 LINE"
);
},
{
closed = 1;
nodes = (
"974 1255 LINE",
"1010 1358 LINE",
"375 1358 LINE",
"339 1255 LINE"
);
},
{
closed = 1;
nodes = (
"1752 1255 LINE",
"1787 1358 LINE",
"1153 1358 LINE",
"1117 1255 LINE"
);
}
);
width = 1926;
},
{
anchors = (
{
name = bottom;
position = "{693, 0}";
},
{
name = top;
position = "{1013, 1358}";
}
);
layerId = "5006D1C8-6490-4B45-8DF5-310CA26D976E";
paths = (
{
closed = 1;
nodes = (
"1602 -21 OFFCURVE",
"1811 346 OFFCURVE",
"1811 607 CURVE SMOOTH",
"1811 734 OFFCURVE",
"1772 811 OFFCURVE",
"1688 811 CURVE SMOOTH",
"1635 811 OFFCURVE",
"1568 755 OFFCURVE",
"1551 708 CURVE",
"1634 678 OFFCURVE",
"1684 625 OFFCURVE",
"1684 530 CURVE SMOOTH",
"1684 407 OFFCURVE",
"1516 27 OFFCURVE",
"1216 27 CURVE SMOOTH",
"1134 27 OFFCURVE",
"1038 55 OFFCURVE",
"1038 143 CURVE SMOOTH",
"1038 161 OFFCURVE",
"1042 180 OFFCURVE",
"1048 197 CURVE SMOOTH",
"1475 1332 LINE",
"1367 1332 LINE",
"943 199 LINE SMOOTH",
"934 174 OFFCURVE",
"929 146 OFFCURVE",
"929 127 CURVE SMOOTH",
"929 0 OFFCURVE",
"1070 -21 OFFCURVE",
"1199 -21 CURVE SMOOTH"
);
},
{
closed = 1;
nodes = (
"366 0 LINE",
"391 65 LINE",
"-108 65 LINE",
"-133 0 LINE"
);
},
{
closed = 1;
nodes = (
"168 28 LINE",
"659 1332 LINE",
"551 1332 LINE",
"62 28 LINE"
);
},
{
closed = 1;
nodes = (
"1171 667 LINE",
"1184 735 LINE",
"388 735 LINE",
"375 667 LINE"
);
},
{
closed = 1;
nodes = (
"835 1293 LINE",
"860 1358 LINE",
"361 1358 LINE",
"337 1293 LINE"
);
},
{
closed = 1;
nodes = (
"1651 1293 LINE",
"1676 1358 LINE",
"1176 1358 LINE",
"1152 1293 LINE"
);
}
);
width = 1920;
},
{
anchors = (
{
name = bottom;
position = "{700, 0}";
},
{
name = top;
position = "{990, 1358}";
}
);
hints = (
{
horizontal = 1;
origin = "{1, 3}";
type = Anchor;
},
{
horizontal = 1;
origin = "{1, 3}";
target = "{1, 2}";
type = TTStem;
options = 4;
},
{
horizontal = 1;
origin = "{4, 2}";
type = Anchor;
},
{
horizontal = 1;
origin = "{4, 2}";
target = "{4, 3}";
type = TTStem;
options = 4;
},
{
horizontal = 1;
origin = "{4, 2}";
target = "{5, 2}";
type = Align;
options = 4;
},
{
horizontal = 1;
origin = "{1, 3}";
target = "{4, 2}";
other1 = "{3, 3}";
type = Interpolate;
options = 4;
},
{
horizontal = 1;
origin = "{3, 3}";
target = "{3, 2}";
type = TTStem;
options = 4;
},
{
horizontal = 1;
origin = "{0, 5}";
type = Anchor;
},
{
horizontal = 1;
origin = "{1, 3}";
target = "{1, 2}";
other1 = "{2, 3}";
type = Interpolate;
options = 4;
},
{
horizontal = 1;
origin = "{4, 2}";
target = "{4, 3}";
other1 = "{2, 2}";
type = Interpolate;
options = 4;
},
{
horizontal = 1;
origin = "{2, 2}";
target = "{0, 22}";
type = Align;
options = 4;
}
);
layerId = "87470B05-E19F-4BE8-998C-E64C1608970F";
paths = (
{
closed = 1;
nodes = (
"1526 -21 OFFCURVE",
"1720 363 OFFCURVE",
"1720 613 CURVE SMOOTH",
"1720 717 OFFCURVE",
"1689 811 OFFCURVE",
"1605 811 CURVE SMOOTH",
"1553 811 OFFCURVE",
"1491 751 OFFCURVE",
"1477 708 CURVE",
"1558 677 OFFCURVE",
"1603 620 OFFCURVE",
"1603 531 CURVE SMOOTH",
"1603 431 OFFCURVE",
"1453 27 OFFCURVE",
"1157 27 CURVE SMOOTH",
"1072 27 OFFCURVE",
"991 59 OFFCURVE",
"991 145 CURVE SMOOTH",
"991 163 OFFCURVE",
"998 190 OFFCURVE",
"1004 208 CURVE SMOOTH",
"1396 1332 LINE",
"1299 1332 LINE",
"907 212 LINE SMOOTH",
"897 182 OFFCURVE",
"890 148 OFFCURVE",
"890 127 CURVE SMOOTH",
"890 15 OFFCURVE",
"999 -21 OFFCURVE",
"1140 -21 CURVE SMOOTH"
);
},
{
closed = 1;
nodes = (
"354 0 LINE",
"374 53 LINE",
"-87 53 LINE",
"-108 0 LINE"
);
},
{
closed = 1;
nodes = (
"180 27 LINE",
"639 1332 LINE",
"541 1332 LINE",
"84 27 LINE"
);
},
{
closed = 1;
nodes = (
"1118 668 LINE",
"1130 733 LINE",
"387 733 LINE",
"375 668 LINE"
);
},
{
closed = 1;
nodes = (
"814 1305 LINE",
"835 1358 LINE",
"368 1358 LINE",
"349 1305 LINE"
);
},
{
closed = 1;
nodes = (
"1572 1305 LINE",
"1593 1358 LINE",
"1125 1358 LINE",
"1106 1305 LINE"
);
}
);
width = 1796;
},
{
anchors = (
{
name = bottom;
position = "{681, 0}";
},
{
name = top;
position = "{1003, 1358}";
}
);
layerId = "945CD315-E705-4656-B029-92F168859E1E";
rightMetricsKey = "=60";
paths = (
{
closed = 1;
nodes = (
"1540 -21 OFFCURVE",
"1771 353 OFFCURVE",
"1771 621 CURVE SMOOTH",
"1771 758 OFFCURVE",
"1711 811 OFFCURVE",
"1608 811 CURVE SMOOTH",
"1552 811 OFFCURVE",
"1423 731 OFFCURVE",
"1401 690 CURVE",
"1472 664 OFFCURVE",
"1503 621 OFFCURVE",
"1503 547 CURVE SMOOTH",
"1503 476 OFFCURVE",
"1419 74 OFFCURVE",
"1157 74 CURVE SMOOTH",
"1105 74 OFFCURVE",
"1084 98 OFFCURVE",
"1084 155 CURVE SMOOTH",
"1084 185 OFFCURVE",
"1092 228 OFFCURVE",
"1103 258 CURVE SMOOTH",
"1485 1316 LINE",
"1228 1316 LINE",
"840 259 LINE SMOOTH",
"830 231 OFFCURVE",
"823 188 OFFCURVE",
"823 164 CURVE SMOOTH",
"823 56 OFFCURVE",
"944 -21 OFFCURVE",
"1130 -21 CURVE SMOOTH"
);
},
{
closed = 1;
nodes = (
"430 0 LINE",
"464 94 LINE",
"-104 94 LINE",
"-137 0 LINE"
);
},
{
closed = 1;
nodes = (
"295 49 LINE",
"753 1316 LINE",
"494 1316 LINE",
"30 49 LINE"
);
},
{
closed = 1;
nodes = (
"1140 660 LINE",
"1153 741 LINE",
"389 741 LINE",
"376 660 LINE"
);
},
{
closed = 1;
nodes = (
"886 1263 LINE",
"920 1358 LINE",
"361 1358 LINE",
"328 1263 LINE"
);
},
{
closed = 1;
nodes = (
"1621 1263 LINE",
"1654 1358 LINE",
"1095 1358 LINE",
"1061 1263 LINE"
);
}
);
width = 1796;
}
);
leftMetricsKey = H;
note = uni01F6;
rightMetricsKey = v;
unicode = 01F6;
},
{
glyphname = uni01F7;
lastChange = "2019-06-22 14:11:28 +0000";
layers = (
{
anchors = (
{
name = bottom;
position = "{764, 0}";
},
{
name = top;
position = "{950, 1358}";
}
);
layerId = "9207B417-A6D7-41AF-BE7C-4506B089B767";
paths = (
{
closed = 1;
nodes = (
"218 -334 LINE",
"276 -252 LINE",
"407 90 LINE",
"1573 1273 LINE",
"1521 1358 LINE",
"359 1358 LINE",
"323 1256 LINE",
"578 1256 LINE",
"546 1323 LINE",
"-39 -321 LINE",
"-214 -422 LINE",
"-142 -554 LINE"
);
},
{
closed = 1;
nodes = (
"850 1256 LINE",
"1355 1258 LINE",
"1369 1223 LINE",
"356 196 LINE",
"459 228 LINE"
);
}
);
width = 1271;
},
{
anchors = (
{
name = bottom;
position = "{553, 0}";
},
{
name = top;
position = "{872, 1358}";
}
);
layerId = "5006D1C8-6490-4B45-8DF5-310CA26D976E";
paths = (
{
closed = 1;
nodes = (
"-6 -361 LINE",
"35 -323 LINE",
"165 44 LINE",
"1454 1319 LINE",
"1442 1358 LINE",
"338 1358 LINE",
"315 1293 LINE",
"559 1293 LINE",
"530 1335 LINE",
"-71 -308 LINE",
"-291 -432 LINE",
"-265 -502 LINE"
);
},
{
closed = 1;
nodes = (
"622 1293 LINE",
"1311 1293 LINE",
"1324 1268 LINE",
"180 138 LINE",
"204 132 LINE"
);
}
);
width = 1164;
},
{
anchors = (
{
name = bottom;
position = "{542, 0}";
},
{
name = top;
position = "{872, 1358}";
}
);
hints = (
{
horizontal = 1;
origin = "{0, 5}";
type = Anchor;
},
{
horizontal = 1;
origin = "{0, 5}";
target = "{0, 6}";
type = TTStem;
options = 4;
},
{
horizontal = 1;
origin = "{0, 6}";
target = "{1, 0}";
type = Align;
options = 4;
}
);
layerId = "87470B05-E19F-4BE8-998C-E64C1608970F";
paths = (
{
closed = 1;
nodes = (
"13 -362 LINE",
"52 -323 LINE",
"178 43 LINE",
"1395 1320 LINE",
"1385 1358 LINE",
"352 1358 LINE",
"334 1305 LINE",
"560 1305 LINE",
"527 1313 LINE",
"-44 -308 LINE",
"-251 -432 LINE",
"-228 -502 LINE"
);
},
{
closed = 1;
nodes = (
"618 1305 LINE",
"1285 1305 LINE",
"1292 1281 LINE",
"196 134 LINE",
"203 120 LINE"
);
}
);
width = 1089;
},
{
anchors = (
{
name = bottom;
position = "{622, 0}";
},
{
name = top;
position = "{862, 1358}";
}
);
layerId = "945CD315-E705-4656-B029-92F168859E1E";
paths = (
{
closed = 1;
nodes = (
"125 -339 LINE",
"178 -264 LINE",
"307 82 LINE",
"1387 1281 LINE",
"1349 1358 LINE",
"346 1358 LINE",
"313 1264 LINE",
"536 1264 LINE",
"510 1321 LINE",
"-75 -319 LINE",
"-239 -424 LINE",
"-186 -545 LINE"
);
},
{
closed = 1;
nodes = (
"748 1264 LINE",
"1207 1266 LINE",
"1216 1233 LINE",
"276 186 LINE",
"355 210 LINE"
);
}
);
width = 1089;
}
);
unicode = 01F7;
},
{
glyphname = uniA732;
lastChange = "2019-06-22 14:11:28 +0000";
layers = (
{
anchors = (
{
name = bottom;
position = "{929, 0}";
},
{
name = top;
position = "{1888, 1363}";
}
);
guideLines = (
{
position = "{928, 50}";
}
);
layerId = "9207B417-A6D7-41AF-BE7C-4506B089B767";
paths = (
{
closed = 1;
nodes = (
"166 53 LINE",
"1317 1242 LINE",
"1230 1272 LINE",
"-7 53 LINE"
);
},
{
closed = 1;
nodes = (
"1044 53 LINE",
"1517 1179 LINE SMOOTH",
"1544 1243 OFFCURVE",
"1582 1321 OFFCURVE",
"1603 1367 CURVE",
"1584 1385 LINE",
"1189 1294 LINE",
"1180 1263 LINE",
"1221 1236 OFFCURVE",
"1243 1193 OFFCURVE",
"1175 1029 CURVE SMOOTH",
"765 53 LINE"
);
},
{
closed = 1;
nodes = (
"2139 1242 LINE",
"2052 1272 LINE",
"1038 270 LINE",
"989 53 LINE"
);
},
{
closed = 1;
nodes = (
"1868 53 LINE",
"2339 1179 LINE SMOOTH",
"2357 1222 OFFCURVE",
"2400 1313 OFFCURVE",
"2425 1367 CURVE",
"2406 1385 LINE",
"2011 1294 LINE",
"2002 1263 LINE",
"2045 1234 OFFCURVE",
"2064 1191 OFFCURVE",
"1997 1029 CURVE SMOOTH",
"1588 53 LINE"
);
},
{
closed = 1;
nodes = (
"359 0 LINE",
"395 102 LINE",
"-106 102 LINE",
"-142 0 LINE"
);
},
{
closed = 1;
nodes = (
"1215 0 LINE",
"1251 102 LINE",
"650 102 LINE",
"614 0 LINE"
);
},
{
closed = 1;
nodes = (
"1016 437 LINE",
"1058 539 LINE",
"593 570 LINE",
"529 470 LINE"
);
},
{
closed = 1;
nodes = (
"2038 0 LINE",
"2073 102 LINE",
"1473 102 LINE",
"1437 0 LINE"
);
},
{
closed = 1;
nodes = (
"1838 437 LINE",
"1880 539 LINE",
"1415 570 LINE",
"1351 470 LINE"
);
}
);
width = 2215;
},
{
anchors = (
{
name = bottom;
position = "{753, 0}";
},
{
name = top;
position = "{1551, 1358}";
}
);
layerId = "5006D1C8-6490-4B45-8DF5-310CA26D976E";
paths = (
{
closed = 1;
nodes = (
"32 28 LINE",
"1234 1272 LINE",
"1176 1272 LINE",
"-86 28 LINE"
);
},
{
closed = 1;
nodes = (
"787 28 LINE",
"1270 1179 LINE SMOOTH",
"1289 1225 OFFCURVE",
"1334 1321 OFFCURVE",
"1355 1367 CURVE",
"1336 1385 LINE",
"1135 1294 LINE",
"1126 1263 LINE",
"1168 1234 OFFCURVE",
"1188 1189 OFFCURVE",
"1121 1029 CURVE SMOOTH",
"700 28 LINE"
);
},
{
closed = 1;
nodes = (
"1904 1272 LINE",
"1845 1272 LINE",
"843 283 LINE",
"702 28 LINE"
);
},
{
closed = 1;
nodes = (
"1456 28 LINE",
"1939 1179 LINE SMOOTH",
"1958 1225 OFFCURVE",
"2004 1321 OFFCURVE",
"2025 1367 CURVE",
"2006 1385 LINE",
"1804 1294 LINE",
"1795 1263 LINE",
"1837 1235 OFFCURVE",
"1857 1189 OFFCURVE",
"1790 1029 CURVE SMOOTH",
"1370 28 LINE"
);
},
{
closed = 1;
nodes = (
"229 0 LINE",
"253 64 LINE",
"-165 64 LINE",
"-189 0 LINE"
);
},
{
closed = 1;
nodes = (
"917 0 LINE",
"940 65 LINE",
"571 65 LINE",
"548 0 LINE"
);
},
{
closed = 1;
nodes = (
"972 519 LINE",
"1000 583 LINE",
"547 616 LINE",
"484 553 LINE"
);
},
{
closed = 1;
nodes = (
"1586 0 LINE",
"1610 65 LINE",
"1241 65 LINE",
"1217 0 LINE"
);
},
{
closed = 1;
nodes = (
"1643 519 LINE",
"1669 583 LINE",
"1216 616 LINE",
"1155 553 LINE"
);
}
);
width = 1870;
},
{
anchors = (
{
name = bottom;
position = "{778, 0}";
},
{
name = top;
position = "{1580, 1363}";
}
);
hints = (
{
horizontal = 1;
origin = "{4, 3}";
type = Anchor;
},
{
horizontal = 1;
origin = "{4, 3}";
target = "{4, 2}";
type = TTStem;
options = 4;
},
{
horizontal = 1;
origin = "{4, 3}";
target = "{0, 3}";
type = Align;
options = 4;
},
{
horizontal = 1;
origin = "{0, 3}";
target = "{5, 3}";
type = Align;
options = 4;
},
{
horizontal = 1;
origin = "{0, 3}";
target = "{1, 0}";
type = Align;
options = 4;
},
{
horizontal = 1;
origin = "{0, 3}";
target = "{7, 3}";
type = Align;
options = 4;
},
{
horizontal = 1;
origin = "{0, 3}";
target = "{3, 11}";
type = Align;
options = 4;
},
{
horizontal = 1;
origin = "{0, 3}";
target = "{2, 3}";
type = Align;
options = 4;
},
{
horizontal = 1;
origin = "{1, 5}";
type = Anchor;
},
{
horizontal = 1;
origin = "{1, 5}";
target = "{3, 5}";
type = Align;
options = 4;
},
{
horizontal = 1;
origin = "{0, 3}";
target = "{1, 5}";
other1 = "{6, 3}";
type = Interpolate;
},
{
horizontal = 1;
origin = "{6, 3}";
target = "{8, 3}";
type = Align;
options = 4;
},
{
horizontal = 1;
origin = "{6, 3}";
target = "{6, 2}";
type = TTStem;
options = 4;
},
{
horizontal = 1;
origin = "{6, 2}";
target = "{8, 2}";
type = Align;
options = 4;
}
);
layerId = "87470B05-E19F-4BE8-998C-E64C1608970F";
paths = (
{
closed = 1;
nodes = (
"53 27 LINE",
"1229 1242 LINE",
"1205 1272 LINE",
"-56 27 LINE"
);
},
{
closed = 1;
nodes = (
"815 27 LINE",
"1299 1179 LINE SMOOTH",
"1315 1218 OFFCURVE",
"1359 1314 OFFCURVE",
"1383 1367 CURVE",
"1364 1385 LINE",
"1164 1294 LINE",
"1155 1263 LINE",
"1193 1237 OFFCURVE",
"1223 1198 OFFCURVE",
"1151 1029 CURVE SMOOTH",
"730 27 LINE"
);
},
{
closed = 1;
nodes = (
"1880 1242 LINE",
"1855 1272 LINE",
"865 293 LINE",
"707 27 LINE"
);
},
{
closed = 1;
nodes = (
"1466 27 LINE",
"1948 1179 LINE SMOOTH",
"1972 1238 OFFCURVE",
"2008 1309 OFFCURVE",
"2034 1367 CURVE",
"2015 1385 LINE",
"1814 1294 LINE",
"1805 1263 LINE",
"1849 1234 OFFCURVE",
"1867 1187 OFFCURVE",
"1801 1029 CURVE SMOOTH",
"1382 27 LINE"
);
},
{
closed = 1;
nodes = (
"258 0 LINE",
"279 53 LINE",
"-138 53 LINE",
"-159 0 LINE"
);
},
{
closed = 1;
nodes = (
"945 0 LINE",
"965 53 LINE",
"598 53 LINE",
"578 0 LINE"
);
},
{
closed = 1;
nodes = (
"994 513 LINE",
"1032 565 LINE",
"561 600 LINE",
"507 550 LINE"
);
},
{
closed = 1;
nodes = (
"1595 0 LINE",
"1616 53 LINE",
"1249 53 LINE",
"1228 0 LINE"
);
},
{
closed = 1;
nodes = (
"1645 513 LINE",
"1682 565 LINE",
"1211 600 LINE",
"1158 550 LINE"
);
}
);
width = 1792;
},
{
anchors = (
{
name = bottom;
position = "{722, 0}";
},
{
name = top;
position = "{1585, 1363}";
}
);
layerId = "945CD315-E705-4656-B029-92F168859E1E";
paths = (
{
closed = 1;
nodes = (
"91 49 LINE",
"1128 1242 LINE",
"1067 1272 LINE",
"-45 49 LINE"
);
},
{
closed = 1;
nodes = (
"812 49 LINE",
"1277 1179 LINE SMOOTH",
"1311 1261 OFFCURVE",
"1337 1320 OFFCURVE",
"1358 1367 CURVE",
"1344 1385 LINE",
"1033 1294 LINE",
"1024 1263 LINE",
"1066 1229 OFFCURVE",
"1059 1159 OFFCURVE",
"1006 1029 CURVE SMOOTH",
"603 49 LINE"
);
},
{
closed = 1;
nodes = (
"1794 1242 LINE",
"1731 1272 LINE",
"827 274 LINE",
"759 49 LINE"
);
},
{
closed = 1;
nodes = (
"1478 49 LINE",
"1940 1179 LINE SMOOTH",
"1963 1236 OFFCURVE",
"1995 1306 OFFCURVE",
"2024 1367 CURVE",
"2009 1385 LINE",
"1697 1294 LINE",
"1688 1263 LINE",
"1733 1225 OFFCURVE",
"1723 1158 OFFCURVE",
"1670 1029 CURVE SMOOTH",
"1269 49 LINE"
);
},
{
closed = 1;
nodes = (
"252 0 LINE",
"286 94 LINE",
"-124 94 LINE",
"-157 0 LINE"
);
},
{
closed = 1;
nodes = (
"946 0 LINE",
"979 94 LINE",
"507 94 LINE",
"474 0 LINE"
);
},
{
closed = 1;
nodes = (
"838 450 LINE",
"879 543 LINE",
"491 575 LINE",
"433 483 LINE"
);
},
{
closed = 1;
nodes = (
"1612 0 LINE",
"1645 94 LINE",
"1172 94 LINE",
"1139 0 LINE"
);
},
{
closed = 1;
nodes = (
"1504 450 LINE",
"1544 543 LINE",
"1156 575 LINE",
"1099 483 LINE"
);
}
);
width = 1792;
}
);
leftKerningGroup = A;
leftMetricsKey = A;
rightKerningGroup = A;
rightMetricsKey = A;
unicode = A732;
},
{
glyphname = uniA734;
lastChange = "2019-06-22 14:11:28 +0000";
layers = (
{
anchors = (
{
name = bottom;
position = "{1132, 0}";
},
{
name = top;
position = "{1628, 1357}";
}
);
guideLines = (
{
position = "{218, 50}";
}
);
layerId = "9207B417-A6D7-41AF-BE7C-4506B089B767";
paths = (
{
closed = 1;
nodes = (
"2060 -27 OFFCURVE",
"2513 453 OFFCURVE",
"2513 904 CURVE SMOOTH",
"2513 1196 OFFCURVE",
"2323 1384 OFFCURVE",
"1976 1384 CURVE SMOOTH",
"1421 1384 OFFCURVE",
"972 904 OFFCURVE",
"972 461 CURVE SMOOTH",
"972 154 OFFCURVE",
"1187 -27 OFFCURVE",
"1519 -27 CURVE SMOOTH"
);
},
{
closed = 1;
nodes = (
"166 53 LINE",
"1317 1242 LINE",
"1230 1272 LINE",
"-7 53 LINE"
);
},
{
closed = 1;
nodes = (
"359 0 LINE",
"395 102 LINE",
"-106 102 LINE",
"-142 0 LINE"
);
},
{
closed = 1;
nodes = (
"1413 0 LINE",
"1449 102 LINE",
"767 102 LINE",
"731 0 LINE"
);
},
{
closed = 1;
nodes = (
"1159 53 LINE",
"1203 202 LINE",
"1021 526 LINE",
"880 53 LINE"
);
},
{
closed = 1;
nodes = (
"1016 437 LINE",
"1058 539 LINE",
"593 570 LINE",
"529 470 LINE"
);
},
{
closed = 1;
nodes = (
"1382 84 OFFCURVE",
"1314 225 OFFCURVE",
"1314 410 CURVE SMOOTH",
"1314 784 OFFCURVE",
"1594 1280 OFFCURVE",
"1925 1280 CURVE SMOOTH",
"2103 1280 OFFCURVE",
"2171 1136 OFFCURVE",
"2171 957 CURVE SMOOTH",
"2171 608 OFFCURVE",
"1909 84 OFFCURVE",
"1562 84 CURVE SMOOTH"
);
},
{
closed = 1;
nodes = (
"1487 1084 LINE",
"1517 1179 LINE SMOOTH",
"1532 1226 OFFCURVE",
"1575 1311 OFFCURVE",
"1603 1367 CURVE",
"1584 1385 LINE",
"1189 1294 LINE",
"1180 1263 LINE",
"1225 1233 OFFCURVE",
"1222 1183 OFFCURVE",
"1175 1029 CURVE SMOOTH",
"1117 840 LINE"
);
}
);
width = 2418;
},
{
anchors = (
{
name = bottom;
position = "{943, 0}";
},
{
name = top;
position = "{1441, 1364}";
}
);
layerId = "5006D1C8-6490-4B45-8DF5-310CA26D976E";
paths = (
{
closed = 1;
nodes = (
"1871 -27 OFFCURVE",
"2268 509 OFFCURVE",
"2268 945 CURVE SMOOTH",
"2268 1215 OFFCURVE",
"2118 1385 OFFCURVE",
"1824 1385 CURVE SMOOTH",
"1288 1385 OFFCURVE",
"890 839 OFFCURVE",
"890 405 CURVE SMOOTH",
"890 137 OFFCURVE",
"1037 -27 OFFCURVE",
"1330 -27 CURVE SMOOTH"
);
},
{
closed = 1;
nodes = (
"32 28 LINE",
"1234 1272 LINE",
"1176 1272 LINE",
"-86 28 LINE"
);
},
{
closed = 1;
nodes = (
"229 0 LINE",
"253 64 LINE",
"-165 64 LINE",
"-189 0 LINE"
);
},
{
closed = 1;
nodes = (
"893 0 LINE",
"916 65 LINE",
"557 65 LINE",
"534 0 LINE"
);
},
{
closed = 1;
nodes = (
"772 28 LINE",
"941 424 LINE",
"952 646 LINE",
"687 28 LINE"
);
},
{
closed = 1;
nodes = (
"972 519 LINE",
"1000 583 LINE",
"547 616 LINE",
"484 553 LINE"
);
},
{
closed = 1;
nodes = (
"1146 37 OFFCURVE",
"999 191 OFFCURVE",
"999 423 CURVE SMOOTH",
"999 803 OFFCURVE",
"1387 1320 OFFCURVE",
"1792 1320 CURVE SMOOTH",
"2023 1320 OFFCURVE",
"2159 1162 OFFCURVE",
"2159 942 CURVE SMOOTH",
"2159 562 OFFCURVE",
"1782 37 OFFCURVE",
"1373 37 CURVE SMOOTH"
);
},
{
closed = 1;
nodes = (
"1218 1059 LINE",
"1270 1179 LINE SMOOTH",
"1288 1222 OFFCURVE",
"1329 1311 OFFCURVE",
"1355 1367 CURVE",
"1336 1385 LINE",
"1135 1294 LINE",
"1126 1263 LINE",
"1163 1238 OFFCURVE",
"1195 1200 OFFCURVE",
"1121 1029 CURVE SMOOTH",
"1066 906 LINE"
);
}
);
width = 2219;
},
{
anchors = (
{
name = bottom;
position = "{951, 0}";
},
{
name = top;
position = "{1430, 1364}";
}
);
hints = (
{
horizontal = 1;
origin = "{2, 3}";
type = Anchor;
},
{
horizontal = 1;
origin = "{2, 3}";
target = "{2, 2}";
type = TTStem;
options = 4;
},
{
horizontal = 1;
origin = "{2, 3}";
target = "{3, 3}";
type = Align;
options = 4;
},
{
horizontal = 1;
origin = "{2, 2}";
target = "{3, 2}";
type = Align;
options = 4;
},
{
horizontal = 1;
origin = "{7, 5}";
type = Anchor;
},
{
horizontal = 1;
origin = "{2, 3}";
target = "{7, 5}";
other1 = "{5, 3}";
type = Interpolate;
},
{
horizontal = 1;
origin = "{5, 3}";
target = "{5, 2}";
type = TTStem;
options = 4;
},
{
horizontal = 1;
origin = "{0, 11}";
type = Anchor;
},
{
horizontal = 1;
origin = "{0, 11}";
target = "{6, 11}";
type = TTStem;
options = 4;
},
{
horizontal = 1;
origin = "{0, 5}";
type = Anchor;
},
{
horizontal = 1;
origin = "{0, 5}";
target = "{6, 5}";
type = TTStem;
options = 4;
},
{
horizontal = 1;
origin = "{2, 3}";
target = "{2, 2}";
other1 = "{1, 3}";
type = Interpolate;
options = 4;
},
{
horizontal = 1;
origin = "{1, 3}";
target = "{4, 3}";
type = Align;
options = 4;
}
);
layerId = "87470B05-E19F-4BE8-998C-E64C1608970F";
paths = (
{
closed = 1;
nodes = (
"1855 -27 OFFCURVE",
"2230 509 OFFCURVE",
"2230 946 CURVE SMOOTH",
"2230 1216 OFFCURVE",
"2088 1385 OFFCURVE",
"1810 1385 CURVE SMOOTH",
"1305 1385 OFFCURVE",
"930 839 OFFCURVE",
"930 405 CURVE SMOOTH",
"930 136 OFFCURVE",
"1069 -27 OFFCURVE",
"1343 -27 CURVE SMOOTH"
);
},
{
closed = 1;
nodes = (
"53 27 LINE",
"1229 1242 LINE",
"1205 1272 LINE",
"-56 27 LINE"
);
},
{
closed = 1;
nodes = (
"258 0 LINE",
"279 53 LINE",
"-138 53 LINE",
"-159 0 LINE"
);
},
{
closed = 1;
nodes = (
"920 0 LINE",
"940 53 LINE",
"583 53 LINE",
"563 0 LINE"
);
},
{
closed = 1;
nodes = (
"800 27 LINE",
"994 483 LINE",
"969 615 LINE",
"716 27 LINE"
);
},
{
closed = 1;
nodes = (
"994 513 LINE",
"1032 565 LINE",
"561 600 LINE",
"507 550 LINE"
);
},
{
closed = 1;
nodes = (
"1166 32 OFFCURVE",
"1036 196 OFFCURVE",
"1036 423 CURVE SMOOTH",
"1036 807 OFFCURVE",
"1401 1329 OFFCURVE",
"1780 1329 CURVE SMOOTH",
"1997 1329 OFFCURVE",
"2124 1165 OFFCURVE",
"2124 943 CURVE SMOOTH",
"2124 554 OFFCURVE",
"1764 32 OFFCURVE",
"1386 32 CURVE SMOOTH"
);
},
{
closed = 1;
nodes = (
"1224 1005 LINE",
"1299 1179 LINE SMOOTH",
"1312 1210 OFFCURVE",
"1360 1317 OFFCURVE",
"1383 1367 CURVE",
"1364 1385 LINE",
"1164 1294 LINE",
"1155 1263 LINE",
"1193 1238 OFFCURVE",
"1224 1201 OFFCURVE",
"1150 1029 CURVE SMOOTH",
"1111 944 LINE"
);
}
);
width = 2164;
},
{
anchors = (
{
name = bottom;
position = "{982, 0}";
},
{
name = top;
position = "{1475, 1358}";
}
);
layerId = "945CD315-E705-4656-B029-92F168859E1E";
paths = (
{
closed = 1;
nodes = (
"1825 -27 OFFCURVE",
"2257 472 OFFCURVE",
"2257 934 CURVE SMOOTH",
"2257 1209 OFFCURVE",
"2096 1384 OFFCURVE",
"1799 1384 CURVE SMOOTH",
"1301 1384 OFFCURVE",
"871 885 OFFCURVE",
"871 430 CURVE SMOOTH",
"871 142 OFFCURVE",
"1050 -27 OFFCURVE",
"1336 -27 CURVE SMOOTH"
);
},
{
closed = 1;
nodes = (
"112 49 LINE",
"1203 1242 LINE",
"1135 1272 LINE",
"-37 49 LINE"
);
},
{
closed = 1;
nodes = (
"289 0 LINE",
"323 94 LINE",
"-124 94 LINE",
"-157 0 LINE"
);
},
{
closed = 1;
nodes = (
"1193 0 LINE",
"1226 94 LINE",
"651 94 LINE",
"618 0 LINE"
);
},
{
closed = 1;
nodes = (
"982 49 LINE",
"1050 249 LINE",
"917 541 LINE",
"757 49 LINE"
);
},
{
closed = 1;
nodes = (
"913 450 LINE",
"955 543 LINE",
"530 575 LINE",
"471 483 LINE"
);
},
{
closed = 1;
nodes = (
"1215 75 OFFCURVE",
"1147 209 OFFCURVE",
"1147 388 CURVE SMOOTH",
"1147 774 OFFCURVE",
"1443 1288 OFFCURVE",
"1752 1288 CURVE SMOOTH",
"1914 1288 OFFCURVE",
"1982 1151 OFFCURVE",
"1982 977 CURVE SMOOTH",
"1982 611 OFFCURVE",
"1698 75 OFFCURVE",
"1379 75 CURVE SMOOTH"
);
},
{
closed = 1;
nodes = (
"1328 1071 LINE",
"1365 1179 LINE SMOOTH",
"1382 1228 OFFCURVE",
"1421 1308 OFFCURVE",
"1450 1367 CURVE",
"1433 1385 LINE",
"1098 1294 LINE",
"1088 1263 LINE",
"1135 1229 OFFCURVE",
"1117 1153 OFFCURVE",
"1077 1029 CURVE SMOOTH",
"1021 857 LINE"
);
}
);
width = 2164;
}
);
leftKerningGroup = A;
leftMetricsKey = A;
rightKerningGroup = O;
rightMetricsKey = O;
unicode = A734;
},
{
glyphname = uniA736;
lastChange = "2019-06-22 14:11:28 +0000";
layers = (
{
anchors = (
{
name = bottom;
position = "{1161, 0}";
},
{
name = top;
position = "{1641, 1363}";
}
);
guideLines = (
{
position = "{191, 50}";
},
{
position = "{1443, 1315}";
}
);
layerId = "9207B417-A6D7-41AF-BE7C-4506B089B767";
paths = (
{
closed = 1;
nodes = (
"1877 -27 OFFCURVE",
"2031 289 OFFCURVE",
"2196 741 CURVE SMOOTH",
"2405 1313 LINE",
"2208 1313 LINE",
"1915 504 LINE SMOOTH",
"1822 249 OFFCURVE",
"1682 84 OFFCURVE",
"1421 84 CURVE SMOOTH",
"1256 84 OFFCURVE",
"1213 147 OFFCURVE",
"1213 249 CURVE SMOOTH",
"1213 327 OFFCURVE",
"1237 436 OFFCURVE",
"1274 537 CURVE SMOOTH",
"1557 1313 LINE",
"1252 1313 LINE",
"971 546 LINE SMOOTH",
"932 439 OFFCURVE",
"906 343 OFFCURVE",
"906 266 CURVE SMOOTH",
"906 45 OFFCURVE",
"1123 -27 OFFCURVE",
"1351 -27 CURVE SMOOTH"
);
},
{
closed = 1;
nodes = (
"359 0 LINE",
"395 102 LINE",
"-106 102 LINE",
"-142 0 LINE"
);
},
{
closed = 1;
nodes = (
"167 53 LINE",
"1395 1313 LINE",
"1279 1313 LINE",
"-6 53 LINE"
);
},
{
closed = 1;
nodes = (
"1016 437 LINE",
"1058 539 LINE",
"593 570 LINE",
"529 470 LINE"
);
},
{
closed = 1;
nodes = (
"1685 1255 LINE",
"1717 1358 LINE",
"1100 1358 LINE",
"1065 1255 LINE"
);
},
{
closed = 1;
nodes = (
"2527 1255 LINE",
"2559 1358 LINE",
"2046 1358 LINE",
"2014 1255 LINE"
);
}
);
width = 2248;
},
{
anchors = (
{
name = bottom;
position = "{937, 0}";
},
{
name = top;
position = "{1402, 1358}";
}
);
layerId = "5006D1C8-6490-4B45-8DF5-310CA26D976E";
paths = (
{
closed = 1;
nodes = (
"1674 -27 OFFCURVE",
"1821 248 OFFCURVE",
"1995 728 CURVE SMOOTH",
"2226 1360 LINE",
"2151 1360 LINE",
"1850 531 LINE SMOOTH",
"1724 185 OFFCURVE",
"1517 32 OFFCURVE",
"1219 32 CURVE SMOOTH",
"1086 32 OFFCURVE",
"929 55 OFFCURVE",
"929 272 CURVE SMOOTH",
"929 344 OFFCURVE",
"946 439 OFFCURVE",
"984 542 CURVE SMOOTH",
"1274 1332 LINE",
"1166 1332 LINE",
"875 538 LINE SMOOTH",
"831 418 OFFCURVE",
"808 310 OFFCURVE",
"808 238 CURVE SMOOTH",
"808 36 OFFCURVE",
"965 -27 OFFCURVE",
"1172 -27 CURVE SMOOTH"
);
},
{
closed = 1;
nodes = (
"229 0 LINE",
"253 64 LINE",
"-165 64 LINE",
"-189 0 LINE"
);
},
{
closed = 1;
nodes = (
"32 28 LINE",
"1257 1332 LINE",
"1197 1332 LINE",
"-86 28 LINE"
);
},
{
closed = 1;
nodes = (
"942 519 LINE",
"970 583 LINE",
"547 616 LINE",
"484 553 LINE"
);
},
{
closed = 1;
nodes = (
"1471 1293 LINE",
"1495 1358 LINE",
"972 1358 LINE",
"948 1293 LINE"
);
},
{
closed = 1;
nodes = (
"2395 1293 LINE",
"2420 1358 LINE",
"1925 1358 LINE",
"1900 1293 LINE"
);
}
);
width = 2124;
},
{
anchors = (
{
name = bottom;
position = "{932, 0}";
},
{
name = top;
position = "{1412, 1363}";
}
);
hints = (
{
horizontal = 1;
origin = "{1, 3}";
type = Anchor;
},
{
horizontal = 1;
origin = "{1, 3}";
target = "{1, 2}";
type = TTStem;
options = 4;
},
{
horizontal = 1;
origin = "{4, 2}";
type = Anchor;
},
{
horizontal = 1;
origin = "{4, 2}";
target = "{5, 2}";
type = Align;
options = 4;
},
{
horizontal = 1;
origin = "{4, 2}";
target = "{4, 3}";
type = TTStem;
options = 4;
},
{
horizontal = 1;
origin = "{4, 3}";
target = "{5, 3}";
type = Align;
options = 4;
},
{
horizontal = 1;
origin = "{0, 23}";
type = Anchor;
},
{
horizontal = 1;
origin = "{0, 23}";
target = "{0, 8}";
type = TTStem;
options = 4;
},
{
horizontal = 1;
origin = "{1, 3}";
target = "{4, 2}";
other1 = "{3, 3}";
type = Interpolate;
},
{
horizontal = 1;
origin = "{3, 3}";
target = "{3, 2}";
type = TTStem;
options = 4;
},
{
horizontal = 1;
origin = "{1, 3}";
target = "{1, 2}";
other1 = "{2, 3}";
type = Interpolate;
options = 4;
},
{
horizontal = 1;
origin = "{4, 2}";
target = "{4, 3}";
other1 = "{0, 16}";
type = Interpolate;
options = 4;
},
{
horizontal = 1;
origin = "{0, 16}";
target = "{0, 4}";
type = Align;
options = 4;
}
);
layerId = "87470B05-E19F-4BE8-998C-E64C1608970F";
paths = (
{
closed = 1;
nodes = (
"1671 -27 OFFCURVE",
"1818 267 OFFCURVE",
"1975 728 CURVE SMOOTH",
"2181 1332 LINE",
"2112 1332 LINE",
"1823 485 LINE SMOOTH",
"1713 163 OFFCURVE",
"1501 32 OFFCURVE",
"1242 32 CURVE SMOOTH",
"1096 32 OFFCURVE",
"971 83 OFFCURVE",
"971 274 CURVE SMOOTH",
"971 347 OFFCURVE",
"992 443 OFFCURVE",
"1027 542 CURVE SMOOTH",
"1306 1332 LINE",
"1208 1332 LINE",
"928 538 LINE SMOOTH",
"888 425 OFFCURVE",
"859 308 OFFCURVE",
"859 224 CURVE SMOOTH",
"859 45 OFFCURVE",
"990 -27 OFFCURVE",
"1199 -27 CURVE SMOOTH"
);
},
{
closed = 1;
nodes = (
"258 0 LINE",
"279 53 LINE",
"-138 53 LINE",
"-159 0 LINE"
);
},
{
closed = 1;
nodes = (
"53 27 LINE",
"1249 1332 LINE",
"1196 1332 LINE",
"-56 27 LINE"
);
},
{
closed = 1;
nodes = (
"994 513 LINE",
"1032 565 LINE",
"561 600 LINE",
"507 550 LINE"
);
},
{
closed = 1;
nodes = (
"1492 1305 LINE",
"1513 1358 LINE",
"1023 1358 LINE",
"1003 1305 LINE"
);
},
{
closed = 1;
nodes = (
"2358 1305 LINE",
"2379 1358 LINE",
"1915 1358 LINE",
"1894 1305 LINE"
);
}
);
width = 2063;
},
{
anchors = (
{
name = bottom;
position = "{1035, 0}";
},
{
name = top;
position = "{1516, 1363}";
}
);
layerId = "945CD315-E705-4656-B029-92F168859E1E";
paths = (
{
closed = 1;
nodes = (
"1724 -27 OFFCURVE",
"1872 316 OFFCURVE",
"2025 739 CURVE SMOOTH",
"2234 1316 LINE",
"2069 1316 LINE",
"1776 501 LINE SMOOTH",
"1701 292 OFFCURVE",
"1568 75 OFFCURVE",
"1288 75 CURVE SMOOTH",
"1140 75 OFFCURVE",
"1087 135 OFFCURVE",
"1087 245 CURVE SMOOTH",
"1087 320 OFFCURVE",
"1113 436 OFFCURVE",
"1150 538 CURVE SMOOTH",
"1433 1316 LINE",
"1177 1316 LINE",
"896 545 LINE SMOOTH",
"849 416 OFFCURVE",
"828 319 OFFCURVE",
"828 252 CURVE SMOOTH",
"828 44 OFFCURVE",
"1015 -27 OFFCURVE",
"1225 -27 CURVE SMOOTH"
);
},
{
closed = 1;
nodes = (
"301 0 LINE",
"335 94 LINE",
"-124 94 LINE",
"-157 0 LINE"
);
},
{
closed = 1;
nodes = (
"120 49 LINE",
"1295 1316 LINE",
"1196 1316 LINE",
"-32 49 LINE"
);
},
{
closed = 1;
nodes = (
"939 450 LINE",
"981 543 LINE",
"543 575 LINE",
"483 483 LINE"
);
},
{
closed = 1;
nodes = (
"1561 1263 LINE",
"1591 1358 LINE",
"1030 1358 LINE",
"997 1263 LINE"
);
},
{
closed = 1;
nodes = (
"2356 1263 LINE",
"2386 1358 LINE",
"1911 1358 LINE",
"1881 1263 LINE"
);
}
);
width = 2063;
}
);
leftKerningGroup = A;
leftMetricsKey = A;
rightKerningGroup = U;
rightMetricsKey = U;
unicode = A736;
},
{
glyphname = uniA738;
lastChange = "2019-06-22 14:11:28 +0000";
layers = (
{
anchors = (
{
name = bottom;
position = "{686, 0}";
},
{
name = top;
position = "{1664, 1363}";
}
);
guideLines = (
{
position = "{210, 50}";
},
{
position = "{2208, 1315}";
}
);
layerId = "9207B417-A6D7-41AF-BE7C-4506B089B767";
paths = (
{
closed = 1;
nodes = (
"167 53 LINE",
"1317 1242 LINE",
"1230 1272 LINE",
"-6 53 LINE"
);
},
{
closed = 1;
nodes = (
"1022 0 LINE",
"1517 1179 LINE SMOOTH",
"1529 1209 OFFCURVE",
"1578 1315 OFFCURVE",
"1603 1367 CURVE",
"1584 1385 LINE",
"1189 1294 LINE",
"1180 1263 LINE",
"1225 1233 OFFCURVE",
"1241 1187 OFFCURVE",
"1175 1029 CURVE SMOOTH",
"743 0 LINE"
);
},
{
closed = 1;
nodes = (
"359 0 LINE",
"395 102 LINE",
"-106 102 LINE",
"-142 0 LINE"
);
},
{
closed = 1;
nodes = (
"1016 437 LINE",
"1058 539 LINE",
"593 570 LINE",
"529 470 LINE"
);
},
{
closed = 1;
nodes = (
"1022 0 LINE",
"2274 1313 LINE",
"2098 1313 LINE",
"846 0 LINE"
);
},
{
closed = 1;
nodes = (
"2371 1255 LINE",
"2407 1358 LINE",
"1896 1358 LINE",
"1860 1255 LINE"
);
}
);
width = 2061;
},
{
anchors = (
{
name = bottom;
position = "{574, 0}";
},
{
name = top;
position = "{1458, 1363}";
}
);
layerId = "5006D1C8-6490-4B45-8DF5-310CA26D976E";
paths = (
{
closed = 1;
nodes = (
"31 28 LINE",
"1234 1272 LINE",
"1176 1272 LINE",
"-87 28 LINE"
);
},
{
closed = 1;
nodes = (
"774 0 LINE",
"1270 1179 LINE SMOOTH",
"1284 1215 OFFCURVE",
"1334 1322 OFFCURVE",
"1355 1367 CURVE",
"1336 1385 LINE",
"1135 1294 LINE",
"1126 1263 LINE",
"1166 1235 OFFCURVE",
"1189 1194 OFFCURVE",
"1121 1029 CURVE SMOOTH",
"689 0 LINE"
);
},
{
closed = 1;
nodes = (
"229 0 LINE",
"253 64 LINE",
"-165 64 LINE",
"-189 0 LINE"
);
},
{
closed = 1;
nodes = (
"972 519 LINE",
"1000 583 LINE",
"547 616 LINE",
"484 553 LINE"
);
},
{
closed = 1;
nodes = (
"780 0 LINE",
"2027 1332 LINE",
"1923 1332 LINE",
"675 0 LINE"
);
},
{
closed = 1;
nodes = (
"2150 1305 LINE",
"2172 1358 LINE",
"1711 1358 LINE",
"1689 1305 LINE"
);
}
);
width = 1847;
},
{
anchors = (
{
name = bottom;
position = "{604, 0}";
},
{
name = top;
position = "{1518, 1363}";
}
);
hints = (
{
horizontal = 1;
origin = "{2, 3}";
type = Anchor;
},
{
horizontal = 1;
origin = "{2, 3}";
target = "{1, 11}";
type = Align;
options = 4;
},
{
horizontal = 1;
origin = "{2, 3}";
target = "{1, 11}";
type = Align;
options = 4;
},
{
horizontal = 1;
origin = "{2, 3}";
target = "{2, 2}";
type = TTStem;
options = 4;
},
{
horizontal = 1;
origin = "{1, 5}";
type = Anchor;
},
{
horizontal = 1;
origin = "{5, 2}";
type = Anchor;
},
{
horizontal = 1;
origin = "{5, 2}";
target = "{5, 3}";
type = TTStem;
options = 4;
},
{
horizontal = 1;
origin = "{2, 3}";
target = "{1, 5}";
other1 = "{3, 3}";
type = Interpolate;
},
{
horizontal = 1;
origin = "{3, 3}";
target = "{3, 2}";
type = TTStem;
options = 4;
},
{
horizontal = 1;
origin = "{2, 3}";
target = "{2, 2}";
other1 = "{0, 3}";
type = Interpolate;
options = 4;
},
{
horizontal = 1;
origin = "{5, 2}";
target = "{5, 3}";
other1 = "{4, 2}";
type = Interpolate;
options = 4;
}
);
layerId = "87470B05-E19F-4BE8-998C-E64C1608970F";
paths = (
{
closed = 1;
nodes = (
"54 27 LINE",
"1229 1242 LINE",
"1205 1272 LINE",
"-55 27 LINE"
);
},
{
closed = 1;
nodes = (
"802 0 LINE",
"1299 1179 LINE SMOOTH",
"1315 1219 OFFCURVE",
"1363 1323 OFFCURVE",
"1383 1367 CURVE",
"1364 1385 LINE",
"1164 1294 LINE",
"1155 1263 LINE",
"1196 1235 OFFCURVE",
"1218 1194 OFFCURVE",
"1150 1029 CURVE SMOOTH",
"718 0 LINE"
);
},
{
closed = 1;
nodes = (
"258 0 LINE",
"279 53 LINE",
"-138 53 LINE",
"-159 0 LINE"
);
},
{
closed = 1;
nodes = (
"994 513 LINE",
"1032 565 LINE",
"561 600 LINE",
"507 550 LINE"
);
},
{
closed = 1;
nodes = (
"802 0 LINE",
"2050 1332 LINE",
"1953 1332 LINE",
"704 0 LINE"
);
},
{
closed = 1;
nodes = (
"2246 1305 LINE",
"2265 1358 LINE",
"1817 1358 LINE",
"1796 1305 LINE"
);
}
);
width = 1928;
},
{
anchors = (
{
name = bottom;
position = "{617, 0}";
},
{
name = top;
position = "{1561, 1363}";
}
);
layerId = "945CD315-E705-4656-B029-92F168859E1E";
paths = (
{
closed = 1;
nodes = (
"123 49 LINE",
"1238 1242 LINE",
"1167 1272 LINE",
"-32 49 LINE"
);
},
{
closed = 1;
nodes = (
"915 0 LINE",
"1406 1179 LINE SMOOTH",
"1431 1239 OFFCURVE",
"1467 1316 OFFCURVE",
"1491 1367 CURVE",
"1473 1385 LINE",
"1129 1294 LINE",
"1119 1263 LINE",
"1172 1224 OFFCURVE",
"1162 1153 OFFCURVE",
"1110 1029 CURVE SMOOTH",
"681 0 LINE"
);
},
{
closed = 1;
nodes = (
"305 0 LINE",
"339 94 LINE",
"-124 94 LINE",
"-157 0 LINE"
);
},
{
closed = 1;
nodes = (
"948 450 LINE",
"990 543 LINE",
"549 575 LINE",
"487 483 LINE"
);
},
{
closed = 1;
nodes = (
"915 0 LINE",
"2124 1316 LINE",
"1970 1316 LINE",
"759 0 LINE"
);
},
{
closed = 1;
nodes = (
"2231 1263 LINE",
"2264 1358 LINE",
"1790 1358 LINE",
"1756 1263 LINE"
);
}
);
width = 1928;
}
);
leftKerningGroup = A;
leftMetricsKey = A;
rightKerningGroup = V;
rightMetricsKey = V;
unicode = A738;
},
{
glyphname = uniA73A;
lastChange = "2019-06-22 14:11:28 +0000";
layers = (
{
anchors = (
{
name = bottom;
position = "{686, 0}";
},
{
name = top;
position = "{1664, 1363}";
}
);
layerId = "9207B417-A6D7-41AF-BE7C-4506B089B767";
paths = (
{
closed = 1;
nodes = (
"1693 548 LINE",
"1736 634 LINE",
"635 634 LINE",
"572 548 LINE"
);
},
{
closed = 1;
nodes = (
"167 53 LINE",
"1317 1242 LINE",
"1230 1272 LINE",
"-6 53 LINE"
);
},
{
closed = 1;
nodes = (
"1022 0 LINE",
"1517 1179 LINE SMOOTH",
"1529 1209 OFFCURVE",
"1578 1315 OFFCURVE",
"1603 1367 CURVE",
"1584 1385 LINE",
"1189 1294 LINE",
"1180 1263 LINE",
"1225 1233 OFFCURVE",
"1241 1187 OFFCURVE",
"1175 1029 CURVE SMOOTH",
"743 0 LINE"
);
},
{
closed = 1;
nodes = (
"359 0 LINE",
"395 102 LINE",
"-106 102 LINE",
"-142 0 LINE"
);
},
{
closed = 1;
nodes = (
"1022 0 LINE",
"2274 1313 LINE",
"2098 1313 LINE",
"846 0 LINE"
);
},
{
closed = 1;
nodes = (
"2371 1255 LINE",
"2407 1358 LINE",
"1896 1358 LINE",
"1860 1255 LINE"
);
}
);
width = 2061;
},
{
anchors = (
{
name = bottom;
position = "{574, 0}";
},
{
name = top;
position = "{1458, 1363}";
}
);
layerId = "5006D1C8-6490-4B45-8DF5-310CA26D976E";
paths = (
{
closed = 1;
nodes = (
"1488 564 LINE",
"1513 632 LINE",
"565 632 LINE",
"502 564 LINE"
);
},
{
closed = 1;
nodes = (
"31 28 LINE",
"1234 1272 LINE",
"1176 1272 LINE",
"-87 28 LINE"
);
},
{
closed = 1;
nodes = (
"774 0 LINE",
"1270 1179 LINE SMOOTH",
"1284 1215 OFFCURVE",
"1334 1322 OFFCURVE",
"1355 1367 CURVE",
"1336 1385 LINE",
"1135 1294 LINE",
"1126 1263 LINE",
"1166 1235 OFFCURVE",
"1189 1194 OFFCURVE",
"1121 1029 CURVE SMOOTH",
"689 0 LINE"
);
},
{
closed = 1;
nodes = (
"229 0 LINE",
"253 64 LINE",
"-165 64 LINE",
"-189 0 LINE"
);
},
{
closed = 1;
nodes = (
"780 0 LINE",
"2027 1332 LINE",
"1923 1332 LINE",
"675 0 LINE"
);
},
{
closed = 1;
nodes = (
"2150 1305 LINE",
"2172 1358 LINE",
"1711 1358 LINE",
"1689 1305 LINE"
);
}
);
width = 1847;
},
{
anchors = (
{
name = bottom;
position = "{604, 0}";
},
{
name = top;
position = "{1518, 1363}";
}
);
hints = (
{
horizontal = 1;
origin = "{3, 3}";
type = Anchor;
},
{
horizontal = 1;
origin = "{3, 3}";
target = "{3, 2}";
type = TTStem;
options = 4;
},
{
horizontal = 1;
origin = "{3, 3}";
target = "{3, 2}";
other1 = "{1, 3}";
type = Interpolate;
options = 4;
},
{
horizontal = 1;
origin = "{5, 2}";
type = Anchor;
},
{
horizontal = 1;
origin = "{5, 2}";
target = "{5, 3}";
type = TTStem;
options = 4;
},
{
horizontal = 1;
origin = "{5, 2}";
target = "{5, 3}";
other1 = "{4, 2}";
type = Interpolate;
options = 4;
},
{
horizontal = 1;
origin = "{3, 3}";
target = "{5, 2}";
other1 = "{0, 2}";
type = Interpolate;
},
{
horizontal = 1;
origin = "{0, 2}";
target = "{0, 3}";
type = TTStem;
options = 4;
}
);
layerId = "87470B05-E19F-4BE8-998C-E64C1608970F";
paths = (
{
closed = 1;
nodes = (
"1449 562 LINE",
"1486 629 LINE",
"588 629 LINE",
"525 562 LINE"
);
},
{
closed = 1;
nodes = (
"54 27 LINE",
"1229 1242 LINE",
"1205 1272 LINE",
"-55 27 LINE"
);
},
{
closed = 1;
nodes = (
"802 0 LINE",
"1299 1179 LINE SMOOTH",
"1315 1219 OFFCURVE",
"1363 1323 OFFCURVE",
"1383 1367 CURVE",
"1364 1385 LINE",
"1164 1294 LINE",
"1155 1263 LINE",
"1196 1235 OFFCURVE",
"1218 1194 OFFCURVE",
"1150 1029 CURVE SMOOTH",
"718 0 LINE"
);
},
{
closed = 1;
nodes = (
"258 0 LINE",
"279 53 LINE",
"-138 53 LINE",
"-159 0 LINE"
);
},
{
closed = 1;
nodes = (
"802 0 LINE",
"2050 1332 LINE",
"1953 1332 LINE",
"704 0 LINE"
);
},
{
closed = 1;
nodes = (
"2246 1305 LINE",
"2265 1358 LINE",
"1817 1358 LINE",
"1796 1305 LINE"
);
}
);
width = 1928;
},
{
anchors = (
{
name = bottom;
position = "{617, 0}";
},
{
name = top;
position = "{1585, 1363}";
}
);
layerId = "945CD315-E705-4656-B029-92F168859E1E";
paths = (
{
closed = 1;
nodes = (
"1597 550 LINE",
"1639 633 LINE",
"572 633 LINE",
"509 550 LINE"
);
},
{
closed = 1;
nodes = (
"123 49 LINE",
"1238 1242 LINE",
"1167 1272 LINE",
"-32 49 LINE"
);
},
{
closed = 1;
nodes = (
"915 0 LINE",
"1406 1179 LINE SMOOTH",
"1431 1239 OFFCURVE",
"1467 1316 OFFCURVE",
"1491 1367 CURVE",
"1473 1385 LINE",
"1129 1294 LINE",
"1119 1263 LINE",
"1172 1224 OFFCURVE",
"1162 1153 OFFCURVE",
"1110 1029 CURVE SMOOTH",
"681 0 LINE"
);
},
{
closed = 1;
nodes = (
"305 0 LINE",
"339 94 LINE",
"-124 94 LINE",
"-157 0 LINE"
);
},
{
closed = 1;
nodes = (
"915 0 LINE",
"2124 1316 LINE",
"1970 1316 LINE",
"759 0 LINE"
);
},
{
closed = 1;
nodes = (
"2231 1263 LINE",
"2264 1358 LINE",
"1790 1358 LINE",
"1756 1263 LINE"
);
}
);
width = 1928;
}
);
leftKerningGroup = A;
leftMetricsKey = A;
rightKerningGroup = V;
rightMetricsKey = V;
unicode = A73A;
},
